<svg width="537" height="405" viewBox="0 0 537 405" fill="none" xmlns="http://www.w3.org/2000/svg">
<path opacity="0.1" d="M61.4169 376.657C61.4169 376.657 26.3014 293.975 70.7124 231.49C115.123 169.005 88.037 113.614 166.014 58.4681C266.24 -12.4123 362.913 57.5217 391.742 104.937C420.57 152.352 518.487 128.147 490.03 263.064C467.955 367.722 484.427 372.313 484.427 372.313L61.4169 376.657Z" fill="#0026EC"/>
<path d="M82.5747 354.29C82.5747 354.29 20.2569 321.725 35.2725 248.498C50.2881 175.271 111.442 157.895 136.591 163.271C183.729 173.346 106.716 203.075 88.3195 152.049C65.2371 88.0266 147.538 39.5545 223.829 52.0987C272.861 60.1611 296.528 83.6382 340.113 98.3901C383.543 113.089 401.758 93.4023 384.455 81.9925C368.03 71.1606 308.395 88.8323 328.871 113.053C356.908 146.217 424.475 94.8343 476.842 152.049C529.209 209.263 483.748 281.193 443.489 287.192C403.23 293.19 420.883 235.388 483.748 281.194C546.614 327.001 467.205 376.659 467.205 376.659" stroke="#C3C8FF" stroke-miterlimit="10"/>
<path d="M510.484 381.238H34.1165C31.5873 381.238 29.5381 379.187 29.5381 376.658C29.5381 374.129 31.5884 372.079 34.1165 372.079H515.062V376.658C515.062 379.187 513.012 381.238 510.484 381.238Z" fill="url(#paint0_linear_1455_7081)"/>
<path d="M205.306 381.238H34.1165C31.5873 381.238 29.5381 379.187 29.5381 376.658V372.079H209.885V376.658C209.885 379.187 207.835 381.238 205.306 381.238Z" fill="url(#paint1_linear_1455_7081)"/>
<path d="M276.471 197.483C256.072 236.694 233.15 252.668 233.15 252.668L252.945 284.28L287.512 248.35L276.471 197.483Z" fill="url(#paint2_linear_1455_7081)"/>
<path d="M327.05 188.124L276.47 197.483C273.266 293.204 272.065 372.066 272.065 372.066H362.855C362.855 372.066 365.489 225.489 350.884 193.508L327.05 188.124Z" fill="url(#paint3_linear_1455_7081)"/>
<path d="M321.179 236.903L345.821 234.818" stroke="white" stroke-width="4" stroke-miterlimit="10"/>
<path d="M309.867 216.331C309.867 216.331 325.508 323.089 311.899 366.285" stroke="white" stroke-miterlimit="10"/>
<path d="M293.49 269.807C293.49 269.807 308.597 275.89 328.183 276.533C347.768 277.177 335.582 287.6 306.548 285.624" stroke="white" stroke-miterlimit="10"/>
<path d="M297.384 184.232L309.867 217.405L327.051 188.124L315.726 169.611L297.384 184.232Z" fill="#E9A394"/>
<path d="M332.558 210.621L310.922 216.595L326.877 189.408L332.558 210.621Z" fill="white" stroke="white"/>
<path d="M308.938 216.356L288.313 205.587L299.981 192.552L308.938 216.356Z" fill="white" stroke="white"/>
<path d="M252.945 284.28C252.945 284.28 260.331 268.874 244.473 249.031C235.679 238.027 231.626 219.039 231.626 219.039L218.414 221.049L230.513 284.281H252.945V284.28Z" fill="#E9A394"/>
<path d="M215.713 199.214L210.303 204.132L217.535 210.517L194.889 210.131L194.403 217.904L218.413 221.049L231.626 219.039L215.713 199.214Z" fill="#E9A394"/>
<path d="M219.671 211.319L197.943 202.354L196.54 206.215L214.676 213.838L219.671 211.319Z" fill="#E9A394"/>
<path d="M350.886 193.508C350.886 193.508 380.074 210.132 389.291 272.398L355.428 280.571L350.886 193.508Z" fill="#1C145E"/>
<path d="M287.494 143.693L276.471 171.908L284.901 174.502L287.494 190.394L314.407 184.232L318.297 141.099L287.494 143.693Z" fill="#E9A394"/>
<path d="M305.455 150.398H284.875L287.12 144.315L305.455 143.181V150.398Z" fill="#E37A82"/>
<path d="M316.209 163.27C316.209 163.27 303.079 160.553 303.079 146.966C303.079 146.966 283.598 149.619 276.873 139.042C268.907 126.512 281.081 112.114 291.134 115.039C291.134 115.039 284.799 121.32 294.421 122.058C301.283 122.585 313.821 113.454 318.298 122.285C318.298 122.285 352.836 130.176 327.052 162.364L316.209 163.27Z" fill="#16005C"/>
<path d="M303.078 145.892C303.078 145.892 277.037 150.925 271.591 132.246C268.406 121.326 279.349 115.107 279.349 115.107" stroke="#16005C" stroke-width="2" stroke-miterlimit="10"/>
<path d="M292.06 171.009C297.489 171.009 301.89 166.606 301.89 161.176C301.89 155.745 297.489 151.343 292.06 151.343C286.631 151.343 282.229 155.745 282.229 161.176C282.229 166.606 286.631 171.009 292.06 171.009Z" stroke="#16005C" stroke-width="0.5" stroke-miterlimit="10"/>
<path d="M301.362 157.994L315.363 158.761" stroke="#16005C" stroke-width="0.5" stroke-miterlimit="10"/>
<path d="M333.169 165.746C333.169 171.836 325.012 176.772 318.924 176.772C312.835 176.772 311.122 171.835 311.122 165.746C311.122 159.657 316.058 154.719 322.146 154.719C328.233 154.719 333.169 159.657 333.169 165.746Z" fill="#E9A394"/>
<path d="M385.25 273.373V324.22H359.902L357.793 280L385.25 273.373Z" fill="#E9A394"/>
<path d="M274.498 261.878L275.562 226.448L259.143 277.839L274.498 261.878Z" fill="white"/>
<path d="M298.688 187.606L314.406 184.232L301.521 195.225L298.688 187.606Z" fill="#E37A82"/>
<path d="M289.393 165.746C290.433 165.746 291.275 163.988 291.275 161.82C291.275 159.652 290.433 157.895 289.393 157.895C288.354 157.895 287.512 159.652 287.512 161.82C287.512 163.988 288.354 165.746 289.393 165.746Z" fill="#16005C"/>
<path d="M294.503 152.273C294.503 147.014 290.316 150.555 290.316 150.555L294.503 152.273Z" fill="#16005C"/>
<path d="M290.315 175.559L296.303 173.965C296.303 173.965 298.869 196.179 290.315 175.559Z" fill="white"/>
<path d="M161.288 275.127C161.288 275.127 201.684 268.875 202.478 339.336C202.607 350.771 209.886 372.078 209.886 372.078H173.276L161.288 275.127Z" fill="white"/>
<path d="M119.049 268.875L94.6338 274.64L102.083 372.078H197.081C197.081 372.078 193.894 294.985 158.07 271.857L119.049 268.875Z" fill="url(#paint4_linear_1455_7081)"/>
<path d="M94.6336 274.64C69.4687 280.38 75.3596 299.7 80.2184 339.373C67.658 349.576 79.7082 354.169 79.7082 354.169C65.9138 368.795 83.1225 372.078 83.1225 372.078H129.062C129.062 372.078 119.816 268.894 94.6336 274.64Z" fill="url(#paint5_linear_1455_7081)"/>
<path d="M126.329 349.573L115.305 298.953" stroke="#5321D7" stroke-miterlimit="10"/>
<path d="M83.1221 372.078C83.1221 372.078 90.8785 354.266 115.393 345.31C135.718 337.886 165.45 357.16 184.482 338.845L188.007 359.465L129.061 372.078H83.1221Z" fill="#E9A394"/>
<path d="M163.931 218.691L182.105 246.362L170.443 250.526L168.427 273.014L133.378 260.834L136.68 215.093L163.931 218.691Z" fill="#E9A394"/>
<path d="M136.964 247.758L119.049 268.875L142.024 297.038L152.386 264.144L136.964 247.758Z" fill="#E37A82"/>
<path d="M142.955 234.683L168.591 225.787L163.931 218.691L138.606 221.328L142.955 234.683Z" fill="#E37A82"/>
<path d="M140.741 244.376C140.741 244.376 148.503 259.92 143.103 229.957C143.103 229.957 150.468 230.784 156.237 221.061C156.237 221.061 154.444 236.906 171.365 221.061C188.286 205.216 166.775 192.819 140.49 197.483C117.707 201.527 94.9083 214.402 128.23 258.053L140.741 244.376Z" fill="#16005C"/>
<path d="M136.591 250.557C134.842 252.902 131.838 255.03 128.715 255.485C122.469 256.395 116.368 251.463 115.459 245.215C114.549 238.967 117.704 235.723 123.95 234.813C127.461 234.302 131.526 235.343 134.575 237.462C135.496 238.611 136.591 250.557 136.591 250.557Z" fill="#E9A394"/>
<path d="M161.317 241.92C162.252 241.666 162.541 239.729 161.962 237.594C161.382 235.459 160.154 233.934 159.219 234.188C158.284 234.442 157.995 236.378 158.574 238.514C159.154 240.649 160.381 242.174 161.317 241.92Z" fill="#16005C"/>
<path d="M154.211 232.621C154.211 232.621 153.3 227.483 158.069 229.957L154.211 232.621Z" fill="#16005C"/>
<path d="M116.18 269.739L120.339 264.96L118.813 261.418L128.229 258.054L155.241 271.641L156.236 282.015L151.665 280.57L144.202 308.392L116.18 269.739Z" fill="white"/>
<path d="M140.571 276.532L156.236 282.015L155.241 271.641" stroke="#5321D7" stroke-miterlimit="10"/>
<path d="M143.103 229.957C143.103 229.957 146.254 248.302 150.863 252.073C152.376 253.312 155.24 250.161 168.427 249.897C176.489 249.736 176.483 277.886 165.784 277.079C155.085 276.272 138.825 269.6 136.388 249.081C134.252 231.081 143.103 229.957 143.103 229.957Z" fill="#16005C"/>
<path d="M156.235 255.485C156.235 255.485 158.955 260.55 164.314 257.119" stroke="#C4C6C5" stroke-miterlimit="10"/>
<path opacity="0.5" d="M217.379 360.493H127.197V367.176C127.197 369.883 129.391 372.077 132.097 372.077H217.379C220.085 372.077 222.278 369.882 222.278 367.176V365.393C222.28 362.687 220.085 360.493 217.379 360.493Z" fill="#0026EC"/>
<path opacity="0.5" d="M290.62 293.496H185.716C182.598 293.496 179.966 295.814 179.57 298.907L171.119 365.096C170.647 368.8 173.531 372.078 177.265 372.078H282.169C285.286 372.078 287.919 369.759 288.314 366.667L296.765 300.478C297.238 296.773 294.353 293.496 290.62 293.496Z" fill="#0026EC"/>
<path d="M295.696 293.496H190.792C187.674 293.496 185.042 295.814 184.647 298.907L176.195 365.096C175.723 368.8 178.608 372.078 182.341 372.078H287.245C290.363 372.078 292.995 369.759 293.39 366.667L301.841 300.478C302.314 296.773 299.429 293.496 295.696 293.496Z" fill="#0026EC"/>
<path d="M245.77 339.898C250.138 335.752 250.655 329.202 246.923 325.269C243.192 321.335 236.625 321.507 232.257 325.653C227.888 329.799 227.372 336.35 231.103 340.283C234.835 344.217 241.401 344.045 245.77 339.898Z" fill="white"/>
<path d="M293.409 371.517H162.831" stroke="#1C145E" stroke-miterlimit="10"/>
<path d="M351.119 282.939L394.466 283.761L384.639 230.721L361.59 233.331C361.59 233.331 351.208 248.659 359.407 260.577C368.657 274.024 350.166 274.525 351.119 282.939Z" fill="#16005C"/>
<path d="M361.589 233.331C361.589 233.331 351.207 248.659 359.406 260.577C368.657 274.025 350.166 274.525 351.119 282.939" stroke="#7079F1" stroke-width="2" stroke-miterlimit="10"/>
<path d="M370.237 276.532C370.237 276.532 350.514 295.89 340.114 368.843H362.069L370.237 276.532Z" fill="white"/>
<path d="M422.362 271.139L413.778 368.843H350.013L357.951 331.527C357.951 331.527 333.674 318.858 370.236 276.532L379.323 271.857L418.803 268.875L422.362 271.139Z" fill="url(#paint6_linear_1455_7081)"/>
<path d="M370.237 320.259C370.237 320.259 366.414 326.808 370.09 332.065L364.678 368.843" stroke="#7079F1" stroke-miterlimit="10"/>
<path d="M361.324 331.696L398.258 332.786" stroke="#7079F1" stroke-miterlimit="10"/>
<path d="M405.54 350.087L401.634 303.094" stroke="#7079F1" stroke-miterlimit="10"/>
<path d="M422.362 271.139C422.362 271.139 425.883 275.571 429.96 285.846C435.741 300.416 442.635 326.739 442.182 368.842H413.778L422.362 271.139Z" fill="url(#paint7_linear_1455_7081)"/>
<path d="M442.182 372.066C442.182 372.066 427.991 339.601 392.294 348.892C353.317 359.036 338.844 357.14 338.844 357.14L335.89 372.066H442.182Z" fill="#E9A394"/>
<path d="M405.028 342.069L392.362 344.902L421.132 372.066H448.249C448.249 372.066 436.562 343.72 405.028 342.069Z" fill="white"/>
<path d="M405.812 350.495L411.844 348.651" stroke="#C3C8FF" stroke-miterlimit="10"/>
<path d="M338.845 357.14L320.325 353.31L307.049 372.066H335.89L338.845 357.14Z" fill="#E9A394"/>
<path d="M370.236 320.259L404.652 285.835L398.258 282.816L422.362 271.139L411.293 264.094H385.532L370.236 283.218L374.463 284.28L370.236 287.245V320.259Z" fill="#EDEDF0"/>
<path d="M394.298 275.796L405.541 268.025L393.405 240.881L374.593 252.699L379.893 275.215L370.237 320.259L394.298 275.796Z" fill="#E9A394"/>
<path d="M376.107 259.13L389.309 252.244L377.523 265.142L376.107 259.13Z" fill="#E37A82"/>
<path d="M351.99 219.833L346.226 251.789H354.872L364.581 265.142L389.308 252.244L372.014 213.702L351.99 219.833Z" fill="#E9A394"/>
<path d="M350.594 227.582L350.015 231.093L372.819 227.98L372.47 223.609L350.594 227.582Z" fill="#E37A82"/>
<path d="M415.02 217.405C409.312 201.927 402.332 195.96 402.332 195.96C388.343 182.055 364.43 197.484 364.43 197.484C333.787 190.065 346.226 228.119 346.226 228.119L371.181 225.057C374.671 245.997 387.15 235.394 387.15 235.394L392.97 245.894C392.97 245.894 387.098 251.085 393.22 259.984C398.26 267.312 386.191 269.808 389.309 277.609L437.546 267.608C437.546 235.861 425.337 245.379 415.02 217.405Z" fill="#16005C"/>
<path d="M344.27 228.365C344.27 228.365 339.857 206.638 347.964 199.568C352.191 195.881 365.503 197.484 365.503 197.484" stroke="#7079F1" stroke-width="2" stroke-miterlimit="10"/>
<path d="M440.704 266.693C440.704 266.693 444.557 252.244 423.567 235.86" stroke="#16005C" stroke-width="2" stroke-miterlimit="10"/>
<path d="M387.867 247.237C393.605 247.237 398.257 242.583 398.257 236.843C398.257 231.103 393.605 226.45 387.867 226.45C382.128 226.45 377.476 231.103 377.476 236.843C377.476 242.583 382.128 247.237 387.867 247.237Z" fill="#E9A394"/>
<path d="M361.324 250.613L367.766 249.031C367.766 249.031 370.027 267.408 361.324 250.613Z" fill="white"/>
<path d="M355.96 239.753C355.96 239.753 358.01 227.254 362.496 239.753" stroke="#1C145E" stroke-width="0.5" stroke-miterlimit="10"/>
<path d="M357.543 230.245C357.543 230.245 360.04 226.014 362.999 230.245H357.543Z" fill="#16005C"/>
<path d="M260.611 117.639C256.873 107.242 245.122 102.036 234.823 106.478C225.959 110.302 221.26 120.36 224.01 129.616C225.547 134.791 229.018 138.794 233.364 141.129C237.377 143.284 240.82 146.36 243.344 150.151L244.072 151.244L258.503 146.055L258.369 144.754C257.893 140.147 258.699 135.538 260.401 131.232C262.062 127.028 262.259 122.226 260.611 117.639Z" fill="#C3C8FF"/>
<path d="M260.611 117.639C256.873 107.242 245.122 102.036 234.823 106.478C225.959 110.302 221.26 120.36 224.01 129.616C225.547 134.791 229.018 138.794 233.364 141.129C237.377 143.284 240.82 146.36 243.344 150.151L244.072 151.244L258.503 146.055L258.369 144.754C257.893 140.147 258.699 135.538 260.401 131.232C262.062 127.028 262.259 122.226 260.611 117.639Z" fill="#C3C8FF"/>
<path d="M247.374 146.987L235.87 130.759C235.87 130.759 236.08 127.473 239.69 127.994C243.301 128.515 245.457 134.215 242.88 133.296C240.304 132.376 239.392 125.676 244.268 124.654C249.143 123.632 250.772 134.711 248.078 132.577C245.385 130.442 245.953 123.389 251.174 123.331L254.237 146.736" stroke="white" stroke-miterlimit="10"/>
<path d="M258.169 157.146L251.392 159.584C248.815 160.511 245.975 159.172 245.049 156.595L243.616 152.61C242.689 150.032 244.028 147.191 246.604 146.265L253.381 143.827C255.958 142.9 258.797 144.239 259.724 146.816L261.157 150.802C262.083 153.379 260.745 156.219 258.169 157.146Z" fill="#16005C"/>
<path d="M259.764 140.219L239.355 147.558L242.937 157.523L263.346 150.184L259.764 140.219Z" fill="#6876EB"/>
<path d="M241.994 99.9704L239.958 88.2942" stroke="#C3C8FF" stroke-miterlimit="10"/>
<path d="M227.287 106.925L217.537 97.3997" stroke="#C3C8FF" stroke-miterlimit="10"/>
<path d="M217.125 124.23L206.001 125.026" stroke="#C3C8FF" stroke-miterlimit="10"/>
<path d="M258.029 106.369L263.036 97.0815" stroke="#C3C8FF" stroke-miterlimit="10"/>
<path d="M414.663 192.147H483.644C486.043 192.147 488.34 190.203 488.775 187.803L495.903 148.466C496.338 146.067 494.745 144.122 492.347 144.122H423.366C420.968 144.122 418.671 146.066 418.236 148.466L411.107 187.803C410.674 190.202 412.265 192.147 414.663 192.147Z" fill="#0026EC"/>
<path d="M469.964 171.191C471.978 169.351 472.366 166.497 470.831 164.816C469.296 163.136 466.419 163.265 464.406 165.104C462.392 166.944 462.004 169.798 463.539 171.479C465.074 173.16 467.95 173.031 469.964 171.191Z" fill="white"/>
<path d="M456.264 171.19C458.277 169.351 458.665 166.497 457.131 164.816C455.596 163.135 452.719 163.264 450.705 165.104C448.692 166.944 448.304 169.798 449.839 171.478C451.374 173.159 454.25 173.03 456.264 171.19Z" fill="white"/>
<path d="M442.562 171.19C444.575 169.35 444.963 166.496 443.428 164.816C441.893 163.135 439.017 163.264 437.003 165.104C434.99 166.943 434.602 169.797 436.137 171.478C437.671 173.159 440.548 173.03 442.562 171.19Z" fill="white"/>
<path d="M451.788 189.56L427.819 203.808L432.115 188.437L451.788 189.56Z" fill="#0026EC"/>
<path d="M192.441 186.316H123.46C121.062 186.316 118.765 184.372 118.33 181.972L111.201 142.635C110.766 140.236 112.359 138.291 114.757 138.291H183.738C186.137 138.291 188.434 140.235 188.869 142.635L195.997 181.972C196.432 184.371 194.84 186.316 192.441 186.316Z" fill="#C3C8FF"/>
<path d="M143.532 165.629C145.067 163.949 144.679 161.095 142.665 159.255C140.652 157.415 137.775 157.286 136.24 158.967C134.705 160.648 135.093 163.502 137.107 165.341C139.12 167.181 141.997 167.31 143.532 165.629Z" fill="white"/>
<path d="M157.233 165.63C158.768 163.949 158.38 161.095 156.366 159.255C154.353 157.415 151.476 157.286 149.941 158.967C148.406 160.648 148.794 163.502 150.808 165.342C152.822 167.181 155.698 167.31 157.233 165.63Z" fill="white"/>
<path d="M170.933 165.63C172.468 163.95 172.08 161.096 170.067 159.256C168.053 157.416 165.176 157.287 163.641 158.968C162.107 160.649 162.495 163.503 164.508 165.342C166.522 167.182 169.398 167.311 170.933 165.63Z" fill="white"/>
<path d="M167.834 183.729L171.618 197.483L186.92 182.767L167.834 183.729Z" fill="#C3C8FF"/>
<defs>
<linearGradient id="paint0_linear_1455_7081" x1="3.01945" y1="376.602" x2="584.494" y2="376.602" gradientUnits="userSpaceOnUse">
<stop stop-color="#0026EC"/>
<stop offset="1" stop-color="#1BFFFF"/>
</linearGradient>
<linearGradient id="paint1_linear_1455_7081" x1="19.6878" y1="376.602" x2="235.675" y2="376.602" gradientUnits="userSpaceOnUse">
<stop stop-color="#0026EC"/>
<stop offset="1" stop-color="#1BFFFF"/>
</linearGradient>
<linearGradient id="paint2_linear_1455_7081" x1="230.181" y1="240.346" x2="295.286" y2="240.346" gradientUnits="userSpaceOnUse">
<stop stop-color="#0026EC"/>
<stop offset="1" stop-color="#1BFFFF"/>
</linearGradient>
<linearGradient id="paint3_linear_1455_7081" x1="267.097" y1="278.961" x2="376.05" y2="278.961" gradientUnits="userSpaceOnUse">
<stop stop-color="#0026EC"/>
<stop offset="1" stop-color="#1BFFFF"/>
</linearGradient>
<linearGradient id="paint4_linear_1455_7081" x1="89.0383" y1="319.84" x2="211.731" y2="319.84" gradientUnits="userSpaceOnUse">
<stop stop-color="#0026EC"/>
<stop offset="1" stop-color="#1BFFFF"/>
</linearGradient>
<linearGradient id="paint5_linear_1455_7081" x1="71.3644" y1="322.641" x2="136.885" y2="322.641" gradientUnits="userSpaceOnUse">
<stop stop-color="#0026EC"/>
<stop offset="1" stop-color="#1BFFFF"/>
</linearGradient>
<linearGradient id="paint6_linear_1455_7081" x1="346.061" y1="318.242" x2="432.708" y2="318.242" gradientUnits="userSpaceOnUse">
<stop stop-color="#0026EC"/>
<stop offset="1" stop-color="#1BFFFF"/>
</linearGradient>
<linearGradient id="paint7_linear_1455_7081" x1="412.226" y1="319.388" x2="446.268" y2="319.388" gradientUnits="userSpaceOnUse">
<stop stop-color="#0026EC"/>
<stop offset="1" stop-color="#1BFFFF"/>
</linearGradient>
</defs>
</svg>
