<svg width="129" height="129" viewBox="0 0 129 129" fill="none" xmlns="http://www.w3.org/2000/svg">
<circle cx="60" cy="69" r="60" fill="#FFF5DC"/>
<path d="M57.6992 79.3176C56.4043 77.0534 58.0138 74.1986 60.6273 74.1986C62.0406 74.1986 63.2126 73.1735 63.4135 71.7578C63.651 70.0929 63.651 68.4008 63.4135 66.7353C63.2113 65.3172 62.0409 64.2953 60.6194 64.2953C58.0256 64.2953 56.3999 61.4462 57.6992 59.177C58.4067 57.9416 58.116 56.4029 57.0081 55.5183C55.6981 54.4701 54.2497 53.6222 52.7031 52.9977C51.3902 52.4682 49.9246 52.984 49.2187 54.2223C47.9245 56.4997 44.6689 56.503 43.3729 54.2223C42.666 52.9826 41.2008 52.4682 39.8877 52.9977C38.3419 53.6222 36.8929 54.4701 35.5827 55.5183C34.475 56.4029 34.1843 57.9416 34.8924 59.177C36.1875 61.4374 34.5792 64.2953 31.963 64.2953C30.551 64.2953 29.3791 65.3212 29.1783 66.7353C28.9406 68.3969 28.9406 70.096 29.1783 71.7578C29.3814 73.1787 30.5508 74.1986 31.9738 74.1986C34.5655 74.1986 36.1916 77.0478 34.8925 79.3176C34.1845 80.5538 34.4751 82.0926 35.5829 82.9772C36.8931 84.0232 38.342 84.871 39.8879 85.4956C41.1826 86.0182 42.6575 85.5299 43.373 84.2709C44.6684 81.9918 47.9255 81.9952 49.2189 84.2709C49.9248 85.5115 51.3888 86.0265 52.7032 85.4956C54.2478 84.871 55.6967 84.0246 57.0082 82.9772C58.1159 82.0926 58.4067 80.5538 57.6992 79.3176ZM46.2959 74.1692C43.6115 74.1692 41.4295 71.9613 41.4295 69.2468C41.4295 66.5339 43.6116 64.3259 46.2959 64.3259C48.9801 64.3259 51.1622 66.5339 51.1622 69.2468C51.1622 71.9611 48.9801 74.1692 46.2959 74.1692ZM33.8008 49.1359C38.8576 39.7754 49.5684 35.2384 59.6376 38.0291L57.7661 35.1966C57.5331 34.8442 57.6279 34.3652 57.9762 34.1304C58.3259 33.8934 58.799 33.9885 59.0319 34.3421L61.9693 38.789C62.1972 39.1356 62.1131 39.6016 61.7775 39.8437L57.4661 42.9405C57.1234 43.1869 56.649 43.1055 56.4054 42.759C56.1617 42.4132 56.243 41.9313 56.5849 41.6871L59.5037 39.5893C50.0357 36.8289 39.8982 41.059 35.1373 49.8742C34.9336 50.2498 34.4699 50.3809 34.1058 50.1804C33.7354 49.9759 33.6001 49.5098 33.8008 49.1359ZM88.0126 92.4156L91.3281 93.0049C92.3106 93.1786 92.0597 94.6901 91.0653 94.5206L85.8568 93.5941C85.4515 93.5221 85.1757 93.1374 85.2355 92.7246L86.0022 87.4333C86.1478 86.4315 87.6523 86.654 87.5076 87.656L86.989 91.2385C95.5072 86.2268 99.4895 75.8958 96.4832 66.3234C96.178 65.3558 97.6338 64.8937 97.9293 65.8587C101.128 76.0234 96.9674 86.9868 88.0126 92.4156ZM87.0693 63.3288C88.3171 63.3288 89.3449 62.4313 89.5221 61.1872C89.7201 59.7975 89.7209 58.3607 89.5221 56.9694C89.3444 55.7263 88.317 54.8277 87.0693 54.8277C85.0033 54.8277 83.7196 52.5588 84.7497 50.7604C85.371 49.6775 85.1152 48.3262 84.1442 47.5489C83.0428 46.6707 81.8268 45.9583 80.5287 45.4353C79.3752 44.9686 78.0894 45.4216 77.4704 46.5095C76.4423 48.3184 73.8542 48.3187 72.8262 46.5095C72.2064 45.4217 70.9212 44.9686 69.7677 45.4353C68.4697 45.9583 67.2538 46.6707 66.153 47.551C65.1812 48.3262 64.9256 49.6775 65.546 50.7604C66.5742 52.5551 65.3002 54.8277 63.2199 54.8277C61.9798 54.8277 60.9525 55.7281 60.7743 56.9694C60.5748 58.3624 60.5749 59.7944 60.7743 61.1872C60.9522 62.4305 61.9793 63.3288 63.2271 63.3288C65.2894 63.3288 66.5778 65.5945 65.546 67.3954C64.9254 68.4788 65.1812 69.8303 66.153 70.6053C67.2536 71.4856 68.4697 72.1981 69.7677 72.7211C70.9086 73.1809 72.1992 72.7485 72.8262 71.6471C73.8585 69.833 76.4458 69.8434 77.4717 71.6471C78.0894 72.7356 79.3752 73.1879 80.5287 72.7211C81.8267 72.1981 83.0426 71.4856 84.1442 70.6053C85.1152 69.8303 85.371 68.4788 84.7497 67.3939C83.7192 65.5954 85.0053 63.3288 87.0693 63.3288ZM75.1481 63.0457C72.9846 63.0457 71.2257 61.2657 71.2257 59.0778C71.2257 56.8908 72.9846 55.1106 75.1481 55.1106C77.3124 55.1106 79.0713 56.8906 79.0713 59.0778C79.0712 61.2657 77.3123 63.0457 75.1481 63.0457ZM77.6563 83.8186C76.0389 83.8186 75.0562 82.0549 75.8511 80.6669C76.3976 79.7132 76.1725 78.5267 75.319 77.8438C74.4007 77.1112 73.3863 76.5176 72.3027 76.0803C71.289 75.6711 70.1605 76.068 69.6156 77.0254C68.817 78.4278 66.8122 78.4261 66.0151 77.0254C65.4708 76.068 64.3417 75.671 63.328 76.0803C62.2444 76.5176 61.2314 77.1111 60.3117 77.8438C59.4582 78.5267 59.2331 79.7146 59.7794 80.6669C60.5772 82.0592 59.5834 83.8186 57.9806 83.8186C57.9792 83.8199 57.9777 83.8186 57.975 83.8186C56.885 83.8186 55.981 84.611 55.8264 85.7023C55.6617 86.858 55.6619 88.0616 55.8264 89.2192C55.9817 90.3134 56.8848 91.1015 57.9806 91.1015C59.5842 91.1015 60.5772 92.8606 59.7794 94.2539C59.233 95.207 59.4582 96.3935 60.3117 97.0764C61.2312 97.8105 62.2444 98.4026 63.328 98.8399C64.3417 99.2491 65.471 98.8522 66.0151 97.8962C66.8135 96.4926 68.8171 96.4928 69.6156 97.8962C70.1667 98.865 71.306 99.2434 72.3027 98.8399C73.3863 98.4026 74.3993 97.8105 75.319 97.0764C76.1725 96.3935 76.3976 95.207 75.8511 94.2539C75.0565 92.8661 76.0374 91.1015 77.6563 91.1015C78.7455 91.1015 79.6497 90.3104 79.8049 89.2192C79.9693 88.0622 79.9691 86.8585 79.8049 85.7023C79.6497 84.611 78.7457 83.8186 77.6563 83.8186ZM67.8153 90.598C66.1047 90.598 64.7127 89.1904 64.7127 87.4607C64.7127 85.7297 66.1047 84.322 67.8153 84.322C69.5272 84.322 70.9178 85.7297 70.9178 87.4607C70.9178 89.1906 69.5272 90.598 67.8153 90.598Z" fill="url(#paint0_linear_1_170)"/>
<circle cx="112.5" cy="16.5" r="16.5" fill="#D9D9D9"/>
<circle cx="112.5" cy="16.5" r="16.5" fill="url(#paint1_linear_1_170)"/>
<g filter="url(#filter0_d_1_170)">
<path d="M111.776 23.266C110.775 23.266 109.889 23.0887 109.116 22.734C108.343 22.3793 107.735 21.8727 107.292 21.214C106.861 20.5427 106.646 19.751 106.646 18.839V18.497H109.078V18.763C109.078 19.4723 109.325 20.0423 109.819 20.473C110.313 20.891 110.965 21.1 111.776 21.1C112.599 21.1 113.233 20.9037 113.676 20.511C114.132 20.1183 114.36 19.6243 114.36 19.029V18.839C114.36 18.4337 114.259 18.1043 114.056 17.851C113.853 17.5977 113.581 17.414 113.239 17.3C112.897 17.1733 112.511 17.11 112.08 17.11H109.42V14.45L113.714 12.17V11.866H106.988V9.7H116.412V12.93L112.403 15.058V15.362H113.106C113.701 15.362 114.278 15.4823 114.835 15.723C115.405 15.9637 115.874 16.3373 116.241 16.844C116.608 17.338 116.792 17.984 116.792 18.782V19.01C116.792 19.8713 116.583 20.625 116.165 21.271C115.747 21.9043 115.158 22.3983 114.398 22.753C113.651 23.095 112.777 23.266 111.776 23.266Z" fill="white"/>
</g>
<defs>
<filter id="filter0_d_1_170" x="102.646" y="9.7" width="18.146" height="21.566" filterUnits="userSpaceOnUse" color-interpolation-filters="sRGB">
<feFlood flood-opacity="0" result="BackgroundImageFix"/>
<feColorMatrix in="SourceAlpha" type="matrix" values="0 0 0 0 0 0 0 0 0 0 0 0 0 0 0 0 0 0 127 0" result="hardAlpha"/>
<feOffset dy="4"/>
<feGaussianBlur stdDeviation="2"/>
<feComposite in2="hardAlpha" operator="out"/>
<feColorMatrix type="matrix" values="0 0 0 0 0 0 0 0 0 0 0 0 0 0 0 0 0 0 0.25 0"/>
<feBlend mode="normal" in2="BackgroundImageFix" result="effect1_dropShadow_1_170"/>
<feBlend mode="normal" in="SourceGraphic" in2="effect1_dropShadow_1_170" result="shape"/>
</filter>
<linearGradient id="paint0_linear_1_170" x1="43.2717" y1="90.7808" x2="85.5626" y2="48.9585" gradientUnits="userSpaceOnUse">
<stop stop-color="#FC4422"/>
<stop offset="1" stop-color="#FFBB32"/>
</linearGradient>
<linearGradient id="paint1_linear_1_170" x1="112.5" y1="6.85453e-07" x2="135.5" y2="17" gradientUnits="userSpaceOnUse">
<stop stop-color="#FD5725"/>
<stop offset="0.848958" stop-color="#FFF5DC"/>
</linearGradient>
</defs>
</svg>
