<svg width="127" height="130" viewBox="0 0 127 130" fill="none" xmlns="http://www.w3.org/2000/svg">
<circle cx="60" cy="70" r="60" fill="#E6F7FE"/>
<path d="M54.1497 80.4397L42.7372 72.925C41.7649 72.2762 40.4548 72.5398 39.812 73.51C39.1651 74.4802 39.4268 75.7883 40.397 76.4351L51.8096 83.9499C52.17 84.1888 52.5758 84.3042 52.9776 84.3042C53.6595 84.3042 54.3289 83.9746 54.7347 83.3649C55.3816 82.3947 55.12 81.0866 54.1497 80.4397ZM75.104 65.9275C74.1605 65.2498 72.8422 65.4702 72.1624 66.4177L63.1887 78.7836C62.511 79.7311 62.7314 81.0495 63.6789 81.7252C64.0497 81.991 64.4782 82.1186 64.9025 82.1186C65.5617 82.1186 66.2085 81.8117 66.6205 81.235L75.5942 68.8691C76.272 67.9216 76.0516 66.6032 75.104 65.9275Z" fill="url(#paint0_linear_1_168)"/>
<path d="M34.5469 59.4531C28.7316 59.4531 24 64.1847 24 70C24 75.8153 28.7316 80.5469 34.5469 80.5469C40.3621 80.5469 45.0938 75.8153 45.0938 70C45.0938 64.1847 40.3621 59.4531 34.5469 59.4531ZM60 76.3281C54.1847 76.3281 49.4531 81.0597 49.4531 86.875C49.4531 92.6903 54.1847 97.4219 60 97.4219C65.8153 97.4219 70.5469 92.6903 70.5469 86.875C70.5469 81.0597 65.8153 76.3281 60 76.3281ZM81.2344 42.5781C73.0935 42.5781 66.4688 49.2028 66.4688 57.3438C66.4688 65.4847 73.0935 72.1094 81.2344 72.1094C89.3753 72.1094 96 65.4847 96 57.3438C96 49.2028 89.3753 42.5781 81.2344 42.5781Z" fill="url(#paint1_linear_1_168)"/>
<circle cx="110.5" cy="16.5" r="16.5" fill="#D9D9D9"/>
<circle cx="110.5" cy="16.5" r="16.5" fill="url(#paint2_linear_1_168)"/>
<g filter="url(#filter0_d_1_168)">
<path d="M105.798 24V22.404C105.798 21.4793 105.95 20.713 106.254 20.105C106.558 19.4843 106.995 18.9777 107.565 18.585C108.148 18.1797 108.857 17.8503 109.693 17.597L110.966 17.198C111.435 17.046 111.827 16.8623 112.144 16.647C112.461 16.419 112.701 16.1467 112.866 15.83C113.043 15.5133 113.132 15.1523 113.132 14.747V14.671C113.132 14.0377 112.917 13.5373 112.486 13.17C112.055 12.79 111.466 12.6 110.719 12.6C109.984 12.6 109.389 12.8027 108.933 13.208C108.49 13.6007 108.268 14.1707 108.268 14.918V15.26H105.836V14.956C105.836 13.9933 106.051 13.1763 106.482 12.505C106.913 11.8337 107.495 11.3207 108.23 10.966C108.977 10.6113 109.807 10.434 110.719 10.434C111.631 10.434 112.454 10.6113 113.189 10.966C113.924 11.308 114.5 11.7957 114.918 12.429C115.349 13.0497 115.564 13.7843 115.564 14.633V14.823C115.564 15.6717 115.387 16.3937 115.032 16.989C114.69 17.5717 114.221 18.053 113.626 18.433C113.031 18.8003 112.353 19.1043 111.593 19.345L110.377 19.725C109.832 19.8897 109.408 20.0733 109.104 20.276C108.8 20.466 108.585 20.6813 108.458 20.922C108.344 21.15 108.287 21.4287 108.287 21.758V21.834H115.45V24H105.798Z" fill="white"/>
</g>
<defs>
<filter id="filter0_d_1_168" x="101.798" y="10.434" width="17.766" height="21.566" filterUnits="userSpaceOnUse" color-interpolation-filters="sRGB">
<feFlood flood-opacity="0" result="BackgroundImageFix"/>
<feColorMatrix in="SourceAlpha" type="matrix" values="0 0 0 0 0 0 0 0 0 0 0 0 0 0 0 0 0 0 127 0" result="hardAlpha"/>
<feOffset dy="4"/>
<feGaussianBlur stdDeviation="2"/>
<feComposite in2="hardAlpha" operator="out"/>
<feColorMatrix type="matrix" values="0 0 0 0 0 0 0 0 0 0 0 0 0 0 0 0 0 0 0.25 0"/>
<feBlend mode="normal" in2="BackgroundImageFix" result="effect1_dropShadow_1_168"/>
<feBlend mode="normal" in="SourceGraphic" in2="effect1_dropShadow_1_168" result="shape"/>
</filter>
<linearGradient id="paint0_linear_1_168" x1="57.7223" y1="84.3042" x2="57.7223" y2="65.5343" gradientUnits="userSpaceOnUse">
<stop stop-color="#ADDCFF"/>
<stop offset="0.5028" stop-color="#EAF6FF"/>
<stop offset="1" stop-color="#EAF6FF"/>
</linearGradient>
<linearGradient id="paint1_linear_1_168" x1="60" y1="97.4219" x2="60" y2="42.5781" gradientUnits="userSpaceOnUse">
<stop stop-color="#5558FF"/>
<stop offset="1" stop-color="#00C0FF"/>
</linearGradient>
<linearGradient id="paint2_linear_1_168" x1="110.5" y1="6.85453e-07" x2="133.5" y2="17" gradientUnits="userSpaceOnUse">
<stop stop-color="#0335EE"/>
<stop offset="0.848958" stop-color="#17DDFD"/>
</linearGradient>
</defs>
</svg>
