<svg width="221" height="48" viewBox="0 0 221 48" fill="none" xmlns="http://www.w3.org/2000/svg">
<g clip-path="url(#clip0_1293_2504)">
<mask id="mask0_1293_2504" style="mask-type:luminance" maskUnits="userSpaceOnUse" x="0" y="0" width="233" height="48">
<path d="M232.424 0H0V48H232.424V0Z" fill="white"/>
</mask>
<g mask="url(#mask0_1293_2504)">
<path d="M86.5242 28.6365C85.4359 28.6365 84.4725 28.4089 83.6342 27.9535C82.8106 27.4835 82.1635 26.8299 81.6929 25.9926C81.237 25.1407 81.009 24.1419 81.009 22.9962V22.7318C81.009 21.5861 81.237 20.5946 81.6929 19.7573C82.1488 18.9054 82.7886 18.2518 83.6122 17.7964C84.4358 17.3264 85.3917 17.0914 86.4801 17.0914C87.5537 17.0914 88.4876 17.3337 89.2818 17.8184C90.0759 18.2885 90.6936 18.9495 91.1349 19.8014C91.5761 20.6386 91.7967 21.6154 91.7967 22.7318V23.6792H83.8328C83.8622 24.4283 84.1416 25.0379 84.6711 25.5079C85.2005 25.9779 85.8477 26.2129 86.6124 26.2129C87.3919 26.2129 87.9655 26.044 88.3332 25.7062C88.7008 25.3684 88.9803 24.9938 89.1715 24.5825L91.4437 25.7723C91.2378 26.1542 90.9363 26.5728 90.5392 27.0282C90.1568 27.4688 89.6421 27.8507 88.995 28.1739C88.3479 28.4823 87.5243 28.6365 86.5242 28.6365ZM83.8549 21.6081H88.9729C88.9141 20.9765 88.6567 20.4697 88.2008 20.0878C87.7596 19.7059 87.1786 19.515 86.458 19.515C85.7079 19.515 85.1123 19.7059 84.6711 20.0878C84.2299 20.4697 83.9578 20.9765 83.8549 21.6081Z" fill="white"/>
<path d="M98.096 28.3281C97.3754 28.3281 96.7871 28.1078 96.3312 27.6671C95.8899 27.2118 95.6693 26.6095 95.6693 25.8604V19.6912H92.9338V17.3998H95.6693V14.0068H98.449V17.3998H101.449V19.6912H98.449V25.3757C98.449 25.8164 98.6549 26.0367 99.0667 26.0367H101.184V28.3281H98.096Z" fill="white"/>
<path d="M103.965 28.3281V12.9051H106.745V18.7438H107.142C107.26 18.5088 107.444 18.2738 107.694 18.0388C107.944 17.8038 108.275 17.6128 108.686 17.4659C109.113 17.3044 109.65 17.2236 110.297 17.2236C111.15 17.2236 111.892 17.4219 112.525 17.8184C113.172 18.2004 113.672 18.7365 114.025 19.4268C114.378 20.1025 114.554 20.8957 114.554 21.8064V28.3281H111.775V22.0267C111.775 21.2042 111.569 20.5872 111.157 20.176C110.76 19.7647 110.186 19.559 109.436 19.559C108.583 19.559 107.922 19.8455 107.451 20.4183C106.98 20.9765 106.745 21.7623 106.745 22.7758V28.3281H103.965Z" fill="white"/>
<path d="M117.559 28.3281V17.3998H120.339V28.3281H117.559ZM118.949 16.1219C118.449 16.1219 118.023 15.9604 117.67 15.6372C117.331 15.3141 117.162 14.8881 117.162 14.3593C117.162 13.8305 117.331 13.4045 117.67 13.0814C118.023 12.7583 118.449 12.5967 118.949 12.5967C119.464 12.5967 119.89 12.7583 120.229 13.0814C120.567 13.4045 120.736 13.8305 120.736 14.3593C120.736 14.8881 120.567 15.3141 120.229 15.6372C119.89 15.9604 119.464 16.1219 118.949 16.1219Z" fill="white"/>
<path d="M128.559 28.6365C127.5 28.6365 126.537 28.4162 125.669 27.9756C124.816 27.5349 124.14 26.896 123.64 26.0587C123.14 25.2215 122.89 24.208 122.89 23.0182V22.7097C122.89 21.52 123.14 20.5064 123.64 19.6692C124.14 18.832 124.816 18.193 125.669 17.7524C126.537 17.3117 127.5 17.0914 128.559 17.0914C129.603 17.0914 130.501 17.275 131.251 17.6422C132.001 18.0094 132.604 18.5162 133.06 19.1624C133.53 19.7941 133.839 20.5138 133.986 21.3217L131.295 21.8945C131.236 21.4539 131.104 21.0573 130.898 20.7047C130.692 20.3522 130.398 20.0731 130.015 19.8675C129.648 19.6619 129.184 19.559 128.625 19.559C128.067 19.559 127.559 19.6839 127.103 19.9336C126.662 20.1686 126.309 20.5285 126.044 21.0132C125.794 21.4832 125.669 22.0634 125.669 22.7538V22.9741C125.669 23.6645 125.794 24.252 126.044 24.7367C126.309 25.2068 126.662 25.5666 127.103 25.8164C127.559 26.0514 128.067 26.1689 128.625 26.1689C129.464 26.1689 130.096 25.9559 130.523 25.5299C130.964 25.0893 131.243 24.5164 131.361 23.8114L134.052 24.4503C133.861 25.2288 133.53 25.9412 133.06 26.5875C132.604 27.2191 132.001 27.7185 131.251 28.0857C130.501 28.4529 129.603 28.6365 128.559 28.6365Z" fill="white"/>
<path d="M139.743 28.6365C138.963 28.6365 138.265 28.5044 137.647 28.24C137.029 27.9609 136.536 27.5643 136.169 27.0502C135.816 26.5214 135.639 25.8824 135.639 25.1333C135.639 24.3842 135.816 23.76 136.169 23.2605C136.536 22.7464 137.037 22.3645 137.669 22.1148C138.316 21.8504 139.051 21.7183 139.875 21.7183H142.875V21.1013C142.875 20.5872 142.713 20.1686 142.39 19.8455C142.066 19.5076 141.552 19.3387 140.846 19.3387C140.154 19.3387 139.64 19.5003 139.301 19.8234C138.963 20.1319 138.743 20.5358 138.64 21.0352L136.081 20.176C136.257 19.6178 136.536 19.111 136.919 18.6557C137.316 18.1857 137.838 17.8111 138.485 17.532C139.147 17.2383 139.949 17.0914 140.89 17.0914C142.331 17.0914 143.471 17.4512 144.309 18.171C145.147 18.8907 145.567 19.9336 145.567 21.2996V25.3757C145.567 25.8164 145.773 26.0367 146.184 26.0367H147.067V28.3281H145.214C144.67 28.3281 144.221 28.1959 143.868 27.9315C143.515 27.6671 143.339 27.3146 143.339 26.8739V26.8519H142.919C142.861 27.0282 142.728 27.2632 142.522 27.5569C142.316 27.836 141.993 28.0857 141.552 28.3061C141.11 28.5264 140.507 28.6365 139.743 28.6365ZM140.228 26.3892C141.007 26.3892 141.64 26.1762 142.125 25.7503C142.625 25.3096 142.875 24.7294 142.875 24.0097V23.7893H140.074C139.559 23.7893 139.154 23.8995 138.86 24.1198C138.566 24.3402 138.419 24.6486 138.419 25.0452C138.419 25.4418 138.573 25.7649 138.882 26.0146C139.191 26.2644 139.64 26.3892 140.228 26.3892Z" fill="white"/>
<path d="M154.7 28.3281V17.3998H157.48V28.3281H154.7ZM156.09 16.1219C155.59 16.1219 155.164 15.9604 154.811 15.6372C154.472 15.3141 154.303 14.8881 154.303 14.3593C154.303 13.8305 154.472 13.4045 154.811 13.0814C155.164 12.7583 155.59 12.5967 156.09 12.5967C156.605 12.5967 157.031 12.7583 157.37 13.0814C157.708 13.4045 157.877 13.8305 157.877 14.3593C157.877 14.8881 157.708 15.3141 157.37 15.6372C157.031 15.9604 156.605 16.1219 156.09 16.1219Z" fill="white"/>
<path d="M160.56 28.3281V17.3998H163.296V18.832H163.693C163.869 18.4501 164.2 18.0902 164.686 17.7524C165.171 17.3998 165.906 17.2236 166.892 17.2236C167.745 17.2236 168.487 17.4219 169.12 17.8184C169.767 18.2004 170.267 18.7365 170.62 19.4268C170.973 20.1025 171.149 20.8957 171.149 21.8064V28.3281H168.37V22.0267C168.37 21.2042 168.164 20.5872 167.752 20.176C167.355 19.7647 166.781 19.559 166.031 19.559C165.178 19.559 164.516 19.8455 164.046 20.4183C163.575 20.9765 163.34 21.7623 163.34 22.7758V28.3281H160.56Z" fill="white"/>
<path d="M176.147 28.3281L172.661 17.3998H175.617L178.154 26.3011H178.552L181.089 17.3998H184.045L180.559 28.3281H176.147Z" fill="white"/>
<path d="M190.601 28.6365C189.513 28.6365 188.549 28.4089 187.711 27.9535C186.888 27.4835 186.24 26.8299 185.77 25.9926C185.314 25.1407 185.086 24.1419 185.086 22.9962V22.7318C185.086 21.5861 185.314 20.5946 185.77 19.7573C186.226 18.9054 186.866 18.2518 187.689 17.7964C188.513 17.3264 189.469 17.0914 190.557 17.0914C191.631 17.0914 192.565 17.3337 193.359 17.8184C194.153 18.2885 194.771 18.9495 195.212 19.8014C195.653 20.6386 195.874 21.6154 195.874 22.7318V23.6792H187.91C187.939 24.4283 188.219 25.0379 188.748 25.5079C189.277 25.9779 189.925 26.2129 190.689 26.2129C191.469 26.2129 192.042 26.044 192.41 25.7062C192.778 25.3684 193.057 24.9938 193.248 24.5825L195.521 25.7723C195.315 26.1542 195.013 26.5728 194.616 27.0282C194.234 27.4688 193.719 27.8507 193.072 28.1739C192.425 28.4823 191.601 28.6365 190.601 28.6365ZM187.932 21.6081H193.05C192.991 20.9765 192.734 20.4697 192.278 20.0878C191.837 19.7059 191.256 19.515 190.535 19.515C189.785 19.515 189.189 19.7059 188.748 20.0878C188.307 20.4697 188.035 20.9765 187.932 21.6081Z" fill="white"/>
<path d="M202.892 28.6365C201.466 28.6365 200.296 28.3281 199.385 27.7112C198.473 27.0943 197.921 26.2129 197.73 25.0672L200.289 24.4063C200.392 24.9204 200.561 25.3243 200.796 25.6181C201.046 25.9118 201.348 26.1248 201.701 26.257C202.069 26.3745 202.466 26.4333 202.892 26.4333C203.539 26.4333 204.017 26.3231 204.326 26.1028C204.635 25.8678 204.789 25.5813 204.789 25.2435C204.789 24.9057 204.642 24.6486 204.348 24.4724C204.054 24.2814 203.583 24.1272 202.936 24.0097L202.319 23.8995C201.554 23.7526 200.855 23.5543 200.223 23.3046C199.59 23.0402 199.083 22.6804 198.701 22.225C198.318 21.7697 198.127 21.1821 198.127 20.4624C198.127 19.3754 198.524 18.5455 199.318 17.9727C200.113 17.3851 201.157 17.0914 202.451 17.0914C203.672 17.0914 204.686 17.3631 205.495 17.9066C206.304 18.4501 206.834 19.1624 207.084 20.0438L204.503 20.8369C204.385 20.2788 204.142 19.8822 203.775 19.6472C203.422 19.4122 202.98 19.2946 202.451 19.2946C201.921 19.2946 201.517 19.3901 201.238 19.5811C200.958 19.7573 200.818 20.007 200.818 20.3302C200.818 20.6827 200.966 20.9471 201.26 21.1234C201.554 21.2849 201.951 21.4098 202.451 21.4979L203.069 21.6081C203.892 21.755 204.635 21.9533 205.297 22.203C205.973 22.438 206.503 22.7832 206.885 23.2385C207.282 23.6792 207.481 24.2814 207.481 25.0452C207.481 26.1909 207.062 27.0796 206.223 27.7112C205.4 28.3281 204.289 28.6365 202.892 28.6365Z" fill="white"/>
<path d="M213.893 28.3281C213.172 28.3281 212.584 28.1078 212.128 27.6671C211.687 27.2118 211.466 26.6095 211.466 25.8604V19.6912H208.73V17.3998H211.466V14.0068H214.246V17.3998H217.246V19.6912H214.246V25.3757C214.246 25.8164 214.452 26.0367 214.863 26.0367H216.981V28.3281H213.893Z" fill="white"/>
<path d="M34.1432 19.1321L27.4813 14.4585L41.1855 4.77838L34.4255 0.000976562L33.3721 0.738286L28.0381 4.47299L14.0371 14.3879L20.7076 19.2034L34.216 28.6803L54.6606 14.239V4.69911L34.1432 19.1321Z" fill="white"/>
<path d="M68.9024 23.8322L68.8956 14.3398L34.4512 38.5041L0.00655111 14.3398L0 23.8322L34.4512 48.0011L68.9024 23.8322Z" fill="white"/>
</g>
</g>
<defs>
<clipPath id="clip0_1293_2504">
<rect width="221" height="48" fill="white"/>
</clipPath>
</defs>
</svg>
