<svg width="191" height="40" viewBox="0 0 191 40" fill="none" xmlns="http://www.w3.org/2000/svg">
<g clip-path="url(#clip0_1276_2404)">
<mask id="mask0_1276_2404" style="mask-type:luminance" maskUnits="userSpaceOnUse" x="0" y="0" width="201" height="40">
<path d="M200.873 0.5H0V39.5H200.873V0.5Z" fill="white"/>
</mask>
<g mask="url(#mask0_1276_2404)">
<path d="M74.7789 23.767C73.8384 23.767 73.0058 23.582 72.2813 23.2121C71.5695 22.8302 71.0102 22.2991 70.6035 21.6188C70.2095 20.9266 70.0125 20.1151 70.0125 19.1842V18.9694C70.0125 18.0385 70.2095 17.2329 70.6035 16.5527C70.9975 15.8605 71.5504 15.3294 72.2622 14.9594C72.974 14.5775 73.8002 14.3866 74.7408 14.3866C75.6687 14.3866 76.4758 14.5835 77.1622 14.9773C77.8486 15.3592 78.3824 15.8963 78.7637 16.5885C79.145 17.2687 79.3357 18.0624 79.3357 18.9694V19.7391H72.4529C72.4783 20.3478 72.7198 20.8431 73.1774 21.225C73.635 21.6069 74.1943 21.7978 74.8552 21.7978C75.5289 21.7978 76.0246 21.6606 76.3423 21.3861C76.6601 21.1116 76.9016 20.8073 77.0669 20.4731L79.0306 21.4398C78.8527 21.7501 78.5921 22.0902 78.2489 22.4602C77.9185 22.8182 77.4736 23.1285 76.9143 23.3911C76.3551 23.6417 75.6433 23.767 74.7789 23.767ZM72.472 18.0564H76.8953C76.8444 17.5432 76.622 17.1315 76.228 16.8212C75.8466 16.5109 75.3446 16.3557 74.7217 16.3557C74.0735 16.3557 73.5587 16.5109 73.1774 16.8212C72.7961 17.1315 72.5609 17.5432 72.472 18.0564Z" fill="#3C3C3C"/>
<path d="M84.7799 23.5164C84.1571 23.5164 83.6487 23.3374 83.2547 22.9793C82.8733 22.6094 82.6827 22.1201 82.6827 21.5114V16.4989H80.3185V14.6372H82.6827V11.8803H85.085V14.6372H87.678V16.4989H85.085V21.1176C85.085 21.4756 85.2629 21.6546 85.6188 21.6546H87.4492V23.5164H84.7799Z" fill="#3C3C3C"/>
<path d="M89.8525 23.5164V10.9852H92.2548V15.7292H92.598C92.6997 15.5382 92.8586 15.3473 93.0747 15.1563C93.2907 14.9654 93.5767 14.8102 93.9326 14.6909C94.3012 14.5596 94.7652 14.494 95.3244 14.494C96.0617 14.494 96.7035 14.6551 97.2501 14.9773C97.8094 15.2876 98.2415 15.7232 98.5466 16.2841C98.8516 16.8331 99.0042 17.4776 99.0042 18.2175V23.5164H96.6019V18.3965C96.6019 17.7282 96.4239 17.2269 96.068 16.8928C95.7248 16.5586 95.2291 16.3915 94.5809 16.3915C93.8437 16.3915 93.2717 16.6243 92.8649 17.0897C92.4582 17.5432 92.2548 18.1817 92.2548 19.0052V23.5164H89.8525Z" fill="#3C3C3C"/>
<path d="M101.601 23.5164V14.6372H104.003V23.5164H101.601ZM102.802 13.5989C102.37 13.5989 102.002 13.4676 101.696 13.205C101.404 12.9425 101.258 12.5964 101.258 12.1668C101.258 11.7371 101.404 11.391 101.696 11.1285C102.002 10.8659 102.37 10.7346 102.802 10.7346C103.247 10.7346 103.616 10.8659 103.908 11.1285C104.2 11.391 104.347 11.7371 104.347 12.1668C104.347 12.5964 104.2 12.9425 103.908 13.205C103.616 13.4676 103.247 13.5989 102.802 13.5989Z" fill="#3C3C3C"/>
<path d="M111.108 23.767C110.193 23.767 109.36 23.588 108.61 23.23C107.873 22.8719 107.288 22.3528 106.856 21.6725C106.424 20.9923 106.208 20.1688 106.208 19.2021V18.9515C106.208 17.9848 106.424 17.1613 106.856 16.481C107.288 15.8008 107.873 15.2816 108.61 14.9236C109.36 14.5656 110.193 14.3866 111.108 14.3866C112.01 14.3866 112.786 14.5357 113.434 14.8341C114.082 15.1325 114.603 15.5442 114.997 16.0693C115.404 16.5825 115.671 17.1673 115.798 17.8237L113.472 18.2891C113.421 17.9311 113.307 17.6088 113.129 17.3224C112.951 17.036 112.697 16.8092 112.366 16.6422C112.049 16.4751 111.648 16.3915 111.165 16.3915C110.682 16.3915 110.244 16.493 109.85 16.6959C109.468 16.8868 109.163 17.1792 108.934 17.573C108.718 17.9549 108.61 18.4264 108.61 18.9873V19.1663C108.61 19.7272 108.718 20.2046 108.934 20.5984C109.163 20.9803 109.468 21.2727 109.85 21.4756C110.244 21.6666 110.682 21.762 111.165 21.762C111.89 21.762 112.436 21.589 112.805 21.2429C113.186 20.8848 113.428 20.4194 113.529 19.8466L115.855 20.3657C115.69 20.9982 115.404 21.577 114.997 22.1022C114.603 22.6153 114.082 23.0211 113.434 23.3195C112.786 23.6178 112.01 23.767 111.108 23.767Z" fill="#3C3C3C"/>
<path d="M120.773 23.767C120.1 23.767 119.496 23.6596 118.962 23.4448C118.428 23.218 118.002 22.8958 117.684 22.4781C117.379 22.0485 117.227 21.5293 117.227 20.9207C117.227 20.312 117.379 19.8048 117.684 19.399C118.002 18.9813 118.434 18.671 118.981 18.4681C119.54 18.2533 120.176 18.1459 120.888 18.1459H123.481V17.6447C123.481 17.2269 123.341 16.8868 123.061 16.6243C122.781 16.3498 122.337 16.2125 121.726 16.2125C121.129 16.2125 120.684 16.3438 120.392 16.6064C120.1 16.857 119.909 17.1852 119.82 17.5909L117.608 16.8928C117.761 16.4393 118.002 16.0275 118.333 15.6576C118.676 15.2757 119.127 14.9713 119.686 14.7446C120.258 14.5059 120.951 14.3866 121.765 14.3866C123.01 14.3866 123.995 14.6789 124.72 15.2637C125.444 15.8485 125.807 16.6959 125.807 17.8058V21.1176C125.807 21.4756 125.985 21.6546 126.34 21.6546H127.103V23.5164H125.502C125.031 23.5164 124.644 23.409 124.339 23.1942C124.033 22.9793 123.881 22.6929 123.881 22.3349V22.317H123.519C123.468 22.4602 123.353 22.6511 123.175 22.8898C122.998 23.1166 122.718 23.3195 122.337 23.4985C121.955 23.6775 121.434 23.767 120.773 23.767ZM121.193 21.941C121.866 21.941 122.413 21.768 122.832 21.4219C123.264 21.0639 123.481 20.5925 123.481 20.0077V19.8287H121.059C120.614 19.8287 120.265 19.9182 120.011 20.0972C119.756 20.2762 119.629 20.5268 119.629 20.849C119.629 21.1713 119.763 21.4338 120.03 21.6367C120.297 21.8396 120.684 21.941 121.193 21.941Z" fill="#3C3C3C"/>
<path d="M133.7 23.5164V14.6372H136.103V23.5164H133.7ZM134.902 13.5989C134.469 13.5989 134.101 13.4676 133.796 13.205C133.503 12.9425 133.357 12.5964 133.357 12.1668C133.357 11.7371 133.503 11.391 133.796 11.1285C134.101 10.8659 134.469 10.7346 134.902 10.7346C135.347 10.7346 135.715 10.8659 136.007 11.1285C136.3 11.391 136.446 11.7371 136.446 12.1668C136.446 12.5964 136.3 12.9425 136.007 13.205C135.715 13.4676 135.347 13.5989 134.902 13.5989Z" fill="#3C3C3C"/>
<path d="M138.765 23.5164V14.6372H141.129V15.8008H141.472C141.625 15.4905 141.911 15.1981 142.33 14.9236C142.75 14.6372 143.385 14.494 144.237 14.494C144.974 14.494 145.616 14.6551 146.162 14.9773C146.722 15.2876 147.154 15.7232 147.459 16.2841C147.764 16.8331 147.917 17.4776 147.917 18.2175V23.5164H145.514V18.3965C145.514 17.7282 145.336 17.2269 144.98 16.8928C144.637 16.5586 144.141 16.3915 143.493 16.3915C142.756 16.3915 142.184 16.6243 141.777 17.0897C141.371 17.5432 141.167 18.1817 141.167 19.0052V23.5164H138.765Z" fill="#3C3C3C"/>
<path d="M152.236 23.5164L149.223 14.6372H151.778L153.971 21.8694H154.314L156.506 14.6372H159.061L156.049 23.5164H152.236Z" fill="#3C3C3C"/>
<path d="M164.728 23.767C163.787 23.767 162.955 23.582 162.23 23.2121C161.518 22.8302 160.959 22.2991 160.552 21.6188C160.158 20.9266 159.961 20.1151 159.961 19.1842V18.9694C159.961 18.0385 160.158 17.2329 160.552 16.5527C160.946 15.8605 161.499 15.3294 162.211 14.9594C162.923 14.5775 163.749 14.3866 164.69 14.3866C165.618 14.3866 166.425 14.5835 167.111 14.9773C167.797 15.3592 168.331 15.8963 168.713 16.5885C169.094 17.2687 169.285 18.0624 169.285 18.9694V19.7391H162.402C162.427 20.3478 162.669 20.8431 163.126 21.225C163.584 21.6069 164.143 21.7978 164.804 21.7978C165.478 21.7978 165.973 21.6606 166.291 21.3861C166.609 21.1116 166.85 20.8073 167.016 20.4731L168.979 21.4398C168.802 21.7501 168.541 22.0902 168.198 22.4602C167.867 22.8182 167.422 23.1285 166.863 23.3911C166.304 23.6417 165.592 23.767 164.728 23.767ZM162.421 18.0564H166.844C166.793 17.5432 166.571 17.1315 166.177 16.8212C165.795 16.5109 165.293 16.3557 164.671 16.3557C164.022 16.3557 163.508 16.5109 163.126 16.8212C162.745 17.1315 162.51 17.5432 162.421 18.0564Z" fill="#3C3C3C"/>
<path d="M175.35 23.767C174.117 23.767 173.107 23.5164 172.319 23.0151C171.531 22.5139 171.054 21.7978 170.889 20.8669L173.101 20.3299C173.19 20.7476 173.336 21.0758 173.539 21.3145C173.755 21.5532 174.016 21.7262 174.321 21.8336C174.639 21.9291 174.982 21.9768 175.35 21.9768C175.91 21.9768 176.323 21.8873 176.59 21.7083C176.857 21.5174 176.99 21.2847 176.99 21.0102C176.99 20.7357 176.863 20.5268 176.609 20.3836C176.354 20.2285 175.948 20.1031 175.388 20.0077L174.855 19.9182C174.194 19.7988 173.59 19.6377 173.043 19.4348C172.497 19.22 172.058 18.9276 171.728 18.5576C171.397 18.1877 171.232 17.7103 171.232 17.1255C171.232 16.2424 171.575 15.5681 172.262 15.1026C172.948 14.6252 173.851 14.3866 174.969 14.3866C176.024 14.3866 176.901 14.6073 177.6 15.0489C178.299 15.4905 178.757 16.0693 178.973 16.7854L176.742 17.4298C176.64 16.9763 176.431 16.6541 176.113 16.4631C175.808 16.2722 175.427 16.1767 174.969 16.1767C174.511 16.1767 174.162 16.2543 173.92 16.4094C173.679 16.5527 173.558 16.7555 173.558 17.0181C173.558 17.3045 173.685 17.5193 173.939 17.6626C174.194 17.7938 174.537 17.8953 174.969 17.9669L175.503 18.0564C176.215 18.1757 176.857 18.3368 177.429 18.5397C178.013 18.7307 178.471 19.0111 178.801 19.3811C179.144 19.7391 179.316 20.2285 179.316 20.849C179.316 21.7799 178.954 22.502 178.229 23.0151C177.518 23.5164 176.558 23.767 175.35 23.767Z" fill="#3C3C3C"/>
<path d="M184.858 23.5164C184.235 23.5164 183.726 23.3374 183.332 22.9793C182.951 22.6094 182.76 22.1201 182.76 21.5114V16.4989H180.396V14.6372H182.76V11.8803H185.163V14.6372H187.756V16.4989H185.163V21.1176C185.163 21.4756 185.341 21.6546 185.696 21.6546H187.527V23.5164H184.858Z" fill="#3C3C3C"/>
<path d="M29.5083 16.045L23.7508 12.2477L35.5947 4.38262L29.7523 0.500977L28.842 1.10004L24.232 4.13448L12.1316 12.1904L17.8966 16.103L29.5713 23.803L47.2405 12.0694V4.31821L29.5083 16.045Z" fill="url(#paint0_linear_1276_2404)"/>
<path d="M59.5491 19.8639L59.5432 12.1514L29.7746 31.7848L0.00566182 12.1514L0 19.8639L29.7746 39.5012L59.5491 19.8639Z" fill="url(#paint1_linear_1276_2404)"/>
</g>
</g>
<defs>
<linearGradient id="paint0_linear_1276_2404" x1="10.214" y1="12.0083" x2="52.2612" y2="12.0083" gradientUnits="userSpaceOnUse">
<stop stop-color="#0026EC"/>
<stop offset="1" stop-color="#1BFFFF"/>
</linearGradient>
<linearGradient id="paint1_linear_1276_2404" x1="-3.25249" y1="25.6576" x2="68.0648" y2="25.6576" gradientUnits="userSpaceOnUse">
<stop stop-color="#0026EC"/>
<stop offset="1" stop-color="#1BFFFF"/>
</linearGradient>
<clipPath id="clip0_1276_2404">
<rect width="191" height="39" fill="white" transform="translate(0 0.5)"/>
</clipPath>
</defs>
</svg>
