<svg width="473" height="463" viewBox="0 0 473 463" fill="none" xmlns="http://www.w3.org/2000/svg">
<path d="M413.368 381.761C404.992 390.579 397.067 396.266 390.805 400.758C317.201 453.57 230.108 438.176 211.599 434.416C184.266 428.865 131.431 418.134 93.2333 373.213C35.4427 305.253 44.4414 198.183 89.2678 127.504C97.4672 114.576 140.779 42.8211 228.81 31.3137C282.086 24.3497 344.188 38.3954 389.16 76.0735C483.562 155.163 476.841 314.939 413.368 381.761Z" fill="url(#paint0_linear_1455_7308)"/>
<path d="M441.726 74.2384C440.922 72.0475 437.708 72.3908 437.396 74.7035C434.376 97.0615 424.62 155.44 401.708 188.905C364.401 243.393 346.064 325.952 379.994 362.625C379.994 362.625 529.282 312.949 441.726 74.2384Z" fill="#BDD0FB"/>
<path opacity="0.43" d="M441.783 105.528C441.827 106.239 441.807 106.829 441.813 107.465L441.791 109.339L441.704 113.082C441.629 115.576 441.516 118.068 441.403 120.56C441.159 125.544 440.853 130.524 440.502 135.501C439.78 145.454 438.789 155.386 437.648 165.301C436.522 175.218 435.118 185.104 433.506 194.956C431.884 204.807 430.123 214.638 428.039 224.406C423.911 243.946 418.716 263.281 412.175 282.171C408.806 291.579 405.19 300.905 401.04 310C396.826 319.063 392.225 327.95 386.996 336.463C386.883 336.648 386.64 336.706 386.455 336.592C386.275 336.481 386.215 336.248 386.318 336.065L386.32 336.06C391.197 327.383 395.598 318.459 399.552 309.339C403.532 300.228 406.979 290.894 410.178 281.484C413.372 272.07 416.186 262.529 418.784 252.931C421.378 243.329 423.574 233.625 425.714 223.912C429.913 204.461 433.071 184.794 435.687 165.059C436.974 155.188 438.062 145.29 438.974 135.374C439.438 130.417 439.856 125.456 440.213 120.49L440.69 113.038L440.89 109.311L440.969 107.448C440.986 106.838 441.013 106.182 441.005 105.647L441.004 105.559C441.001 105.344 441.173 105.166 441.388 105.163C441.597 105.16 441.77 105.322 441.783 105.528Z" fill="white"/>
<path d="M344.274 32.6781C342.939 30.8883 340.086 32.0798 340.43 34.2859C343.76 55.6132 350.74 111.81 338.857 148.75C319.509 208.896 325.215 289.609 366.335 313.984C366.335 313.984 489.689 227.703 344.274 32.6781Z" fill="#91B3FA"/>
<path opacity="0.43" d="M352.869 61.3542C353.103 61.9952 353.246 62.5411 353.425 63.1223L353.916 64.8469L354.859 68.3029C355.472 70.6106 356.048 72.9268 356.625 75.2431C357.762 79.8795 358.841 84.5297 359.877 89.1897C361.932 98.5138 363.733 107.892 365.394 117.296C367.068 126.698 368.478 136.147 369.687 145.622C370.888 155.098 371.955 164.594 372.71 174.121C374.255 193.167 374.763 212.317 373.917 231.424C373.393 240.972 372.619 250.511 371.293 259.984C369.899 269.445 368.102 278.851 365.626 288.083C365.571 288.288 365.361 288.409 365.156 288.354C364.957 288.301 364.837 288.1 364.882 287.9L364.883 287.895C366.984 278.607 368.584 269.223 369.72 259.78C370.883 250.339 371.496 240.84 371.861 231.338C372.221 221.834 372.199 212.317 371.962 202.807C371.721 193.295 371.087 183.797 370.4 174.306C368.946 155.323 366.476 136.427 363.494 117.615C361.983 108.212 360.281 98.8378 358.415 89.4963C357.489 84.8239 356.52 80.1595 355.494 75.5079L353.899 68.5436L353.067 65.071L352.633 63.3413C352.481 62.7774 352.327 62.1675 352.175 61.6808L352.149 61.5986C352.087 61.3984 352.198 61.1851 352.398 61.1225C352.592 61.0614 352.799 61.1653 352.869 61.3542Z" fill="white"/>
<path d="M220.68 394.885C310.8 394.885 383.858 321.828 383.858 231.708C383.858 141.587 310.8 68.5298 220.68 68.5298C130.559 68.5298 57.502 141.587 57.502 231.708C57.502 321.828 130.559 394.885 220.68 394.885Z" fill="url(#paint1_linear_1455_7308)"/>
<path d="M346.989 347.09C410.713 283.366 410.713 180.048 346.989 116.324C283.265 52.5998 179.947 52.5997 116.223 116.324C52.4986 180.048 52.4986 283.366 116.223 347.09C179.947 410.814 283.265 410.814 346.989 347.09Z" fill="white"/>
<path d="M231.61 370.973C308.524 370.973 370.876 308.621 370.876 231.707C370.876 154.792 308.524 92.4409 231.61 92.4409C154.695 92.4409 92.3438 154.792 92.3438 231.707C92.3438 308.621 154.695 370.973 231.61 370.973Z" fill="url(#paint2_linear_1455_7308)"/>
<path d="M231.609 377.949C150.972 377.949 85.3682 312.345 85.3682 231.707C85.3682 151.069 150.972 85.4653 231.609 85.4653C312.246 85.4653 377.85 151.069 377.85 231.707C377.85 312.345 312.246 377.949 231.609 377.949ZM231.609 92.4409C154.818 92.4409 92.3439 154.915 92.3439 231.707C92.3439 308.499 154.818 370.973 231.609 370.973C308.401 370.973 370.874 308.499 370.874 231.707C370.874 154.915 308.401 92.4409 231.609 92.4409Z" fill="white"/>
<path d="M231.609 316.611C278.5 316.611 316.513 278.598 316.513 231.707C316.513 184.817 278.5 146.804 231.609 146.804C184.719 146.804 146.706 184.817 146.706 231.707C146.706 278.598 184.719 316.611 231.609 316.611Z" fill="url(#paint3_linear_1455_7308)"/>
<path d="M231.609 323.587C180.947 323.587 139.73 282.369 139.73 231.707C139.73 181.045 180.947 139.83 231.609 139.83C282.271 139.83 323.487 181.045 323.487 231.707C323.487 282.369 282.271 323.587 231.609 323.587ZM231.609 153.78C188.639 153.78 153.681 188.738 153.681 231.707C153.681 274.677 188.639 309.636 231.609 309.636C274.579 309.636 309.537 274.677 309.537 231.707C309.537 188.738 274.579 153.78 231.609 153.78Z" fill="white"/>
<path d="M231.61 264.601C249.777 264.601 264.504 249.874 264.504 231.707C264.504 213.54 249.777 198.813 231.61 198.813C213.443 198.813 198.716 213.54 198.716 231.707C198.716 249.874 213.443 264.601 231.61 264.601Z" fill="#0026EC"/>
<path d="M231.609 271.577C209.625 271.577 191.74 253.692 191.74 231.707C191.74 209.722 209.625 191.837 231.609 191.837C253.593 191.837 271.479 209.722 271.479 231.707C271.479 253.692 253.593 271.577 231.609 271.577ZM231.609 205.788C217.318 205.788 205.691 217.415 205.691 231.707C205.691 245.999 217.318 257.626 231.609 257.626C245.901 257.626 257.529 245.999 257.529 231.707C257.529 217.415 245.901 205.788 231.609 205.788Z" fill="white"/>
<path d="M458.866 280.754L465.834 294.817L436.286 288.014C426.605 285.786 418.434 279.332 414.023 270.43L458.866 280.754Z" fill="url(#paint4_linear_1455_7308)"/>
<path d="M459.838 276.529L472.254 266.929L442.707 260.127C433.026 257.898 422.855 260.129 414.996 266.205L459.838 276.529Z" fill="url(#paint5_linear_1455_7308)"/>
<path d="M460.506 275.946L459.34 281.011L267.56 236.857L268.725 231.792L460.506 275.946Z" fill="white"/>
<path d="M277.623 229.295C280.529 229.964 277.375 243.662 274.469 242.993L230.348 227.115C228.718 226.528 229.278 224.096 231.001 224.282L277.623 229.295Z" fill="#1BFFFF"/>
<path d="M324.435 426.894C324.435 426.894 326.791 430.288 326.909 435.057C326.937 436.18 326.028 437.107 324.905 437.146L306.776 437.779C305.927 437.808 305.545 436.729 306.222 436.217C309.569 433.689 316.155 428.953 320.97 427.015L324.435 426.894Z" fill="url(#paint6_linear_1455_7308)"/>
<path d="M324.887 421.105L324.423 428.075C324.371 428.854 323.7 429.466 322.921 429.401C322.448 429.362 321.879 429.24 321.25 428.957C320.653 428.689 320.284 428.073 320.309 427.418L320.624 419.009L324.887 421.105Z" fill="url(#paint7_linear_1455_7308)"/>
<path d="M425.434 396.487C425.434 396.487 429.214 394.819 433.919 395.607C435.027 395.793 435.765 396.861 435.59 397.971L432.771 415.89C432.639 416.73 431.507 416.901 431.133 416.138C429.285 412.373 425.885 405.008 424.896 399.913L425.434 396.487Z" fill="url(#paint8_linear_1455_7308)"/>
<path d="M419.837 394.946L426.591 396.724C427.347 396.923 427.82 397.698 427.609 398.45C427.48 398.908 427.252 399.443 426.856 400.007C426.479 400.542 425.804 400.787 425.166 400.639L416.97 398.734L419.837 394.946Z" fill="url(#paint9_linear_1455_7308)"/>
<path d="M327.334 253.949C327.334 253.949 326.727 252.545 326.824 251.715C326.922 250.884 326.945 248.291 325.39 247.197C325.39 247.197 324.547 247.238 324.531 248.183C323.54 247.12 323.49 246.202 322.467 246.854C321.443 247.505 317.591 249.842 319.515 251.383C321.438 252.924 324.462 255.857 324.462 255.857L327.334 253.949Z" fill="url(#paint10_linear_1455_7308)"/>
<path d="M360.714 366.066C360.714 366.066 364.145 393.449 373.969 394.495C383.794 395.54 421.419 400.974 421.419 400.974L422.464 395.331C422.464 395.331 400.725 382.162 387.765 382.371C381.285 372.755 382.866 346.187 382.866 346.187L360.714 366.066Z" fill="url(#paint11_linear_1455_7308)"/>
<path d="M401.129 270.465C399.972 300.994 383.958 303.691 383.958 303.691V342.738H361.377C361.377 342.738 350.428 316.075 350.712 307.161C334.427 300.275 326.184 260.899 324.462 255.857C325.265 255.247 325.695 255.27 327.334 253.949C349.532 289.277 354.947 294.707 354.947 294.707H367.489C391.589 292.543 397.518 269.634 397.518 269.634L401.129 270.465Z" fill="white"/>
<path d="M383.252 342.655C383.252 342.655 385.047 361.787 347.36 376.698C338.163 393.839 326.1 425.791 326.1 425.791H318.157C318.157 425.791 323.592 377.534 333.207 367.919C342.823 358.303 353.312 347.483 361.376 342.745C380.03 340.794 383.252 342.655 383.252 342.655Z" fill="url(#paint12_linear_1455_7308)"/>
<path d="M367.185 280.476L371.342 295.115C371.342 295.115 364.239 298.932 358.987 297.9L357.544 284.996L367.185 280.476Z" fill="url(#paint13_linear_1455_7308)"/>
<path d="M358.574 269.844C358.422 270.016 352.769 284.075 352.769 284.075L360.865 287.132L368.202 274.603C368.202 274.603 361.124 266.977 358.574 269.844Z" fill="url(#paint14_linear_1455_7308)"/>
<path d="M364.838 276.253L361.491 283.151C361.448 283.239 361.395 283.319 361.33 283.393C360.931 283.843 359.443 285.291 358.054 283.679C356.794 282.216 355.622 280.9 354.442 280.552C353.912 280.396 353.351 280.666 353.145 281.179C352.632 282.457 351.529 285.357 350.954 288.023C350.838 288.564 351.16 289.101 351.689 289.264C353.282 289.757 356.671 290.702 359.575 290.824C359.969 290.84 360.339 290.645 360.542 290.307C361.531 288.662 364.558 283.671 365.616 282.411C366.61 281.228 368.688 281.499 369.553 281.675C369.836 281.732 370.128 281.672 370.365 281.507C371.205 280.923 372.852 279.378 371.037 277.1C370.657 276.624 370.747 275.934 371.235 275.569C372.206 274.842 373.311 273.483 372.052 271.502C370.773 269.488 368.776 269.561 367.524 269.864C367.018 269.986 366.51 269.721 366.296 269.246C366.174 268.976 365.933 268.754 365.473 268.742C364.854 268.726 364.396 268.156 364.476 267.541C364.631 266.361 364.376 264.819 362.396 263.949C358.883 262.405 356.216 265.666 355.695 268.266C355.174 270.865 359.078 272.322 361.46 272.412C363.272 272.48 364.404 274.41 364.844 275.332C364.982 275.623 364.979 275.962 364.838 276.253Z" fill="url(#paint15_linear_1455_7308)"/>
<path d="M364.373 284.91C364.373 284.91 365.475 280.42 367.396 280.41C369.316 280.401 370.986 282.167 368.813 284.512C366.11 287.429 364.373 284.91 364.373 284.91Z" fill="url(#paint16_linear_1455_7308)"/>
<path d="M401.885 262.411C401.885 262.411 397.008 260.251 397.635 263.874C398.262 267.497 396.952 270.145 399.732 270.424C402.512 270.703 402.829 264.915 401.885 262.411Z" fill="url(#paint17_linear_1455_7308)"/>
<g opacity="0.3">
<path d="M113.122 102.589C112.337 102.629 111.632 102.07 111.508 101.277C111.237 99.5412 111.036 97.7681 110.913 96.007C110.853 95.15 111.498 94.4068 112.355 94.3467C112.366 94.3461 112.376 94.3456 112.386 94.345C113.229 94.302 113.956 94.9426 114.015 95.7892C114.132 97.4625 114.323 99.1466 114.581 100.795C114.714 101.643 114.134 102.439 113.285 102.572C113.23 102.581 113.176 102.586 113.122 102.589ZM112.533 89.0547C112.472 89.0577 112.41 89.0573 112.348 89.0532C111.491 88.9958 110.843 88.2547 110.9 87.3979C111.018 85.6377 111.212 83.8653 111.478 82.1299C111.608 81.2808 112.398 80.6999 113.25 80.8274C114.099 80.9575 114.682 81.7514 114.552 82.5997C114.3 84.2493 114.115 85.9331 114.003 87.6058C113.95 88.4004 113.309 89.0152 112.533 89.0547ZM114.938 75.7273C114.765 75.7361 114.588 75.7159 114.412 75.6635C113.59 75.4164 113.123 74.5498 113.369 73.7273C113.875 72.0411 114.46 70.3557 115.109 68.7182C115.426 67.92 116.329 67.5302 117.127 67.8453C117.926 68.1618 118.317 69.0657 118 69.8639C117.384 71.4189 116.829 73.0189 116.348 74.6204C116.154 75.2676 115.576 75.6948 114.938 75.7273ZM120.264 63.2698C119.979 63.2843 119.685 63.2202 119.418 63.0684C118.672 62.6442 118.411 61.6946 118.835 60.9482C119.706 59.4167 120.653 57.9045 121.65 56.4536C122.137 55.747 123.104 55.5675 123.813 56.0533C124.52 56.5397 124.699 57.508 124.213 58.2158C123.265 59.5936 122.366 61.0299 121.539 62.4854C121.266 62.9646 120.777 63.2437 120.264 63.2698ZM128.235 52.313C127.834 52.3335 127.426 52.1998 127.106 51.9076C126.472 51.328 126.428 50.3445 127.008 49.7109C128.193 48.414 129.452 47.1493 130.747 45.9532C131.377 45.37 132.361 45.4087 132.944 46.0401C133.527 46.671 133.488 47.6547 132.857 48.2378C131.625 49.3745 130.43 50.5766 129.303 51.809C129.016 52.1236 128.629 52.293 128.235 52.313ZM138.43 43.3929C137.911 43.4194 137.39 43.1855 137.072 42.7274C136.582 42.0219 136.756 41.0532 137.461 40.563C138.907 39.5588 140.414 38.6038 141.94 37.7257C142.684 37.2973 143.635 37.5535 144.063 38.2981C144.492 39.0419 144.235 39.9929 143.491 40.4213C142.041 41.256 140.61 42.1629 139.236 43.1172C138.989 43.289 138.71 43.3787 138.43 43.3929ZM195.149 36.7957C194.934 36.8067 194.713 36.7728 194.5 36.6888C192.946 36.0759 191.344 35.5226 189.739 35.0448C188.916 34.7996 188.447 33.9337 188.693 33.111C188.937 32.2878 189.803 31.8191 190.627 32.0643C192.317 32.5674 194.004 33.15 195.641 33.7951C196.44 34.1102 196.832 35.0134 196.517 35.8123C196.286 36.3983 195.739 36.7655 195.149 36.7957ZM150.34 36.9581C149.696 36.9909 149.073 36.6177 148.819 35.9859C148.498 35.1891 148.883 34.2832 149.68 33.9623C151.312 33.3044 152.994 32.7096 154.677 32.1944C155.499 31.9469 156.368 32.4044 156.619 33.2261C156.87 34.0472 156.408 34.9167 155.587 35.1684C153.989 35.6574 152.392 36.2222 150.842 36.8469C150.677 36.9129 150.508 36.9497 150.34 36.9581ZM182.067 33.2789C181.965 33.2842 181.86 33.2798 181.755 33.2638C180.102 33.0141 178.416 32.8331 176.744 32.7242C175.887 32.6681 175.238 31.9281 175.294 31.0713C175.35 30.2145 176.089 29.5609 176.946 29.6205C178.705 29.7352 180.479 29.9258 182.218 30.1881C183.067 30.3163 183.652 31.1088 183.524 31.9577C183.412 32.7014 182.79 33.242 182.067 33.2789ZM163.389 33.3452C162.605 33.3852 161.902 32.828 161.776 32.0359C161.642 31.1876 162.22 30.3912 163.069 30.2561C164.805 29.981 166.577 29.7769 168.335 29.6508C168.346 29.6496 168.357 29.649 168.368 29.6484C169.211 29.6055 169.937 30.2443 169.998 31.0896C170.059 31.9466 169.415 32.691 168.558 32.7523C166.889 32.8726 165.206 33.0667 163.556 33.3284C163.5 33.3366 163.444 33.3424 163.389 33.3452Z" fill="#91B3FA"/>
<path d="M204.903 41.7036C204.597 41.7192 204.284 41.6452 204.004 41.4709C203.323 41.0471 202.622 40.6308 201.921 40.2323C201.174 39.8087 200.912 38.8593 201.336 38.1127C201.759 37.3655 202.709 37.1025 203.456 37.5278C204.194 37.9464 204.931 38.3845 205.647 38.8303C206.376 39.284 206.599 40.2432 206.146 40.972C205.866 41.4216 205.394 41.6786 204.903 41.7036Z" fill="#91B3FA"/>
</g>
<g opacity="0.3">
<path d="M232.174 80.4839C231.425 80.5221 230.737 80.0122 230.576 79.2546C230.409 78.4706 230.223 77.6767 230.023 76.8956C229.809 76.0635 230.311 75.2162 231.143 75.003C231.978 74.7888 232.822 75.2914 233.035 76.1229C233.246 76.9453 233.442 77.7813 233.618 78.607C233.797 79.4469 233.261 80.2729 232.421 80.4519C232.338 80.4694 232.256 80.4798 232.174 80.4839Z" fill="#91B3FA"/>
<path d="M176.091 153.624C175.377 153.66 174.659 153.684 173.938 153.697C173.079 153.711 172.371 153.027 172.356 152.169C172.341 151.31 173.029 150.599 173.884 150.587C175.548 150.558 177.207 150.462 178.834 150.298C179.689 150.214 180.451 150.836 180.536 151.69C180.622 152.545 179.999 153.308 179.144 153.393C178.138 153.494 177.111 153.572 176.091 153.624ZM165.739 153.277C165.652 153.282 165.563 153.279 165.474 153.268C163.751 153.063 162.017 152.783 160.322 152.435C159.481 152.263 158.939 151.441 159.111 150.6C159.284 149.758 160.107 149.214 160.947 149.389C162.558 149.719 164.204 149.985 165.841 150.18C166.694 150.281 167.303 151.055 167.202 151.908C167.111 152.671 166.481 153.239 165.739 153.277ZM187.21 152.014C186.478 152.051 185.8 151.565 185.621 150.826C185.42 149.991 185.933 149.151 186.768 148.949C188.365 148.564 189.967 148.104 191.53 147.583C192.346 147.313 193.226 147.752 193.497 148.567C193.769 149.382 193.328 150.263 192.513 150.534C190.867 151.083 189.18 151.566 187.498 151.973C187.402 151.996 187.306 152.009 187.21 152.014ZM152.752 150.254C152.554 150.264 152.352 150.236 152.155 150.166C150.52 149.588 148.891 148.934 147.312 148.22C146.53 147.867 146.182 146.946 146.536 146.163C146.889 145.38 147.81 145.032 148.593 145.386C150.092 146.064 151.639 146.685 153.191 147.234C154.001 147.52 154.425 148.409 154.139 149.218C153.923 149.83 153.362 150.223 152.752 150.254ZM199.735 147.471C199.134 147.502 198.544 147.18 198.261 146.607C197.88 145.837 198.196 144.904 198.966 144.523C200.439 143.796 201.9 142.996 203.311 142.144C204.047 141.7 205.003 141.936 205.446 142.672C205.89 143.407 205.654 144.363 204.919 144.806C203.433 145.703 201.894 146.546 200.344 147.312C200.148 147.409 199.941 147.461 199.735 147.471ZM210.959 140.29C210.479 140.314 209.995 140.116 209.669 139.714C209.13 139.045 209.234 138.066 209.902 137.527C211.184 136.492 212.437 135.391 213.626 134.255C214.246 133.661 215.23 133.683 215.824 134.305C216.418 134.926 216.395 135.91 215.774 136.504C214.523 137.699 213.204 138.858 211.856 139.946C211.591 140.161 211.276 140.273 210.959 140.29ZM220.352 130.832C219.986 130.851 219.614 130.741 219.305 130.496C218.633 129.961 218.522 128.983 219.056 128.311C220.083 127.021 221.066 125.674 221.979 124.306C222.455 123.592 223.42 123.399 224.135 123.876C224.849 124.353 225.042 125.319 224.565 126.033C223.605 127.472 222.57 128.89 221.49 130.247C221.201 130.611 220.782 130.81 220.352 130.832ZM227.457 119.552C227.204 119.565 226.945 119.516 226.7 119.398C225.928 119.023 225.605 118.093 225.98 117.32C226.7 115.838 227.363 114.308 227.954 112.774C228.262 111.972 229.163 111.572 229.963 111.88C230.765 112.188 231.165 113.088 230.856 113.89C230.235 115.506 229.536 117.117 228.778 118.677C228.522 119.206 228.005 119.524 227.457 119.552ZM231.914 106.982C231.772 106.99 231.627 106.977 231.481 106.943C230.645 106.748 230.125 105.911 230.32 105.075C230.694 103.475 231.005 101.838 231.243 100.208C231.367 99.3578 232.159 98.7705 233.006 98.8941C233.856 99.018 234.444 99.808 234.32 100.658C234.069 102.374 233.743 104.098 233.349 105.782C233.188 106.473 232.589 106.948 231.914 106.982ZM233.501 93.7496C233.469 93.7512 233.436 93.7517 233.404 93.7515C232.546 93.7429 231.856 93.0398 231.865 92.1811C231.877 90.9689 231.852 89.7423 231.791 88.5338C231.768 88.0964 231.741 87.6598 231.709 87.2254C231.647 86.3686 232.291 85.6237 233.148 85.5617C234.014 85.4817 234.749 86.1431 234.811 86.9993C234.845 87.4568 234.873 87.9151 234.897 88.3755C234.961 89.6464 234.988 90.9376 234.975 92.2124C234.967 93.0388 234.315 93.7082 233.501 93.7496Z" fill="#91B3FA"/>
<path d="M140.718 144.424C140.409 144.44 140.093 144.364 139.812 144.188C139.099 143.739 138.383 143.267 137.682 142.785C136.975 142.298 136.796 141.33 137.283 140.622C137.771 139.915 138.738 139.736 139.446 140.223C140.111 140.681 140.792 141.13 141.468 141.556C142.195 142.012 142.414 142.972 141.956 143.7C141.676 144.145 141.206 144.399 140.718 144.424Z" fill="#91B3FA"/>
</g>
<path d="M141.895 126.304C142.103 126.534 142.434 126.607 142.719 126.485L150.855 123.013C154.252 125.364 158.048 127.19 162.134 128.366L164.594 136.856C164.68 137.154 164.946 137.364 165.256 137.38L175.853 137.911C176.162 137.926 176.448 137.744 176.563 137.456L179.86 129.254C184.042 128.492 188.002 127.055 191.616 125.055L199.365 129.322C199.637 129.472 199.973 129.433 200.203 129.225L208.071 122.107C208.302 121.898 208.374 121.567 208.252 121.282L204.781 113.147C207.132 109.75 208.958 105.953 210.133 101.868L218.624 99.4077C218.922 99.3215 219.132 99.0559 219.147 98.746L219.678 88.1489C219.694 87.8392 219.511 87.5538 219.223 87.4383L211.021 84.1421C210.259 79.9596 208.822 76.0001 206.822 72.3854L211.089 64.6367C211.239 64.3652 211.2 64.0286 210.992 63.7986L203.874 55.9303C203.666 55.7002 203.335 55.6276 203.05 55.7494L194.914 59.2211C191.517 56.8702 187.721 55.0442 183.635 53.8688L181.175 45.3779C181.089 45.0802 180.823 44.8699 180.513 44.8542L169.916 44.3237C169.606 44.308 169.321 44.4908 169.205 44.7786L165.909 52.9811C161.727 53.7423 157.767 55.18 154.152 57.1798L146.404 52.9127C146.132 52.763 145.796 52.8024 145.566 53.0104L137.697 60.1283C137.467 60.3363 137.395 60.6673 137.516 60.9525L140.988 69.0884C138.637 72.4852 136.811 76.2815 135.636 80.367L127.145 82.8272C126.847 82.9134 126.637 83.1792 126.621 83.4889L126.091 94.0858C126.075 94.3955 126.258 94.6809 126.546 94.7966L134.748 98.0928C135.509 102.275 136.947 106.235 138.947 109.85L134.68 117.598C134.53 117.87 134.569 118.206 134.777 118.436L141.895 126.304Z" fill="#91B3FA"/>
<path d="M173.42 101.77C168.228 102.034 163.474 98.4537 162.426 93.2073C161.273 87.4401 165.027 81.8113 170.794 80.6587C173.588 80.0996 176.432 80.6634 178.801 82.2438C181.172 83.8242 182.785 86.2332 183.342 89.0269C184.495 94.7943 180.741 100.423 174.974 101.575C174.454 101.679 173.935 101.743 173.42 101.77ZM172.485 82.9481C172.084 82.9686 171.683 83.0182 171.282 83.0983C166.86 83.9817 163.982 88.2982 164.865 92.7193C165.749 97.1409 170.064 100.021 174.487 99.1358C178.908 98.2523 181.786 93.9359 180.903 89.5147C180.475 87.3724 179.238 85.5257 177.421 84.3138C175.944 83.3289 174.226 82.8592 172.485 82.9481Z" fill="#BDD0FB"/>
<path d="M174.422 117.143C173.53 117.188 172.631 117.189 171.727 117.144C171.443 117.13 171.158 117.111 170.874 117.088C169.474 116.972 168.085 116.746 166.729 116.412C166.711 116.407 166.692 116.403 166.674 116.398C166.621 116.385 166.569 116.372 166.517 116.358C166.415 116.332 166.313 116.305 166.212 116.278C165.945 116.206 165.765 115.972 165.751 115.71C165.748 115.646 165.755 115.581 165.772 115.516C165.861 115.184 166.203 114.988 166.534 115.077C168.241 115.535 170.009 115.813 171.789 115.901C180.63 116.345 188.642 112.113 193.423 105.381C196.082 101.637 197.742 97.119 197.988 92.2019C198.031 91.3397 198.031 90.4816 197.987 89.631C197.695 83.9069 195.461 78.5023 191.564 74.1948C187.088 69.2464 180.952 66.3374 174.289 66.0037C160.526 65.3158 148.779 75.9469 148.09 89.7031C148.047 90.5512 148.048 91.3985 148.091 92.2411C148.278 95.8924 149.261 99.4624 150.984 102.691C151.028 102.775 151.052 102.863 151.056 102.952C151.068 103.185 150.948 103.415 150.728 103.532C150.424 103.693 150.048 103.58 149.886 103.276C148.078 99.8863 147.045 96.1383 146.849 92.3049C146.804 91.4205 146.803 90.5313 146.847 89.641C147.57 75.1981 159.913 64.0379 174.35 64.7608C181.347 65.111 187.787 68.1651 192.486 73.3599C196.578 77.882 198.922 83.5559 199.229 89.565C199.275 90.458 199.275 91.3587 199.23 92.2636C198.88 99.2601 195.826 105.701 190.632 110.4C186.108 114.492 180.433 116.837 174.422 117.143Z" fill="#BDD0FB"/>
<g opacity="0.3">
<path d="M62.2109 146.215C61.796 146.237 61.3999 145.985 61.2559 145.573C60.9866 144.803 60.737 144.015 60.5143 143.23C60.3695 142.72 60.6655 142.189 61.176 142.044C61.6865 141.897 62.2172 142.196 62.3621 142.706C62.5743 143.454 62.8121 144.205 63.069 144.939C63.2442 145.44 62.98 145.987 62.4796 146.163C62.3906 146.194 62.3003 146.211 62.2109 146.215Z" fill="#91B3FA"/>
<path d="M60.4225 139.047C59.9364 139.072 59.5007 138.725 59.4255 138.234C59.2119 136.846 59.0676 135.432 58.9962 134.031C58.9811 133.736 58.9694 133.44 58.9603 133.142C58.945 132.611 59.3911 132.188 59.8918 132.153C60.4221 132.137 60.8645 132.554 60.8808 133.084C60.8891 133.368 60.9002 133.651 60.9146 133.933C60.9826 135.27 61.1205 136.619 61.3236 137.942C61.4044 138.467 61.0448 138.956 60.5207 139.037C60.4876 139.042 60.4548 139.046 60.4225 139.047ZM60.126 129.079C60.0806 129.082 60.0341 129.081 59.9878 129.077C59.4593 129.028 59.0707 128.56 59.1193 128.032C59.2753 126.337 59.538 124.637 59.9001 122.98C60.0131 122.461 60.5276 122.135 61.0434 122.246C61.5619 122.36 61.8898 122.871 61.7768 123.389C61.4314 124.971 61.1811 126.592 61.0319 128.208C60.9875 128.69 60.5952 129.056 60.126 129.079ZM62.2554 119.337C62.1336 119.343 62.0088 119.326 61.8868 119.284C61.3867 119.107 61.1249 118.558 61.3014 118.058C61.8678 116.456 62.5402 114.871 63.3013 113.35C63.5387 112.875 64.114 112.683 64.59 112.92C65.0642 113.157 65.2565 113.735 65.0196 114.209C64.2939 115.66 63.6524 117.17 63.1128 118.698C62.9787 119.076 62.6324 119.318 62.2554 119.337ZM66.7149 110.416C66.5162 110.426 66.3131 110.375 66.1348 110.257C65.6934 109.963 65.5732 109.366 65.8673 108.925C66.8107 107.508 67.85 106.137 68.9574 104.85C69.3037 104.449 69.9105 104.405 70.3117 104.749C70.7139 105.095 70.7593 105.701 70.4131 106.104C69.3576 107.33 68.3658 108.638 67.4664 109.989C67.2911 110.253 67.0085 110.401 66.7149 110.416ZM73.2177 102.856C72.9403 102.87 72.6589 102.764 72.4573 102.542C72.1008 102.15 72.1299 101.543 72.522 101.185C73.7804 100.042 75.1211 98.9652 76.5071 97.9855C76.9404 97.6779 77.5397 97.7818 77.8459 98.215C78.1521 98.6484 78.0492 99.248 77.6164 99.5536C76.2939 100.489 75.015 101.516 73.8145 102.607C73.6434 102.762 73.4317 102.845 73.2177 102.856ZM81.3574 97.1027C80.9982 97.121 80.6432 96.9352 80.4615 96.597C80.211 96.1298 80.387 95.548 80.8541 95.297C82.3524 94.4938 83.9152 93.7764 85.4984 93.166C85.9953 92.9763 86.5493 93.2223 86.7403 93.7169C86.9311 94.2114 86.6844 94.7678 86.1898 94.9583C84.6798 95.5405 83.1904 96.2241 81.762 96.9898C81.6327 97.0595 81.4947 97.0956 81.3574 97.1027ZM90.6543 93.5156C90.2047 93.5385 89.7871 93.2415 89.6744 92.7889C89.5462 92.2742 89.8597 91.753 90.3743 91.6245C92.0185 91.2148 93.71 90.9032 95.4022 90.6977C95.9309 90.6426 96.408 91.0101 96.4714 91.5364C96.5354 92.0629 96.1601 92.5412 95.6338 92.6056C94.0194 92.8005 92.4062 93.0979 90.8384 93.4886C90.7768 93.5038 90.7152 93.5126 90.6543 93.5156ZM105.54 92.635C105.485 92.6378 105.428 92.636 105.371 92.6285C103.982 92.4542 102.558 92.3529 101.14 92.3276C100.925 92.3226 100.715 92.3202 100.504 92.3204C99.9735 92.3193 99.5441 91.8896 99.5447 91.3589C99.5444 90.8273 99.9782 90.3826 100.506 90.3989C100.73 90.3996 100.954 90.4014 101.18 90.4068C102.661 90.4337 104.153 90.5398 105.61 90.7229C106.137 90.7891 106.509 91.2688 106.443 91.7953C106.385 92.2642 105.997 92.6117 105.54 92.635Z" fill="#91B3FA"/>
</g>
<g opacity="0.3">
<path d="M103.098 173.276C102.574 173.303 102.125 172.903 102.091 172.378C102.057 171.849 102.459 171.392 102.988 171.359C104.582 171.257 106.183 171.057 107.747 170.764C108.266 170.672 108.77 171.009 108.868 171.531C108.965 172.053 108.621 172.554 108.1 172.652C106.46 172.958 104.782 173.169 103.111 173.276C103.107 173.276 103.102 173.276 103.098 173.276ZM98.1845 173.295C98.1498 173.297 98.1155 173.297 98.0803 173.295C96.4109 173.201 94.7302 173.005 93.085 172.712C92.5627 172.619 92.2148 172.121 92.3079 171.599C92.4006 171.076 92.9022 170.73 93.4216 170.821C94.9916 171.1 96.5953 171.287 98.1883 171.377C98.7177 171.406 99.1229 171.86 99.0931 172.389C99.0653 172.885 98.6679 173.27 98.1845 173.295ZM112.737 171.471C112.312 171.492 111.909 171.227 111.773 170.802C111.613 170.297 111.892 169.757 112.397 169.596C113.92 169.111 115.425 168.53 116.873 167.868C117.357 167.649 117.925 167.859 118.145 168.342C118.366 168.824 118.154 169.394 117.672 169.615C116.155 170.309 114.576 170.918 112.98 171.426C112.899 171.452 112.818 171.466 112.737 171.471ZM88.5254 171.569C88.4163 171.574 88.3044 171.561 88.1937 171.528C86.5946 171.035 85.0099 170.439 83.4841 169.755C82.9998 169.538 82.7835 168.97 83.0001 168.485C83.2169 168.003 83.7853 167.786 84.269 168.002C85.7242 168.654 87.2346 169.222 88.7593 169.692C89.266 169.848 89.5506 170.386 89.3943 170.893C89.2722 171.288 88.9169 171.549 88.5254 171.569ZM121.653 167.388C121.313 167.405 120.975 167.242 120.785 166.932C120.507 166.479 120.648 165.888 121.1 165.61C122.458 164.777 123.779 163.851 125.027 162.858C125.443 162.527 126.047 162.596 126.377 163.012C126.707 163.427 126.638 164.031 126.223 164.361C124.915 165.402 123.53 166.373 122.106 167.248C121.964 167.335 121.808 167.38 121.653 167.388ZM129.329 161.286C129.069 161.299 128.805 161.208 128.605 161.011C128.228 160.639 128.223 160.031 128.595 159.653C129.717 158.515 130.779 157.299 131.752 156.04C132.077 155.619 132.681 155.542 133.1 155.867C133.52 156.191 133.597 156.794 133.273 157.213C132.252 158.534 131.139 159.809 129.964 161.001C129.789 161.179 129.561 161.274 129.329 161.286ZM135.323 153.52C135.141 153.53 134.953 153.487 134.784 153.386C134.328 153.115 134.178 152.526 134.45 152.07C135.267 150.697 136.006 149.262 136.647 147.805C136.861 147.32 137.427 147.099 137.913 147.313C138.398 147.527 138.619 148.093 138.405 148.579C137.732 150.107 136.957 151.612 136.101 153.052C135.93 153.339 135.633 153.504 135.323 153.52Z" fill="#91B3FA"/>
<path d="M79.5311 167.537C79.3461 167.547 79.1565 167.503 78.9859 167.4C78.2823 166.974 77.5885 166.526 76.9228 166.068C76.4862 165.767 76.3754 165.169 76.6761 164.732C76.9776 164.297 77.5748 164.186 78.0123 164.485C78.6469 164.923 79.309 165.35 79.9802 165.756C80.4342 166.031 80.5793 166.622 80.3047 167.075C80.1333 167.358 79.8387 167.522 79.5311 167.537Z" fill="#91B3FA"/>
</g>
<path d="M79.6975 155.105C79.8366 155.259 80.0581 155.308 80.2489 155.226L85.6931 152.903C87.9661 154.476 90.5064 155.698 93.2401 156.485L94.8864 162.166C94.944 162.366 95.1219 162.506 95.3291 162.517L102.42 162.872C102.627 162.882 102.818 162.76 102.896 162.567L105.101 157.079C107.9 156.569 110.55 155.607 112.968 154.269L118.153 157.125C118.335 157.225 118.56 157.198 118.714 157.059L123.979 152.296C124.133 152.157 124.182 151.935 124.1 151.745L121.777 146.3C123.35 144.027 124.572 141.487 125.359 138.753L131.041 137.107C131.24 137.049 131.381 136.872 131.391 136.664L131.746 129.573C131.756 129.366 131.634 129.175 131.442 129.098L125.953 126.892C125.444 124.093 124.481 121.444 123.143 119.025L125.999 113.84C126.099 113.658 126.072 113.433 125.933 113.279L121.17 108.014C121.031 107.86 120.81 107.811 120.619 107.893L115.175 110.216C112.902 108.643 110.361 107.421 107.628 106.634L105.981 100.953C105.924 100.753 105.746 100.613 105.539 100.602L98.4475 100.247C98.2402 100.237 98.0494 100.359 97.972 100.552L95.7664 106.04C92.9677 106.55 90.318 107.512 87.8992 108.85L82.7144 105.995C82.5326 105.894 82.3074 105.921 82.1535 106.06L76.8883 110.823C76.7345 110.962 76.6858 111.184 76.7673 111.374L79.0902 116.819C77.5171 119.092 76.2953 121.632 75.5089 124.366L69.8271 126.012C69.6281 126.07 69.4872 126.247 69.4769 126.455L69.1217 133.546C69.1114 133.753 69.2335 133.944 69.4261 134.021L74.9148 136.227C75.4243 139.026 76.3862 141.675 77.7242 144.094L74.869 149.279C74.7689 149.461 74.7952 149.686 74.9343 149.84L79.6975 155.105Z" fill="#91B3FA"/>
<path d="M100.789 138.817C99.2417 138.896 97.7159 138.479 96.4034 137.603C94.7891 136.527 93.6908 134.886 93.3107 132.983C92.5255 129.056 95.0822 125.221 99.0104 124.435C102.945 123.656 106.774 126.208 107.558 130.136C107.939 132.039 107.555 133.976 106.479 135.59C105.402 137.205 103.761 138.304 101.858 138.683C101.502 138.754 101.145 138.799 100.789 138.817ZM100.166 126.222C99.9075 126.235 99.6475 126.267 99.3867 126.319C96.4974 126.897 94.6168 129.717 95.1942 132.607C95.474 134.006 96.2817 135.214 97.4691 136.005C98.6571 136.797 100.082 137.078 101.482 136.8C102.881 136.52 104.089 135.712 104.881 134.525C105.673 133.337 105.955 131.912 105.675 130.512C105.15 127.884 102.767 126.089 100.166 126.222Z" fill="#BDD0FB"/>
<path d="M101.472 149.518C100.865 149.549 100.252 149.55 99.6322 149.519C98.402 149.458 97.1769 149.271 95.9878 148.964C95.9345 148.95 95.8811 148.935 95.8278 148.921C95.4155 148.811 95.1383 148.448 95.1173 148.044C95.1123 147.945 95.1225 147.844 95.1495 147.744C95.2869 147.232 95.8142 146.931 96.3259 147.066C97.4334 147.364 98.5778 147.543 99.7275 147.6H99.7279C99.791 147.604 99.8545 147.606 99.9172 147.609C102.639 147.719 105.286 147.146 107.666 145.973C108.958 145.336 110.173 144.521 111.277 143.54C111.286 143.532 111.295 143.524 111.304 143.516C111.332 143.491 111.359 143.467 111.386 143.442C114.589 140.544 116.473 136.572 116.688 132.258C116.717 131.7 116.716 131.145 116.688 130.594C116.499 126.889 115.053 123.39 112.53 120.6C109.632 117.397 105.66 115.515 101.346 115.299C97.0352 115.085 92.8923 116.56 89.6884 119.457C86.4853 122.355 84.6018 126.327 84.3859 130.641C84.358 131.19 84.3587 131.738 84.3865 132.283C84.5074 134.648 85.1441 136.958 86.2592 139.048C86.3278 139.177 86.3644 139.314 86.3709 139.451C86.3892 139.811 86.2031 140.167 85.8639 140.348C85.3952 140.596 84.8143 140.421 84.564 139.952C83.3166 137.613 82.604 135.027 82.4681 132.383C82.437 131.772 82.4362 131.159 82.467 130.545C82.7089 125.718 84.8158 121.274 88.4 118.032C91.9838 114.791 96.6131 113.135 101.442 113.38C106.269 113.621 110.712 115.728 113.954 119.312C116.777 122.432 118.394 126.347 118.606 130.492C118.637 131.108 118.638 131.729 118.607 132.354C118.139 141.699 110.623 149.052 101.472 149.518Z" fill="#BDD0FB"/>
<defs>
<linearGradient id="paint0_linear_1455_7308" x1="513.687" y1="560.36" x2="149.032" y2="107.481" gradientUnits="userSpaceOnUse">
<stop stop-color="#DAE3FE"/>
<stop offset="1" stop-color="#E9EFFD"/>
</linearGradient>
<linearGradient id="paint1_linear_1455_7308" x1="39.6769" y1="229.695" x2="430.527" y2="229.695" gradientUnits="userSpaceOnUse">
<stop stop-color="#0026EC"/>
<stop offset="1" stop-color="#1BFFFF"/>
</linearGradient>
<linearGradient id="paint2_linear_1455_7308" x1="77.1307" y1="229.989" x2="410.707" y2="229.989" gradientUnits="userSpaceOnUse">
<stop stop-color="#0026EC"/>
<stop offset="1" stop-color="#1BFFFF"/>
</linearGradient>
<linearGradient id="paint3_linear_1455_7308" x1="137.431" y1="230.66" x2="340.795" y2="230.66" gradientUnits="userSpaceOnUse">
<stop stop-color="#0026EC"/>
<stop offset="1" stop-color="#1BFFFF"/>
</linearGradient>
<linearGradient id="paint4_linear_1455_7308" x1="411.194" y1="282.473" x2="473.243" y2="282.473" gradientUnits="userSpaceOnUse">
<stop stop-color="#0026EC"/>
<stop offset="1" stop-color="#1BFFFF"/>
</linearGradient>
<linearGradient id="paint5_linear_1455_7308" x1="411.869" y1="267.799" x2="480.442" y2="267.799" gradientUnits="userSpaceOnUse">
<stop stop-color="#0026EC"/>
<stop offset="1" stop-color="#1BFFFF"/>
</linearGradient>
<linearGradient id="paint6_linear_1455_7308" x1="304.726" y1="432.269" x2="329.918" y2="432.269" gradientUnits="userSpaceOnUse">
<stop stop-color="#0026EC"/>
<stop offset="1" stop-color="#1BFFFF"/>
</linearGradient>
<linearGradient id="paint7_linear_1455_7308" x1="325.25" y1="423.744" x2="319.88" y2="424.482" gradientUnits="userSpaceOnUse">
<stop stop-color="#FEBBBA"/>
<stop offset="1" stop-color="#FF928E"/>
</linearGradient>
<linearGradient id="paint8_linear_1455_7308" x1="424.31" y1="405.879" x2="437.149" y2="405.879" gradientUnits="userSpaceOnUse">
<stop stop-color="#0026EC"/>
<stop offset="1" stop-color="#1BFFFF"/>
</linearGradient>
<linearGradient id="paint9_linear_1455_7308" x1="422.496" y1="395.09" x2="422.202" y2="400.503" gradientUnits="userSpaceOnUse">
<stop stop-color="#FEBBBA"/>
<stop offset="1" stop-color="#FF928E"/>
</linearGradient>
<linearGradient id="paint10_linear_1455_7308" x1="319.174" y1="249.634" x2="327.818" y2="252.479" gradientUnits="userSpaceOnUse">
<stop stop-color="#FEBBBA"/>
<stop offset="1" stop-color="#FF928E"/>
</linearGradient>
<linearGradient id="paint11_linear_1455_7308" x1="357.341" y1="373.243" x2="431.295" y2="373.243" gradientUnits="userSpaceOnUse">
<stop stop-color="#0026EC"/>
<stop offset="1" stop-color="#1BFFFF"/>
</linearGradient>
<linearGradient id="paint12_linear_1455_7308" x1="314.601" y1="383.305" x2="392.577" y2="383.305" gradientUnits="userSpaceOnUse">
<stop stop-color="#0026EC"/>
<stop offset="1" stop-color="#1BFFFF"/>
</linearGradient>
<linearGradient id="paint13_linear_1455_7308" x1="350.229" y1="257.568" x2="381.22" y2="333.788" gradientUnits="userSpaceOnUse">
<stop stop-color="#FEBBBA"/>
<stop offset="1" stop-color="#FF928E"/>
</linearGradient>
<linearGradient id="paint14_linear_1455_7308" x1="361.057" y1="272.187" x2="358.762" y2="300.923" gradientUnits="userSpaceOnUse">
<stop stop-color="#FEBBBA"/>
<stop offset="1" stop-color="#FF928E"/>
</linearGradient>
<linearGradient id="paint15_linear_1455_7308" x1="367.289" y1="285.155" x2="351.774" y2="271.354" gradientUnits="userSpaceOnUse">
<stop stop-color="#09005D"/>
<stop offset="1" stop-color="#1A0F91"/>
</linearGradient>
<linearGradient id="paint16_linear_1455_7308" x1="367.977" y1="302.715" x2="367.066" y2="282.76" gradientUnits="userSpaceOnUse">
<stop stop-color="#FEBBBA"/>
<stop offset="1" stop-color="#FF928E"/>
</linearGradient>
<linearGradient id="paint17_linear_1455_7308" x1="397.064" y1="265.57" x2="402.372" y2="266.653" gradientUnits="userSpaceOnUse">
<stop stop-color="#FEBBBA"/>
<stop offset="1" stop-color="#FF928E"/>
</linearGradient>
</defs>
</svg>
