<svg width="414" height="364" viewBox="0 0 414 364" fill="none" xmlns="http://www.w3.org/2000/svg">
<g opacity="0.1">
<path d="M401.155 261.427C394.407 246.077 381.447 233.268 365.879 226.963C349.663 220.397 331.044 222.787 313.964 220.588C299.13 218.677 288.427 212.055 279.569 200.281C271.082 188.999 263.473 176.505 249.597 171.287C238.632 167.164 226.166 168.307 215.269 172.603C195.189 180.521 180.022 197.355 167.249 214.126C155.587 229.439 146.075 246.206 124.504 246.752C102.92 247.3 82.3707 234.987 60.6377 238.25C31.9142 242.562 7.99349 266.473 2.98065 294.94C-1.71719 321.619 10.0714 347.494 30.3235 362.698H378.425C403.945 335.626 417.336 298.229 401.155 261.427Z" fill="#0026EC"/>
<path d="M86.4769 362.698H87.4345C94.0848 355.389 99.2942 346.519 102.606 336.674C107.966 320.738 107.74 304.015 101.97 289.584C99.0534 282.29 94.8425 275.493 90.7702 268.92C86.6399 262.253 82.3696 255.36 79.471 247.973C78.2726 244.919 77.3873 241.639 76.8547 238.293C76.6148 238.262 76.3745 238.236 76.1343 238.207C76.6694 241.672 77.5796 245.069 78.8195 248.229C81.7407 255.675 86.0284 262.596 90.1749 269.289C94.2312 275.836 98.4259 282.607 101.319 289.843C107.028 304.121 107.249 320.673 101.942 336.451C98.5897 346.418 93.2711 355.371 86.4769 362.698Z" fill="white"/>
<path d="M376.743 332.34C383.916 333.868 390.828 335.238 397.512 336.101C397.627 335.88 397.738 335.658 397.851 335.436C391.111 334.58 384.135 333.198 376.89 331.655C365.858 329.304 353.918 326.76 342.075 326.76C334.743 326.76 327.448 327.736 320.431 330.336C317.772 331.321 315.21 332.571 312.771 334.06C306.435 331.359 300.066 328.411 293.755 325.175C298.334 321.726 302.961 318.348 307.637 315.082C342.351 290.842 374.388 277.1 405.339 273.2C405.277 272.973 405.212 272.746 405.148 272.52C374.114 276.452 342.007 290.229 307.237 314.508C302.461 317.843 297.737 321.295 293.064 324.819C285.968 321.153 278.957 317.124 272.171 312.677C259.864 304.613 245.224 293.102 232.439 277.807C281.984 272.249 332.427 265.246 373.62 237.715C375.184 236.669 376.917 235.436 378.712 234.038C378.513 233.897 378.313 233.758 378.113 233.619C376.392 234.952 374.733 236.129 373.231 237.132C332.049 264.657 281.513 271.606 231.903 277.164C222.868 266.236 214.796 253.4 209.186 238.54C200.448 215.393 200.909 192.678 210.452 176.219C210.867 175.504 211.304 174.8 211.755 174.104C211.357 174.286 210.962 174.476 210.567 174.666C210.321 175.064 210.08 175.464 209.846 175.867C200.198 192.509 199.718 215.442 208.531 238.787C214.111 253.566 222.111 266.352 231.072 277.256C228.2 277.577 225.328 277.894 222.464 278.21C212.134 279.35 201.451 280.53 191.078 281.865C187.291 282.352 183.441 282.921 179.61 283.633C171.397 266.299 162.375 249.388 150.713 234.886C150.546 235.052 150.376 235.213 150.208 235.377C161.77 249.77 170.736 266.554 178.899 283.767C162.188 286.954 145.962 292.945 137.298 306.89C129.207 319.912 129.214 337.913 137.32 360.393C137.6 361.17 137.889 361.937 138.182 362.698H138.932C138.611 361.866 138.291 361.024 137.978 360.155C129.949 337.887 129.92 320.09 137.893 307.259C146.454 293.48 162.591 287.569 179.209 284.42C182.108 290.554 184.909 296.737 187.693 302.883L187.996 303.552C197.663 324.893 207.662 345.488 220.754 362.698H221.628C208.417 345.456 198.361 324.738 188.633 303.263L188.331 302.595C185.571 296.501 182.793 290.37 179.92 284.288C183.677 283.594 187.454 283.037 191.168 282.559C201.534 281.225 212.213 280.046 222.541 278.906C225.557 278.573 228.58 278.24 231.606 277.901C244.512 293.435 259.339 305.106 271.787 313.263C278.499 317.661 285.431 321.652 292.445 325.287C280.538 334.294 268.955 343.77 257.646 353.022C253.73 356.226 249.77 359.463 245.777 362.698H246.887C250.653 359.643 254.392 356.588 258.089 353.564C269.478 344.247 281.143 334.703 293.135 325.644C299.41 328.872 305.744 331.815 312.046 334.511C303.424 339.995 296.398 348.485 292.149 358.796C291.617 360.087 291.153 361.39 290.723 362.699H291.46C291.866 361.48 292.301 360.266 292.797 359.063C297.057 348.724 304.142 340.241 312.83 334.846C330.447 342.33 347.761 347.886 362.638 352.287L363.198 352.453C369.468 354.306 375.88 356.206 381.552 359.258C381.711 359.077 381.87 358.897 382.027 358.715C376.263 355.588 369.756 353.662 363.397 351.781L362.837 351.616C348.111 347.259 330.996 341.771 313.568 334.398C315.838 333.046 318.215 331.904 320.675 330.993C338.836 324.262 358.975 328.554 376.743 332.34Z" fill="white"/>
<path d="M32.0782 286.997C35.1699 299.652 33.7907 313.319 28.2934 324.495C24.6929 331.815 19.4933 338.441 13.0889 344.132C13.2163 344.331 13.3465 344.527 13.4758 344.724C19.9842 338.958 25.2666 332.235 28.9218 324.804C34.4904 313.484 35.8887 299.643 32.758 286.831C30.3122 276.82 25.3954 268.341 18.6023 262.207C18.4509 262.385 18.3005 262.564 18.151 262.743C24.8309 268.783 29.6685 277.134 32.0782 286.997Z" fill="white"/>
</g>
<path opacity="0.1" d="M190.508 126.681C196.606 132.912 199.339 143.41 195.977 153.088C192.722 162.46 185.585 170.223 177.01 175.213C170.111 179.228 161.112 181.444 154.327 177.239C149.257 174.097 146.628 167.932 146.482 161.969C146.335 156.006 148.341 150.194 150.819 144.769C154.313 137.121 159.015 129.705 166.02 125.054C175.676 118.643 184.647 120.691 190.508 126.681Z" fill="#0026EC"/>
<path opacity="0.2" d="M396.982 63.0342C393.712 52.1621 387.962 42.1804 379.729 33.0546C371.48 23.9288 360.23 16.3954 345.978 10.4373C331.726 4.47892 313.618 1.5 291.654 1.5C274.133 1.5 256.277 3.86264 238.085 8.5882C219.876 13.3308 204.082 20.0766 190.686 28.8428L208.123 76.717L198.777 84.2879L212.331 88.2712C225.711 81.2684 237.9 76.1836 248.899 73.0159C259.881 69.8656 271.551 68.2904 283.925 68.2904C296.282 68.2904 305.638 71.2696 311.992 77.2277C318.347 83.2032 321.515 90.3768 321.515 98.8006C321.515 108.971 318.246 117.994 311.74 125.887C305.201 133.78 297.992 141.758 290.095 149.822C284.612 155.421 279.28 161.208 274.133 167.166C268.986 173.142 264.425 179.528 260.485 186.377C256.528 193.208 253.359 200.57 250.961 208.463C248.547 216.356 247.357 225.208 247.357 235.019C247.357 238.186 247.424 241.953 247.608 246.336C247.639 247.145 247.682 247.933 247.73 248.711H234.916L248.899 258.167H316.888C316.536 256.061 316.368 253.613 316.368 250.804C316.368 247.997 316.368 245.891 316.368 244.487C316.368 238.528 317.575 232.656 319.973 226.869C322.371 221.082 325.389 215.569 328.994 210.295C332.599 205.039 336.623 200.04 341.099 195.314C345.559 190.572 349.852 186.103 353.976 181.891C359.459 176.293 365.126 170.334 370.961 164.016C376.796 157.699 381.96 151.056 386.42 144.036C390.879 137.016 394.568 129.397 397.485 121.145C400.403 112.909 401.878 103.886 401.878 94.0585C401.878 84.2476 400.235 73.9063 396.982 63.0342Z" fill="url(#paint0_linear_1455_6231)"/>
<path d="M269.531 64.9509C257.302 64.9509 245.77 66.4752 234.916 69.5241C224.047 72.5896 212 77.5109 198.777 84.288L177.386 26.774C190.625 18.2903 206.234 11.7618 224.229 7.17177C242.207 2.59853 259.854 0.311768 277.17 0.311768C298.876 0.311768 316.772 3.19493 330.856 8.96125C344.941 14.7276 356.059 22.0182 364.211 30.85C372.347 39.6817 378.03 49.342 381.262 59.8639C384.476 70.3857 386.1 80.394 386.1 89.8885C386.1 99.3996 384.642 108.132 381.759 116.102C378.875 124.089 375.23 131.462 370.823 138.256C366.415 145.05 361.312 151.479 355.545 157.593C349.779 163.707 344.178 169.474 338.76 174.892C334.684 178.968 330.442 183.293 326.034 187.883C321.61 192.456 317.633 197.295 314.071 202.382C310.508 207.485 307.526 212.821 305.156 218.421C302.787 224.022 301.593 229.705 301.593 235.471C301.593 236.83 301.593 238.868 301.593 241.586C301.593 244.303 301.759 246.673 302.107 248.711H234.916C234.221 245.314 233.806 241.503 233.641 237.261C233.458 233.019 233.392 229.374 233.392 226.308C233.392 216.814 234.568 208.247 236.954 200.609C239.324 192.97 242.455 185.845 246.366 179.233C250.26 172.606 254.767 166.425 259.854 160.642C264.941 154.876 270.21 149.275 275.628 143.857C283.433 136.052 290.558 128.331 297.02 120.692C303.449 113.053 306.68 104.321 306.68 94.4786C306.68 86.3261 303.549 79.3835 297.269 73.6007C290.989 67.8341 281.743 64.9509 269.531 64.9509Z" fill="url(#paint1_linear_1455_6231)"/>
<path opacity="0.2" d="M321.541 324.162C321.541 336.419 317.573 345.878 309.636 352.55C301.7 359.236 292.731 362.566 282.715 362.566C272.686 362.566 263.717 359.236 255.781 352.55C247.858 345.878 243.89 336.419 243.89 324.162C243.89 311.917 247.858 302.459 255.781 295.773C267.998 285.464 286.071 283.166 300.374 290.402C313.066 296.823 321.541 309.861 321.541 324.162Z" fill="url(#paint2_linear_1455_6231)"/>
<path d="M308.241 324.162C308.241 336.419 304.273 345.877 296.337 352.55C288.4 359.236 279.431 362.566 269.416 362.566C259.387 362.566 250.417 359.236 242.481 352.55C234.558 345.878 230.59 336.419 230.59 324.162C230.59 311.917 234.558 302.459 242.481 295.773C250.417 289.1 259.386 285.757 269.416 285.757C279.431 285.757 288.4 289.1 296.337 295.773C304.273 302.459 308.241 311.917 308.241 324.162Z" fill="url(#paint3_linear_1455_6231)"/>
<path d="M106.963 150.378C107.708 146.403 105.09 142.577 101.115 141.832C97.1402 141.087 93.3143 143.705 92.5694 147.68C91.8245 151.655 94.4428 155.481 98.4175 156.226C102.392 156.971 106.218 154.352 106.963 150.378Z" fill="#D3DFFF"/>
<path d="M110.466 164.142C110.885 161.906 109.399 159.752 107.148 159.33C104.896 158.908 102.732 160.378 102.313 162.614C101.894 164.85 103.379 167.004 105.631 167.426C107.882 167.848 110.047 166.377 110.466 164.142Z" fill="#D3DFFF"/>
<path d="M102.081 132.556C113.34 121.298 113.34 103.045 102.081 91.7863C90.823 80.528 72.5697 80.528 61.3113 91.7863C50.053 103.045 50.053 121.298 61.3113 132.556C72.5697 143.815 90.823 143.815 102.081 132.556Z" fill="#D3DFFF"/>
<path d="M70.6292 115.804C72.6352 115.804 74.2614 114.178 74.2614 112.172C74.2614 110.166 72.6352 108.54 70.6292 108.54C68.6232 108.54 66.9971 110.166 66.9971 112.172C66.9971 114.178 68.6232 115.804 70.6292 115.804Z" fill="white"/>
<path d="M81.6991 115.804C83.705 115.804 85.3312 114.178 85.3312 112.172C85.3312 110.166 83.705 108.54 81.6991 108.54C79.6931 108.54 78.0669 110.166 78.0669 112.172C78.0669 114.178 79.6931 115.804 81.6991 115.804Z" fill="white"/>
<path d="M92.7684 115.804C94.7744 115.804 96.4005 114.178 96.4005 112.172C96.4005 110.166 94.7744 108.54 92.7684 108.54C90.7624 108.54 89.1362 110.166 89.1362 112.172C89.1362 114.178 90.7624 115.804 92.7684 115.804Z" fill="white"/>
<path d="M61.0465 348.134L63.7401 358.518C64.4427 361.226 67.0609 363.056 69.9578 362.859C78.7899 362.259 97.1405 360.095 107.673 352.332L104.679 337.366C90.1976 336.548 76.6549 337.354 64.9285 341.301C61.9924 342.29 60.2942 345.233 61.0465 348.134Z" fill="#102048"/>
<path d="M77.9249 356.4C77.7717 356.4 77.6312 356.299 77.5878 356.144L73.971 343.194C73.9189 343.008 74.0279 342.815 74.2141 342.763C74.4014 342.711 74.5935 342.82 74.6455 343.006L78.2623 355.956C78.3141 356.142 78.2054 356.335 78.0192 356.387C77.9876 356.396 77.9557 356.4 77.9249 356.4Z" fill="white"/>
<path d="M85.7412 354.65C85.5881 354.65 85.4475 354.549 85.4041 354.394L81.7873 341.444C81.7355 341.258 81.8442 341.065 82.0304 341.013C82.218 340.96 82.4098 341.069 82.4618 341.256L86.0786 354.206C86.1307 354.392 86.0218 354.585 85.8356 354.637C85.8039 354.646 85.7723 354.65 85.7412 354.65Z" fill="white"/>
<path d="M94.8197 292L61.1626 301.989L86.1579 336.237L122.042 339.091L171.537 318.161L152.729 289.859L94.8197 292Z" fill="url(#paint4_linear_1455_6231)"/>
<path d="M136.313 296.756C210.227 274.876 222.105 340.2 106.781 352.092C102.708 347.508 97.9474 339.555 96.0571 332.907L156.958 304.764L136.313 296.756Z" fill="url(#paint5_linear_1455_6231)"/>
<path d="M139.453 343.574C135.996 342.467 132.684 340.28 132.684 340.28L120.805 344.006L123.527 356.928L135.867 359.435C139.626 352.559 139.846 346.914 139.453 343.574Z" fill="#F9B384"/>
<path d="M96.3205 333.361L95.793 332.453C108.498 325.069 141.042 307.33 168.769 302.099L168.963 303.131C141.396 308.332 108.979 326.004 96.3205 333.361Z" fill="url(#paint6_linear_1455_6231)"/>
<path d="M94.8196 292C26.0208 278.919 8.20246 345.037 123.527 356.928C127.6 352.345 130.793 346.928 132.683 340.28C114.969 328.427 95.1618 317.161 73.4539 306.428L94.8196 292Z" fill="url(#paint7_linear_1455_6231)"/>
<path d="M132.401 340.723C129.129 338.64 125.719 336.438 122.108 334.107C103.985 322.405 83.4431 309.142 65.9907 301.58L66.4082 300.616C83.9401 308.213 104.52 321.501 122.678 333.225C126.286 335.555 129.695 337.756 132.965 339.837L132.401 340.723Z" fill="url(#paint8_linear_1455_6231)"/>
<path d="M44.3423 324.783L43.4233 324.275C46.0058 319.6 50.1422 316.446 55.7176 314.902L55.9979 315.914C50.63 317.401 46.8175 320.302 44.3423 324.783Z" fill="url(#paint9_linear_1455_6231)"/>
<path d="M187.935 320.802C185.46 316.322 181.648 313.421 176.28 311.934L176.56 310.922C182.136 312.466 186.272 315.62 188.854 320.295L187.935 320.802Z" fill="url(#paint10_linear_1455_6231)"/>
<path d="M117.084 356.347L116.317 355.631C121.82 349.737 125.2 343.514 126.65 336.608L127.678 336.824C126.188 343.923 122.722 350.309 117.084 356.347Z" fill="url(#paint11_linear_1455_6231)"/>
<path d="M173.765 339.725C164.951 334.279 147.862 343.689 143.573 344.165C142.322 344.303 140.876 344.03 139.453 343.574C139.846 346.914 139.626 352.56 135.867 359.436L137.963 359.861C137.963 359.861 152.454 365.173 167.826 362.081C182.014 359.227 180.694 344.006 173.765 339.725Z" fill="#102048"/>
<path d="M161.75 357.537C161.715 357.537 161.68 357.532 161.644 357.521C161.46 357.463 161.358 357.266 161.416 357.082C162.463 353.766 162.92 347.243 159.887 342.862C159.777 342.703 159.817 342.485 159.975 342.375C160.134 342.264 160.352 342.304 160.462 342.463C163.639 347.051 163.172 353.845 162.083 357.293C162.036 357.442 161.898 357.537 161.75 357.537Z" fill="white"/>
<path d="M154.838 358.85C154.803 358.85 154.767 358.845 154.732 358.834C154.548 358.776 154.446 358.579 154.504 358.395C155.551 355.079 156.008 348.555 152.975 344.174C152.865 344.015 152.905 343.797 153.063 343.688C153.222 343.577 153.44 343.617 153.55 343.776C156.727 348.364 156.26 355.158 155.171 358.605C155.124 358.755 154.986 358.85 154.838 358.85Z" fill="white"/>
<path d="M82.6482 206.75C82.6482 206.75 99.9748 192.017 99.3333 189.217C98.8747 187.216 93.9666 190.15 93.9666 190.15C93.9666 190.15 100.85 181.983 100.5 180.992C99.8743 179.22 95.1137 182.523 95.1137 182.523C95.1137 182.523 98.3315 177.891 96.7932 177.137C95.2549 176.382 91.901 179.236 91.901 179.236C91.901 179.236 93.8605 176.665 92.9398 175.99C92.0192 175.315 88.0477 178.089 88.0477 178.089C88.0477 178.089 89.4729 174.847 86.4452 176.076C83.4176 177.305 62.188 196.788 62.188 196.788L82.6482 206.75Z" fill="#F9B384"/>
<path d="M89.7374 189.275C89.6531 189.275 89.5686 189.245 89.5014 189.184C86.5272 186.466 85.216 185.806 81.9346 184.797C81.7498 184.74 81.6462 184.544 81.7031 184.36C81.7599 184.175 81.9556 184.071 82.1407 184.128C85.5405 185.174 86.8982 185.857 89.974 188.667C90.1168 188.797 90.1266 189.019 89.9964 189.161C89.927 189.237 89.8323 189.275 89.7374 189.275Z" fill="#E28B6D"/>
<path d="M84.5169 197.267C84.5006 197.267 84.4844 197.266 84.4681 197.263C84.2766 197.237 84.1431 197.06 84.1699 196.868C84.5104 194.432 85.2773 192.909 86.5147 192.214C87.5722 191.619 88.9484 191.68 90.6052 192.395C90.7827 192.472 90.8645 192.678 90.7877 192.855C90.7113 193.033 90.5052 193.115 90.3277 193.038C88.8826 192.414 87.7153 192.342 86.8577 192.824C85.8382 193.397 85.167 194.79 84.8632 196.965C84.8386 197.14 84.6888 197.267 84.5169 197.267Z" fill="#E28B6D"/>
<path d="M83.7002 182.537C83.6073 182.537 83.5143 182.5 83.4455 182.427C83.3127 182.287 83.3195 182.065 83.46 181.933L87.8078 177.835C87.9484 177.702 88.1699 177.709 88.3026 177.849C88.4353 177.99 88.4286 178.212 88.288 178.344L83.9402 182.442C83.8727 182.506 83.7865 182.537 83.7002 182.537Z" fill="#E28B6D"/>
<path d="M87.7251 183.937C87.6377 183.937 87.5506 183.905 87.4826 183.84C87.3431 183.706 87.3387 183.484 87.4725 183.345L91.6487 178.994C91.7826 178.854 92.004 178.849 92.1438 178.984C92.2832 179.118 92.2877 179.339 92.1538 179.478L87.9776 183.83C87.9087 183.901 87.8169 183.937 87.7251 183.937Z" fill="#E28B6D"/>
<path d="M91.8372 186.387C91.7518 186.387 91.6662 186.356 91.5987 186.293C91.4573 186.161 91.4494 185.94 91.5813 185.799L94.8579 182.284C94.99 182.143 95.211 182.135 95.3526 182.266C95.494 182.398 95.5019 182.62 95.37 182.761L92.0934 186.276C92.0243 186.35 91.931 186.387 91.8372 186.387Z" fill="#E28B6D"/>
<path d="M148.1 305.298L84.75 307.748L77.75 249.998C77.75 249.998 98.958 229.882 107.118 222.475L120.892 221.768C163.629 241.194 156.631 265.456 148.1 305.298Z" fill="#3A6BEA"/>
<path d="M120.892 221.768C120.892 221.768 169.786 225.95 185.2 259.448C200.283 292.226 138.3 303.898 138.3 303.898L120.892 221.768Z" fill="#3A6BEA"/>
<path d="M65.0031 228.947L85.2076 204.359L66.3138 192.909C58.4323 198.389 43.1914 210.802 30.2753 224.858C27.4243 227.96 25.1975 231.584 24.0758 235.574C23.1188 238.979 22.9449 242.342 23.4828 245.636C24.8847 254.219 31.6366 260.843 40.6496 261.898C48.347 262.8 77.7496 260.498 101.55 253.498L108.55 226.481C104.953 224.44 78.2191 224.086 65.0031 228.947Z" fill="#3A6BEA"/>
<g opacity="0.8">
<path d="M161.695 235.062C161.8 235.038 161.906 235.014 162.011 234.989C161.79 234.859 161.568 234.731 161.347 234.603C157.764 235.428 154.067 236.271 150.422 236.71C148.232 236.974 140.915 237.457 138.776 232.582C137.712 230.156 138.517 227.459 139.721 225.566C139.545 225.515 139.371 225.465 139.196 225.416C137.964 227.421 137.173 230.235 138.296 232.793C140.579 238 148.204 237.507 150.485 237.231C154.235 236.78 158.027 235.907 161.695 235.062Z" fill="white"/>
<path d="M184.513 272.843C182.178 271.941 179.764 271.008 177.227 271.247C172.778 271.667 168.97 276.067 168.739 281.056C168.581 284.457 169.88 288.021 172.358 291.156C172.507 291.063 172.656 290.969 172.804 290.875C170.382 287.829 169.111 284.37 169.263 281.08C169.483 276.343 173.078 272.166 177.277 271.769C179.689 271.546 181.94 272.412 184.324 273.332C185.175 273.661 186.04 273.992 186.918 274.274C186.964 274.105 187.008 273.935 187.049 273.764C186.192 273.489 185.346 273.165 184.513 272.843Z" fill="white"/>
<path d="M61.1035 256.146C58.051 253.622 53.3078 252.947 48.0928 254.295C43.4451 255.497 39.4573 257.879 36.7178 261.03C36.8978 261.088 37.0737 261.154 37.2562 261.207C39.9215 258.217 43.7606 255.958 48.2238 254.804C53.2736 253.497 57.8471 254.135 60.7692 256.551C62.158 257.699 63.14 259.19 63.8537 260.799C64.034 260.779 64.2149 260.758 64.3963 260.737C63.6493 259.006 62.608 257.39 61.1035 256.146Z" fill="white"/>
<path d="M33.5078 221.424C39.2277 220.002 44.8092 218.006 49.9572 215.041C51.9024 213.92 54.099 212.492 55.6438 210.394C57.2871 208.163 57.8331 205.505 57.1045 203.287C56.8186 202.417 56.3127 201.653 55.6802 201.041C55.5463 201.15 55.4111 201.261 55.2764 201.372C55.8669 201.934 56.3401 202.642 56.6056 203.451C57.2812 205.508 56.7638 207.988 55.2212 210.083C53.7342 212.102 51.5936 213.493 49.6954 214.586C44.8397 217.383 39.5874 219.317 34.1924 220.715C33.9636 220.95 33.7357 221.187 33.5078 221.424Z" fill="white"/>
</g>
<path d="M125.367 208.929L125.358 209.825L125.216 223.749L125.198 225.258C125.171 227.619 124.204 229.758 122.642 231.31C121.089 232.855 118.95 233.822 116.581 233.84C111.806 233.866 107.901 230.032 107.857 225.249L107.688 208.041L125.367 208.929Z" fill="#F9B384"/>
<path d="M125.358 209.825L125.216 223.75C117.477 220.599 114.291 212.221 114.291 212.221L125.358 209.825Z" fill="#102048"/>
<path d="M128.419 185.526C131.193 188.854 139.291 207.713 131.082 214.147C121.844 221.388 107.786 209.488 107.786 209.488L105.9 187.523L118.103 184.306L128.419 185.526Z" fill="#F9B384"/>
<path d="M99.6831 184.316C99.6831 184.316 72.6163 198.433 94.6859 239.126C97.5203 244.352 103.799 246.633 109.17 244.083C114.931 241.348 117.113 234.309 113.984 228.751C110.374 222.338 106.89 214.08 108.377 207.935L99.6831 184.316Z" fill="#102048"/>
<path d="M107.413 196.175C110.272 193.316 110.272 188.68 107.413 185.821C104.554 182.962 99.9178 182.962 97.0585 185.821C94.1993 188.68 94.1993 193.316 97.0585 196.175C99.9178 199.035 104.554 199.035 107.413 196.175Z" fill="url(#paint12_linear_1455_6231)"/>
<path d="M111.246 199.796C110.455 195.228 109.973 192.096 114.59 189.742C114.59 189.742 130.86 192.7 133.966 186.562C137.072 180.423 132.339 170.735 122.429 177.465C97.0621 172.51 93.6601 196.25 101.351 204.163L108.943 202.998C110.47 202.764 111.51 201.319 111.246 199.796Z" fill="#102048"/>
<path d="M123.843 200.891C124.441 200.891 124.925 200.407 124.925 199.809C124.925 199.212 124.441 198.728 123.843 198.728C123.246 198.728 122.762 199.212 122.762 199.809C122.762 200.407 123.246 200.891 123.843 200.891Z" fill="#102048"/>
<path d="M131.165 197.285C131.763 197.285 132.247 196.801 132.247 196.203C132.247 195.606 131.763 195.122 131.165 195.122C130.568 195.122 130.083 195.606 130.083 196.203C130.083 196.801 130.568 197.285 131.165 197.285Z" fill="#102048"/>
<path d="M130.417 203.138C130.341 203.138 130.265 203.11 130.206 203.054C130.083 202.937 130.078 202.743 130.195 202.621C130.628 202.164 131.104 201.522 130.904 201.057C130.697 200.573 129.82 200.365 129.418 200.365C128.555 200.365 128.141 198.829 128.067 198.522C128.027 198.357 128.128 198.192 128.292 198.152C128.457 198.111 128.622 198.213 128.662 198.378C128.82 199.027 129.176 199.752 129.418 199.752C129.831 199.752 131.094 199.947 131.467 200.815C131.733 201.435 131.454 202.184 130.639 203.043C130.578 203.106 130.497 203.138 130.417 203.138Z" fill="#102048"/>
<path d="M130.471 207.242C130.412 207.242 130.353 207.225 130.3 207.19C128.264 205.816 126.207 206.968 126.187 206.98C126.041 207.064 125.853 207.014 125.768 206.867C125.684 206.721 125.734 206.533 125.881 206.449C125.979 206.393 128.293 205.096 130.643 206.682C130.783 206.777 130.82 206.968 130.725 207.108C130.666 207.195 130.57 207.242 130.471 207.242Z" fill="#102048"/>
<path d="M123.369 195.124C123.985 196.282 122.913 196.515 121.656 197.182C120.4 197.85 119.114 198.094 118.82 197.542C118.527 196.989 119.307 196 120.563 195.333C121.82 194.665 122.893 194.228 123.369 195.124Z" fill="#102048"/>
<path d="M127.951 193.034C128.222 194.068 128.993 193.615 130.114 193.322C131.235 193.028 132.141 192.464 132.012 191.972C131.883 191.479 130.869 191.317 129.748 191.61C128.627 191.903 127.742 192.234 127.951 193.034Z" fill="#102048"/>
<path opacity="0.4" d="M121.025 207.2C122.32 206.006 122.401 203.988 121.207 202.693C120.013 201.398 117.995 201.316 116.7 202.511C115.405 203.705 115.324 205.723 116.518 207.018C117.712 208.313 119.73 208.394 121.025 207.2Z" fill="#EB5D60"/>
<path d="M110.626 207.849C112.083 205.961 111.525 203.087 109.378 201.431C107.232 199.775 104.311 199.963 102.854 201.852C101.396 203.741 101.955 206.614 104.101 208.271C106.247 209.927 109.168 209.738 110.626 207.849Z" fill="#F9B384"/>
<path d="M108.638 206.469C108.468 206.469 108.331 206.332 108.331 206.162C108.331 205.258 107.891 204.423 107.152 203.927C106.521 203.502 105.769 203.403 105.14 203.659C104.983 203.722 104.804 203.648 104.741 203.491C104.677 203.334 104.752 203.156 104.909 203.091C105.726 202.758 106.693 202.88 107.494 203.418C108.402 204.028 108.944 205.054 108.944 206.162C108.944 206.332 108.807 206.469 108.638 206.469Z" fill="#102048"/>
<path d="M64.7417 228.699L53.6904 240.654L54.2044 241.129L65.2557 229.174L64.7417 228.699Z" fill="#102048"/>
<path d="M142.602 280.085L142.397 279.415C150.443 276.963 158.251 274.03 165.326 265.181L165.873 265.618C158.672 274.623 150.756 277.6 142.602 280.085Z" fill="#102048"/>
<path d="M147.493 252.977H79.0561C76.5949 252.977 74.5996 255.136 74.5996 257.798V306.66C74.5996 309.323 76.5949 311.481 79.0561 311.481H147.493C149.955 311.481 151.95 309.323 151.95 306.66V257.798C151.95 255.136 149.954 252.977 147.493 252.977Z" fill="#D3DFFF"/>
<path d="M116.888 279.141C117.147 279.141 117.358 279.369 117.358 279.65V284.809C117.358 285.09 117.147 285.318 116.888 285.318H109.662C109.402 285.318 109.192 285.09 109.192 284.809V279.65C109.192 279.369 109.402 279.141 109.662 279.141H116.888ZM116.888 277.741H109.662C108.631 277.741 107.792 278.597 107.792 279.65V284.809C107.792 285.862 108.631 286.718 109.662 286.718H116.888C117.919 286.718 118.758 285.862 118.758 284.809V279.65C118.758 278.597 117.919 277.741 116.888 277.741Z" fill="#1F3C88"/>
<path d="M413.102 361.998H0.473145V363.398H413.102V361.998Z" fill="#102048"/>
<defs>
<linearGradient id="paint0_linear_1455_6231" x1="179.15" y1="128.25" x2="432.08" y2="128.25" gradientUnits="userSpaceOnUse">
<stop stop-color="#0026EC"/>
<stop offset="1" stop-color="#1BFFFF"/>
</linearGradient>
<linearGradient id="paint1_linear_1455_6231" x1="165.986" y1="122.979" x2="415.947" y2="122.979" gradientUnits="userSpaceOnUse">
<stop stop-color="#0026EC"/>
<stop offset="1" stop-color="#1BFFFF"/>
</linearGradient>
<linearGradient id="paint2_linear_1455_6231" x1="239.649" y1="323.91" x2="332.645" y2="323.91" gradientUnits="userSpaceOnUse">
<stop stop-color="#0026EC"/>
<stop offset="1" stop-color="#1BFFFF"/>
</linearGradient>
<linearGradient id="paint3_linear_1455_6231" x1="226.349" y1="323.688" x2="319.345" y2="323.688" gradientUnits="userSpaceOnUse">
<stop stop-color="#0026EC"/>
<stop offset="1" stop-color="#1BFFFF"/>
</linearGradient>
<linearGradient id="paint4_linear_1455_6231" x1="55.1341" y1="314.171" x2="187.321" y2="314.171" gradientUnits="userSpaceOnUse">
<stop stop-color="#0026EC"/>
<stop offset="1" stop-color="#1BFFFF"/>
</linearGradient>
<linearGradient id="paint5_linear_1455_6231" x1="90.7805" y1="321.831" x2="206.482" y2="321.831" gradientUnits="userSpaceOnUse">
<stop stop-color="#0026EC"/>
<stop offset="1" stop-color="#1BFFFF"/>
</linearGradient>
<linearGradient id="paint6_linear_1455_6231" x1="91.7965" y1="317.537" x2="179.427" y2="317.537" gradientUnits="userSpaceOnUse">
<stop stop-color="#0026EC"/>
<stop offset="1" stop-color="#1BFFFF"/>
</linearGradient>
<linearGradient id="paint7_linear_1455_6231" x1="35.0078" y1="323.201" x2="145.928" y2="323.201" gradientUnits="userSpaceOnUse">
<stop stop-color="#0026EC"/>
<stop offset="1" stop-color="#1BFFFF"/>
</linearGradient>
<linearGradient id="paint8_linear_1455_6231" x1="62.3327" y1="320.422" x2="142.543" y2="320.422" gradientUnits="userSpaceOnUse">
<stop stop-color="#0026EC"/>
<stop offset="1" stop-color="#1BFFFF"/>
</linearGradient>
<linearGradient id="paint9_linear_1455_6231" x1="42.7365" y1="319.782" x2="57.7961" y2="319.782" gradientUnits="userSpaceOnUse">
<stop stop-color="#0026EC"/>
<stop offset="1" stop-color="#1BFFFF"/>
</linearGradient>
<linearGradient id="paint10_linear_1455_6231" x1="175.593" y1="315.801" x2="190.653" y2="315.801" gradientUnits="userSpaceOnUse">
<stop stop-color="#0026EC"/>
<stop offset="1" stop-color="#1BFFFF"/>
</linearGradient>
<linearGradient id="paint11_linear_1455_6231" x1="115.696" y1="346.356" x2="129.303" y2="346.356" gradientUnits="userSpaceOnUse">
<stop stop-color="#0026EC"/>
<stop offset="1" stop-color="#1BFFFF"/>
</linearGradient>
<linearGradient id="paint12_linear_1455_6231" x1="96.4291" y1="196.677" x2="108.83" y2="184.276" gradientUnits="userSpaceOnUse">
<stop stop-color="#0026EC"/>
<stop offset="1" stop-color="#1BFFFF"/>
</linearGradient>
</defs>
</svg>
