<svg width="963" height="1101" viewBox="0 0 963 1101" fill="none" xmlns="http://www.w3.org/2000/svg">
<path fill-rule="evenodd" clip-rule="evenodd" d="M322.627 767.528L340.375 816.893C373.833 821.641 405.681 822.526 438.818 816.893L456.566 767.528L472.47 723.293C446.434 724.14 418.567 724.598 389.597 724.598C360.627 724.598 332.759 724.138 306.723 723.293L322.627 767.528Z" fill="url(#paint0_linear_804_6045)"/>
<path fill-rule="evenodd" clip-rule="evenodd" d="M389.597 726.387C435.241 726.387 472.471 724.997 472.471 723.291C472.471 721.586 435.243 720.195 389.597 720.195C343.953 720.195 306.724 721.586 306.724 723.291C306.723 724.997 343.951 726.387 389.597 726.387Z" fill="#3C3F45"/>
<path fill-rule="evenodd" clip-rule="evenodd" d="M289.671 673.845L306.723 721.273C361.838 723.292 417.287 723.292 472.47 721.273L489.521 673.845L506.306 627.162C471.191 628.872 431.55 629.834 389.597 629.834C347.644 629.834 308.003 628.872 272.888 627.162L289.671 673.845Z" fill="url(#paint1_linear_804_6045)"/>
<path fill-rule="evenodd" clip-rule="evenodd" d="M389.597 632.201C453.878 632.201 506.306 629.938 506.306 627.163C506.306 624.388 453.878 622.124 389.597 622.124C325.316 622.124 272.888 624.388 272.888 627.163C272.888 629.938 325.316 632.201 389.597 632.201Z" fill="#3C3F45"/>
<path fill-rule="evenodd" clip-rule="evenodd" d="M256.9 580.679L272.888 625.148C308.003 626.857 347.644 627.82 389.597 627.82C431.551 627.82 471.192 626.858 506.306 625.148L522.294 580.679L540.367 530.416C497.796 533.35 445.771 535.075 389.599 535.075C333.426 535.075 281.4 533.35 238.83 530.416L256.9 580.679Z" fill="url(#paint2_linear_804_6045)"/>
<path fill-rule="evenodd" clip-rule="evenodd" d="M389.597 538.221C472.638 538.221 540.367 534.714 540.367 530.413C540.367 526.112 472.638 522.605 389.597 522.605C306.557 522.605 238.83 526.112 238.83 530.413C238.828 534.714 306.557 538.221 389.597 538.221Z" fill="#3C3F45"/>
<path fill-rule="evenodd" clip-rule="evenodd" d="M224.351 488.128L238.828 528.396C281.398 531.33 333.423 533.055 389.597 533.055C445.77 533.055 497.796 531.33 540.365 528.396L554.843 488.128L574.727 432.821C527.474 437.445 461.979 440.309 389.597 440.309C317.214 440.309 251.72 437.446 204.466 432.821L224.351 488.128Z" fill="url(#paint3_linear_804_6045)"/>
<path d="M389.597 442.626C491.842 442.626 574.727 438.236 574.727 432.82C574.727 427.404 491.842 423.014 389.597 423.014C287.353 423.014 204.467 427.404 204.467 432.82C204.467 438.236 287.353 442.626 389.597 442.626Z" fill="#3C3F45"/>
<path fill-rule="evenodd" clip-rule="evenodd" d="M192.104 395.407L204.466 429.793C251.718 434.416 317.214 437.281 389.597 437.281C461.978 437.281 527.474 434.418 574.727 429.793L587.09 395.407L609.593 332.817C563.275 339.864 482.055 344.536 389.597 344.536C297.139 344.536 215.917 339.862 169.601 332.817L192.104 395.407Z" fill="url(#paint4_linear_804_6045)"/>
<path fill-rule="evenodd" clip-rule="evenodd" d="M389.597 346.633C510.767 346.633 609.593 340.426 609.593 332.818C609.593 325.209 510.766 319.002 389.597 319.002C268.428 319.002 169.601 325.207 169.601 332.818C169.6 340.426 268.427 346.633 389.597 346.633Z" fill="#3C3F45"/>
<path d="M389.798 250.413C528.369 250.413 640.703 244.097 640.703 236.305C640.703 228.514 528.369 222.198 389.798 222.198C251.226 222.198 138.892 228.514 138.892 236.305C138.892 244.097 251.226 250.413 389.798 250.413Z" fill="#FBBA2A"/>
<path d="M389.973 245.584C525.199 245.584 634.822 241.112 634.822 235.596C634.822 230.08 525.199 225.608 389.973 225.608C254.746 225.608 145.124 230.08 145.124 235.596C145.124 241.112 254.746 245.584 389.973 245.584Z" fill="#8B641F"/>
<mask id="mask0_804_6045" style="mask-type:luminance" maskUnits="userSpaceOnUse" x="145" y="225" width="490" height="21">
<path d="M389.973 245.584C525.199 245.584 634.822 241.112 634.822 235.596C634.822 230.08 525.199 225.608 389.973 225.608C254.746 225.608 145.124 230.08 145.124 235.596C145.124 241.112 254.746 245.584 389.973 245.584Z" fill="white"/>
</mask>
<g mask="url(#mask0_804_6045)">
<path fill-rule="evenodd" clip-rule="evenodd" d="M389.598 247.545C524.455 247.545 634.447 243.059 634.447 237.558C634.447 232.057 524.455 227.57 389.598 227.57C254.74 227.57 144.749 232.057 144.749 237.558C144.747 243.059 254.738 247.545 389.598 247.545Z" fill="url(#paint5_radial_804_6045)"/>
</g>
<path fill-rule="evenodd" clip-rule="evenodd" d="M169.6 328.78C215.916 336.433 297.139 341.507 389.596 341.507C482.054 341.507 563.276 336.433 609.592 328.78L618.832 300.866L640.301 236.014C634.991 244.02 524.778 250.414 389.596 250.414C254.414 250.414 144.2 244.02 138.891 236.014L160.359 300.866L169.6 328.78Z" fill="url(#paint6_linear_804_6045)"/>
<path d="M294.131 303.55V289.55H296.771V303.55H294.131ZM299.484 303.55V293.63H301.964V294.93H302.324C302.484 294.583 302.784 294.256 303.224 293.95C303.664 293.63 304.331 293.47 305.224 293.47C305.997 293.47 306.671 293.65 307.244 294.01C307.831 294.356 308.284 294.843 308.604 295.47C308.924 296.083 309.084 296.803 309.084 297.63V303.55H306.564V297.83C306.564 297.083 306.377 296.523 306.004 296.15C305.644 295.776 305.124 295.59 304.444 295.59C303.671 295.59 303.071 295.85 302.644 296.37C302.217 296.876 302.004 297.59 302.004 298.51V303.55H299.484ZM313.615 303.55L310.455 293.63H313.135L315.435 301.71H315.795L318.095 293.63H320.775L317.615 303.55H313.615ZM326.719 303.83C325.732 303.83 324.859 303.623 324.099 303.21C323.352 302.783 322.766 302.19 322.339 301.43C321.926 300.656 321.719 299.75 321.719 298.71V298.47C321.719 297.43 321.926 296.53 322.339 295.77C322.752 294.996 323.332 294.403 324.079 293.99C324.826 293.563 325.692 293.35 326.679 293.35C327.652 293.35 328.499 293.57 329.219 294.01C329.939 294.436 330.499 295.036 330.899 295.81C331.299 296.57 331.499 297.456 331.499 298.47V299.33H324.279C324.306 300.01 324.559 300.563 325.039 300.99C325.519 301.416 326.106 301.63 326.799 301.63C327.506 301.63 328.026 301.476 328.359 301.17C328.692 300.863 328.946 300.523 329.119 300.15L331.179 301.23C330.992 301.576 330.719 301.956 330.359 302.37C330.012 302.77 329.546 303.116 328.959 303.41C328.372 303.69 327.626 303.83 326.719 303.83ZM324.299 297.45H328.939C328.886 296.876 328.652 296.416 328.239 296.07C327.839 295.723 327.312 295.55 326.659 295.55C325.979 295.55 325.439 295.723 325.039 296.07C324.639 296.416 324.392 296.876 324.299 297.45ZM337.862 303.83C336.569 303.83 335.509 303.55 334.682 302.99C333.855 302.43 333.355 301.63 333.182 300.59L335.502 299.99C335.595 300.456 335.749 300.823 335.962 301.09C336.189 301.356 336.462 301.55 336.782 301.67C337.115 301.776 337.475 301.83 337.862 301.83C338.449 301.83 338.882 301.73 339.162 301.53C339.442 301.316 339.582 301.056 339.582 300.75C339.582 300.443 339.449 300.21 339.182 300.05C338.915 299.876 338.489 299.736 337.902 299.63L337.342 299.53C336.649 299.396 336.015 299.216 335.442 298.99C334.869 298.75 334.409 298.423 334.062 298.01C333.715 297.596 333.542 297.063 333.542 296.41C333.542 295.423 333.902 294.67 334.622 294.15C335.342 293.616 336.289 293.35 337.462 293.35C338.569 293.35 339.489 293.596 340.222 294.09C340.955 294.583 341.435 295.23 341.662 296.03L339.322 296.75C339.215 296.243 338.995 295.883 338.662 295.67C338.342 295.456 337.942 295.35 337.462 295.35C336.982 295.35 336.615 295.436 336.362 295.61C336.109 295.77 335.982 295.996 335.982 296.29C335.982 296.61 336.115 296.85 336.382 297.01C336.649 297.156 337.009 297.27 337.462 297.35L338.022 297.45C338.769 297.583 339.442 297.763 340.042 297.99C340.655 298.203 341.135 298.516 341.482 298.93C341.842 299.33 342.022 299.876 342.022 300.57C342.022 301.61 341.642 302.416 340.882 302.99C340.135 303.55 339.129 303.83 337.862 303.83ZM347.835 303.55C347.182 303.55 346.648 303.35 346.235 302.95C345.835 302.536 345.635 301.99 345.635 301.31V295.71H343.155V293.63H345.635V290.55H348.155V293.63H350.875V295.71H348.155V300.87C348.155 301.27 348.342 301.47 348.715 301.47H350.635V303.55H347.835ZM353.156 303.55V293.63H355.636V294.71H355.996C356.169 294.376 356.456 294.09 356.856 293.85C357.256 293.596 357.783 293.47 358.436 293.47C359.143 293.47 359.709 293.61 360.136 293.89C360.563 294.156 360.889 294.51 361.116 294.95H361.476C361.703 294.523 362.023 294.17 362.436 293.89C362.849 293.61 363.436 293.47 364.196 293.47C364.809 293.47 365.363 293.603 365.856 293.87C366.363 294.123 366.763 294.516 367.056 295.05C367.363 295.57 367.516 296.23 367.516 297.03V303.55H364.996V297.21C364.996 296.663 364.856 296.256 364.576 295.99C364.296 295.71 363.903 295.57 363.396 295.57C362.823 295.57 362.376 295.756 362.056 296.13C361.749 296.49 361.596 297.01 361.596 297.69V303.55H359.076V297.21C359.076 296.663 358.936 296.256 358.656 295.99C358.376 295.71 357.983 295.57 357.476 295.57C356.903 295.57 356.456 295.756 356.136 296.13C355.829 296.49 355.676 297.01 355.676 297.69V303.55H353.156ZM374.746 303.83C373.76 303.83 372.886 303.623 372.126 303.21C371.38 302.783 370.793 302.19 370.366 301.43C369.953 300.656 369.746 299.75 369.746 298.71V298.47C369.746 297.43 369.953 296.53 370.366 295.77C370.78 294.996 371.36 294.403 372.106 293.99C372.853 293.563 373.72 293.35 374.706 293.35C375.68 293.35 376.526 293.57 377.246 294.01C377.966 294.436 378.526 295.036 378.926 295.81C379.326 296.57 379.526 297.456 379.526 298.47V299.33H372.306C372.333 300.01 372.586 300.563 373.066 300.99C373.546 301.416 374.133 301.63 374.826 301.63C375.533 301.63 376.053 301.476 376.386 301.17C376.72 300.863 376.973 300.523 377.146 300.15L379.206 301.23C379.02 301.576 378.746 301.956 378.386 302.37C378.04 302.77 377.573 303.116 376.986 303.41C376.4 303.69 375.653 303.83 374.746 303.83ZM372.326 297.45H376.966C376.913 296.876 376.68 296.416 376.266 296.07C375.866 295.723 375.34 295.55 374.686 295.55C374.006 295.55 373.466 295.723 373.066 296.07C372.666 296.416 372.42 296.876 372.326 297.45ZM381.769 303.55V293.63H384.249V294.93H384.609C384.769 294.583 385.069 294.256 385.509 293.95C385.949 293.63 386.616 293.47 387.509 293.47C388.283 293.47 388.956 293.65 389.529 294.01C390.116 294.356 390.569 294.843 390.889 295.47C391.209 296.083 391.369 296.803 391.369 297.63V303.55H388.849V297.83C388.849 297.083 388.663 296.523 388.289 296.15C387.929 295.776 387.409 295.59 386.729 295.59C385.956 295.59 385.356 295.85 384.929 296.37C384.503 296.876 384.289 297.59 384.289 298.51V303.55H381.769ZM397.62 303.55C396.967 303.55 396.433 303.35 396.02 302.95C395.62 302.536 395.42 301.99 395.42 301.31V295.71H392.94V293.63H395.42V290.55H397.94V293.63H400.66V295.71H397.94V300.87C397.94 301.27 398.127 301.47 398.5 301.47H400.42V303.55H397.62ZM413.339 303.83C412.193 303.83 411.206 303.623 410.379 303.21C409.566 302.783 408.939 302.183 408.499 301.41C408.073 300.623 407.859 299.696 407.859 298.63V289.55H410.499V298.71C410.499 299.563 410.739 300.236 411.219 300.73C411.713 301.223 412.419 301.47 413.339 301.47C414.259 301.47 414.959 301.223 415.439 300.73C415.933 300.236 416.179 299.563 416.179 298.71V289.55H418.819V298.63C418.819 299.696 418.599 300.623 418.159 301.41C417.733 302.183 417.106 302.783 416.279 303.21C415.466 303.623 414.486 303.83 413.339 303.83ZM421.457 303.55V293.63H423.937V294.93H424.297C424.457 294.583 424.757 294.256 425.197 293.95C425.637 293.63 426.303 293.47 427.197 293.47C427.97 293.47 428.643 293.65 429.217 294.01C429.803 294.356 430.257 294.843 430.577 295.47C430.897 296.083 431.057 296.803 431.057 297.63V303.55H428.537V297.83C428.537 297.083 428.35 296.523 427.977 296.15C427.617 295.776 427.097 295.59 426.417 295.59C425.643 295.59 425.043 295.85 424.617 296.37C424.19 296.876 423.977 297.59 423.977 298.51V303.55H421.457ZM433.781 303.55V293.63H436.301V303.55H433.781ZM435.041 292.47C434.588 292.47 434.201 292.323 433.881 292.03C433.574 291.736 433.421 291.35 433.421 290.87C433.421 290.39 433.574 290.003 433.881 289.71C434.201 289.416 434.588 289.27 435.041 289.27C435.508 289.27 435.894 289.416 436.201 289.71C436.508 290.003 436.661 290.39 436.661 290.87C436.661 291.35 436.508 291.736 436.201 292.03C435.894 292.323 435.508 292.47 435.041 292.47ZM441.173 303.55L438.013 293.63H440.693L442.993 301.71H443.353L445.653 293.63H448.333L445.173 303.55H441.173ZM454.278 303.83C453.291 303.83 452.418 303.623 451.658 303.21C450.911 302.783 450.324 302.19 449.898 301.43C449.484 300.656 449.278 299.75 449.278 298.71V298.47C449.278 297.43 449.484 296.53 449.898 295.77C450.311 294.996 450.891 294.403 451.638 293.99C452.384 293.563 453.251 293.35 454.238 293.35C455.211 293.35 456.058 293.57 456.778 294.01C457.498 294.436 458.058 295.036 458.458 295.81C458.858 296.57 459.058 297.456 459.058 298.47V299.33H451.838C451.864 300.01 452.118 300.563 452.598 300.99C453.078 301.416 453.664 301.63 454.358 301.63C455.064 301.63 455.584 301.476 455.918 301.17C456.251 300.863 456.504 300.523 456.678 300.15L458.738 301.23C458.551 301.576 458.278 301.956 457.918 302.37C457.571 302.77 457.104 303.116 456.518 303.41C455.931 303.69 455.184 303.83 454.278 303.83ZM451.858 297.45H456.498C456.444 296.876 456.211 296.416 455.798 296.07C455.398 295.723 454.871 295.55 454.218 295.55C453.538 295.55 452.998 295.723 452.598 296.07C452.198 296.416 451.951 296.876 451.858 297.45ZM461.3 303.55V293.63H463.78V294.75H464.14C464.287 294.35 464.527 294.056 464.86 293.87C465.207 293.683 465.607 293.59 466.06 293.59H467.26V295.83H466.02C465.38 295.83 464.854 296.003 464.44 296.35C464.027 296.683 463.82 297.203 463.82 297.91V303.55H461.3ZM473.116 303.83C471.822 303.83 470.762 303.55 469.936 302.99C469.109 302.43 468.609 301.63 468.436 300.59L470.756 299.99C470.849 300.456 471.002 300.823 471.216 301.09C471.442 301.356 471.716 301.55 472.036 301.67C472.369 301.776 472.729 301.83 473.116 301.83C473.702 301.83 474.136 301.73 474.416 301.53C474.696 301.316 474.836 301.056 474.836 300.75C474.836 300.443 474.702 300.21 474.436 300.05C474.169 299.876 473.742 299.736 473.156 299.63L472.596 299.53C471.902 299.396 471.269 299.216 470.696 298.99C470.122 298.75 469.662 298.423 469.316 298.01C468.969 297.596 468.796 297.063 468.796 296.41C468.796 295.423 469.156 294.67 469.876 294.15C470.596 293.616 471.542 293.35 472.716 293.35C473.822 293.35 474.742 293.596 475.476 294.09C476.209 294.583 476.689 295.23 476.916 296.03L474.576 296.75C474.469 296.243 474.249 295.883 473.916 295.67C473.596 295.456 473.196 295.35 472.716 295.35C472.236 295.35 471.869 295.436 471.616 295.61C471.362 295.77 471.236 295.996 471.236 296.29C471.236 296.61 471.369 296.85 471.636 297.01C471.902 297.156 472.262 297.27 472.716 297.35L473.276 297.45C474.022 297.583 474.696 297.763 475.296 297.99C475.909 298.203 476.389 298.516 476.736 298.93C477.096 299.33 477.276 299.876 477.276 300.57C477.276 301.61 476.896 302.416 476.136 302.99C475.389 303.55 474.382 303.83 473.116 303.83ZM484.004 303.83C483.017 303.83 482.144 303.623 481.384 303.21C480.637 302.783 480.051 302.19 479.624 301.43C479.211 300.656 479.004 299.75 479.004 298.71V298.47C479.004 297.43 479.211 296.53 479.624 295.77C480.037 294.996 480.617 294.403 481.364 293.99C482.111 293.563 482.977 293.35 483.964 293.35C484.937 293.35 485.784 293.57 486.504 294.01C487.224 294.436 487.784 295.036 488.184 295.81C488.584 296.57 488.784 297.456 488.784 298.47V299.33H481.564C481.591 300.01 481.844 300.563 482.324 300.99C482.804 301.416 483.391 301.63 484.084 301.63C484.791 301.63 485.311 301.476 485.644 301.17C485.977 300.863 486.231 300.523 486.404 300.15L488.464 301.23C488.277 301.576 488.004 301.956 487.644 302.37C487.297 302.77 486.831 303.116 486.244 303.41C485.657 303.69 484.911 303.83 484.004 303.83ZM481.584 297.45H486.224C486.171 296.876 485.937 296.416 485.524 296.07C485.124 295.723 484.597 295.55 483.944 295.55C483.264 295.55 482.724 295.723 482.324 296.07C481.924 296.416 481.677 296.876 481.584 297.45Z" fill="white"/>
<path d="M316.338 395.55V381.55H318.978V395.55H316.338ZM325.691 395.83C324.904 395.83 324.164 395.636 323.471 395.25C322.791 394.85 322.244 394.27 321.831 393.51C321.418 392.75 321.211 391.83 321.211 390.75V390.43C321.211 389.35 321.418 388.43 321.831 387.67C322.244 386.91 322.791 386.336 323.471 385.95C324.151 385.55 324.891 385.35 325.691 385.35C326.291 385.35 326.791 385.423 327.191 385.57C327.604 385.703 327.938 385.876 328.191 386.09C328.444 386.303 328.638 386.53 328.771 386.77H329.131V381.55H331.651V395.55H329.171V394.35H328.811C328.584 394.723 328.231 395.063 327.751 395.37C327.284 395.676 326.598 395.83 325.691 395.83ZM326.451 393.63C327.224 393.63 327.871 393.383 328.391 392.89C328.911 392.383 329.171 391.65 329.171 390.69V390.49C329.171 389.53 328.911 388.803 328.391 388.31C327.884 387.803 327.238 387.55 326.451 387.55C325.678 387.55 325.031 387.803 324.511 388.31C323.991 388.803 323.731 389.53 323.731 390.49V390.69C323.731 391.65 323.991 392.383 324.511 392.89C325.031 393.383 325.678 393.63 326.451 393.63ZM338.965 395.83C337.978 395.83 337.105 395.623 336.345 395.21C335.598 394.783 335.012 394.19 334.585 393.43C334.172 392.656 333.965 391.75 333.965 390.71V390.47C333.965 389.43 334.172 388.53 334.585 387.77C334.998 386.996 335.578 386.403 336.325 385.99C337.072 385.563 337.938 385.35 338.925 385.35C339.898 385.35 340.745 385.57 341.465 386.01C342.185 386.436 342.745 387.036 343.145 387.81C343.545 388.57 343.745 389.456 343.745 390.47V391.33H336.525C336.552 392.01 336.805 392.563 337.285 392.99C337.765 393.416 338.352 393.63 339.045 393.63C339.752 393.63 340.272 393.476 340.605 393.17C340.938 392.863 341.192 392.523 341.365 392.15L343.425 393.23C343.238 393.576 342.965 393.956 342.605 394.37C342.258 394.77 341.792 395.116 341.205 395.41C340.618 395.69 339.872 395.83 338.965 395.83ZM336.545 389.45H341.185C341.132 388.876 340.898 388.416 340.485 388.07C340.085 387.723 339.558 387.55 338.905 387.55C338.225 387.55 337.685 387.723 337.285 388.07C336.885 388.416 336.638 388.876 336.545 389.45ZM349.068 395.83C348.361 395.83 347.728 395.71 347.168 395.47C346.608 395.216 346.161 394.856 345.828 394.39C345.508 393.91 345.348 393.33 345.348 392.65C345.348 391.97 345.508 391.403 345.828 390.95C346.161 390.483 346.615 390.136 347.188 389.91C347.775 389.67 348.441 389.55 349.188 389.55H351.908V388.99C351.908 388.523 351.761 388.143 351.468 387.85C351.175 387.543 350.708 387.39 350.068 387.39C349.441 387.39 348.975 387.536 348.668 387.83C348.361 388.11 348.161 388.476 348.068 388.93L345.748 388.15C345.908 387.643 346.161 387.183 346.508 386.77C346.868 386.343 347.341 386.003 347.928 385.75C348.528 385.483 349.255 385.35 350.108 385.35C351.415 385.35 352.448 385.676 353.208 386.33C353.968 386.983 354.348 387.93 354.348 389.17V392.87C354.348 393.27 354.535 393.47 354.908 393.47H355.708V395.55H354.028C353.535 395.55 353.128 395.43 352.808 395.19C352.488 394.95 352.328 394.63 352.328 394.23V394.21H351.948C351.895 394.37 351.775 394.583 351.588 394.85C351.401 395.103 351.108 395.33 350.708 395.53C350.308 395.73 349.761 395.83 349.068 395.83ZM349.508 393.79C350.215 393.79 350.788 393.596 351.228 393.21C351.681 392.81 351.908 392.283 351.908 391.63V391.43H349.368C348.901 391.43 348.535 391.53 348.268 391.73C348.001 391.93 347.868 392.21 347.868 392.57C347.868 392.93 348.008 393.223 348.288 393.45C348.568 393.676 348.975 393.79 349.508 393.79ZM367.389 395.83C366.429 395.83 365.555 395.616 364.769 395.19C363.995 394.75 363.375 394.116 362.909 393.29C362.455 392.45 362.229 391.43 362.229 390.23V386.87C362.229 385.07 362.735 383.69 363.749 382.73C364.762 381.756 366.135 381.27 367.869 381.27C369.589 381.27 370.915 381.73 371.849 382.65C372.795 383.556 373.269 384.79 373.269 386.35V386.43H370.669V386.27C370.669 385.776 370.562 385.33 370.349 384.93C370.149 384.53 369.842 384.216 369.429 383.99C369.015 383.75 368.495 383.63 367.869 383.63C366.935 383.63 366.202 383.916 365.669 384.49C365.135 385.063 364.869 385.843 364.869 386.83V390.27C364.869 391.243 365.135 392.03 365.669 392.63C366.202 393.216 366.949 393.51 367.909 393.51C368.869 393.51 369.569 393.256 370.009 392.75C370.449 392.243 370.669 391.603 370.669 390.83V390.63H367.349V388.39H373.269V395.55H370.829V394.21H370.469C370.375 394.436 370.222 394.676 370.009 394.93C369.809 395.183 369.502 395.396 369.089 395.57C368.675 395.743 368.109 395.83 367.389 395.83ZM380.391 395.83C379.404 395.83 378.531 395.623 377.771 395.21C377.024 394.783 376.437 394.19 376.011 393.43C375.597 392.656 375.391 391.75 375.391 390.71V390.47C375.391 389.43 375.597 388.53 376.011 387.77C376.424 386.996 377.004 386.403 377.751 385.99C378.497 385.563 379.364 385.35 380.351 385.35C381.324 385.35 382.171 385.57 382.891 386.01C383.611 386.436 384.171 387.036 384.571 387.81C384.971 388.57 385.171 389.456 385.171 390.47V391.33H377.951C377.977 392.01 378.231 392.563 378.711 392.99C379.191 393.416 379.777 393.63 380.471 393.63C381.177 393.63 381.697 393.476 382.031 393.17C382.364 392.863 382.617 392.523 382.791 392.15L384.851 393.23C384.664 393.576 384.391 393.956 384.031 394.37C383.684 394.77 383.217 395.116 382.631 395.41C382.044 395.69 381.297 395.83 380.391 395.83ZM377.971 389.45H382.611C382.557 388.876 382.324 388.416 381.911 388.07C381.511 387.723 380.984 387.55 380.331 387.55C379.651 387.55 379.111 387.723 378.711 388.07C378.311 388.416 378.064 388.876 377.971 389.45ZM387.414 395.55V385.63H389.894V386.93H390.254C390.414 386.583 390.714 386.256 391.154 385.95C391.594 385.63 392.26 385.47 393.154 385.47C393.927 385.47 394.6 385.65 395.174 386.01C395.76 386.356 396.214 386.843 396.534 387.47C396.854 388.083 397.014 388.803 397.014 389.63V395.55H394.494V389.83C394.494 389.083 394.307 388.523 393.934 388.15C393.574 387.776 393.054 387.59 392.374 387.59C391.6 387.59 391 387.85 390.574 388.37C390.147 388.876 389.934 389.59 389.934 390.51V395.55H387.414ZM404.258 395.83C403.271 395.83 402.398 395.623 401.638 395.21C400.891 394.783 400.305 394.19 399.878 393.43C399.465 392.656 399.258 391.75 399.258 390.71V390.47C399.258 389.43 399.465 388.53 399.878 387.77C400.291 386.996 400.871 386.403 401.618 385.99C402.365 385.563 403.231 385.35 404.218 385.35C405.191 385.35 406.038 385.57 406.758 386.01C407.478 386.436 408.038 387.036 408.438 387.81C408.838 388.57 409.038 389.456 409.038 390.47V391.33H401.818C401.845 392.01 402.098 392.563 402.578 392.99C403.058 393.416 403.645 393.63 404.338 393.63C405.045 393.63 405.565 393.476 405.898 393.17C406.231 392.863 406.485 392.523 406.658 392.15L408.718 393.23C408.531 393.576 408.258 393.956 407.898 394.37C407.551 394.77 407.085 395.116 406.498 395.41C405.911 395.69 405.165 395.83 404.258 395.83ZM401.838 389.45H406.478C406.425 388.876 406.191 388.416 405.778 388.07C405.378 387.723 404.851 387.55 404.198 387.55C403.518 387.55 402.978 387.723 402.578 388.07C402.178 388.416 401.931 388.876 401.838 389.45ZM411.281 395.55V385.63H413.761V386.75H414.121C414.268 386.35 414.508 386.056 414.841 385.87C415.188 385.683 415.588 385.59 416.041 385.59H417.241V387.83H416.001C415.361 387.83 414.834 388.003 414.421 388.35C414.008 388.683 413.801 389.203 413.801 389.91V395.55H411.281ZM422.056 395.83C421.35 395.83 420.716 395.71 420.156 395.47C419.596 395.216 419.15 394.856 418.816 394.39C418.496 393.91 418.336 393.33 418.336 392.65C418.336 391.97 418.496 391.403 418.816 390.95C419.15 390.483 419.603 390.136 420.176 389.91C420.763 389.67 421.43 389.55 422.176 389.55H424.896V388.99C424.896 388.523 424.75 388.143 424.456 387.85C424.163 387.543 423.696 387.39 423.056 387.39C422.43 387.39 421.963 387.536 421.656 387.83C421.35 388.11 421.15 388.476 421.056 388.93L418.736 388.15C418.896 387.643 419.15 387.183 419.496 386.77C419.856 386.343 420.33 386.003 420.916 385.75C421.516 385.483 422.243 385.35 423.096 385.35C424.403 385.35 425.436 385.676 426.196 386.33C426.956 386.983 427.336 387.93 427.336 389.17V392.87C427.336 393.27 427.523 393.47 427.896 393.47H428.696V395.55H427.016C426.523 395.55 426.116 395.43 425.796 395.19C425.476 394.95 425.316 394.63 425.316 394.23V394.21H424.936C424.883 394.37 424.763 394.583 424.576 394.85C424.39 395.103 424.096 395.33 423.696 395.53C423.296 395.73 422.75 395.83 422.056 395.83ZM422.496 393.79C423.203 393.79 423.776 393.596 424.216 393.21C424.67 392.81 424.896 392.283 424.896 391.63V391.43H422.356C421.89 391.43 421.523 391.53 421.256 391.73C420.99 391.93 420.856 392.21 420.856 392.57C420.856 392.93 420.996 393.223 421.276 393.45C421.556 393.676 421.963 393.79 422.496 393.79ZM433.616 395.55C432.963 395.55 432.429 395.35 432.016 394.95C431.616 394.536 431.416 393.99 431.416 393.31V387.71H428.936V385.63H431.416V382.55H433.936V385.63H436.656V387.71H433.936V392.87C433.936 393.27 434.123 393.47 434.496 393.47H436.416V395.55H433.616ZM438.937 395.55V385.63H441.457V395.55H438.937ZM440.197 384.47C439.744 384.47 439.357 384.323 439.037 384.03C438.731 383.736 438.577 383.35 438.577 382.87C438.577 382.39 438.731 382.003 439.037 381.71C439.357 381.416 439.744 381.27 440.197 381.27C440.664 381.27 441.051 381.416 441.357 381.71C441.664 382.003 441.817 382.39 441.817 382.87C441.817 383.35 441.664 383.736 441.357 384.03C441.051 384.323 440.664 384.47 440.197 384.47ZM448.97 395.83C447.983 395.83 447.096 395.63 446.31 395.23C445.523 394.83 444.903 394.25 444.45 393.49C443.996 392.73 443.77 391.816 443.77 390.75V390.43C443.77 389.363 443.996 388.45 444.45 387.69C444.903 386.93 445.523 386.35 446.31 385.95C447.096 385.55 447.983 385.35 448.97 385.35C449.956 385.35 450.843 385.55 451.63 385.95C452.416 386.35 453.036 386.93 453.49 387.69C453.943 388.45 454.17 389.363 454.17 390.43V390.75C454.17 391.816 453.943 392.73 453.49 393.49C453.036 394.25 452.416 394.83 451.63 395.23C450.843 395.63 449.956 395.83 448.97 395.83ZM448.97 393.59C449.743 393.59 450.383 393.343 450.89 392.85C451.396 392.343 451.65 391.623 451.65 390.69V390.49C451.65 389.556 451.396 388.843 450.89 388.35C450.396 387.843 449.756 387.59 448.97 387.59C448.196 387.59 447.556 387.843 447.05 388.35C446.543 388.843 446.29 389.556 446.29 390.49V390.69C446.29 391.623 446.543 392.343 447.05 392.85C447.556 393.343 448.196 393.59 448.97 393.59ZM456.496 395.55V385.63H458.976V386.93H459.336C459.496 386.583 459.796 386.256 460.236 385.95C460.676 385.63 461.342 385.47 462.236 385.47C463.009 385.47 463.682 385.65 464.256 386.01C464.842 386.356 465.296 386.843 465.616 387.47C465.936 388.083 466.096 388.803 466.096 389.63V395.55H463.576V389.83C463.576 389.083 463.389 388.523 463.016 388.15C462.656 387.776 462.136 387.59 461.456 387.59C460.682 387.59 460.082 387.85 459.656 388.37C459.229 388.876 459.016 389.59 459.016 390.51V395.55H456.496Z" fill="white"/>
<path d="M347.842 487.55V473.55H353.922C354.802 473.55 355.568 473.703 356.222 474.01C356.875 474.316 357.382 474.75 357.742 475.31C358.102 475.87 358.282 476.53 358.282 477.29V477.53C358.282 478.37 358.082 479.05 357.682 479.57C357.282 480.09 356.788 480.47 356.202 480.71V481.07C356.735 481.096 357.148 481.283 357.442 481.63C357.735 481.963 357.882 482.41 357.882 482.97V487.55H355.242V483.35C355.242 483.03 355.155 482.77 354.982 482.57C354.822 482.37 354.548 482.27 354.162 482.27H350.482V487.55H347.842ZM350.482 479.87H353.642C354.268 479.87 354.755 479.703 355.102 479.37C355.462 479.023 355.642 478.57 355.642 478.01V477.81C355.642 477.25 355.468 476.803 355.122 476.47C354.775 476.123 354.282 475.95 353.642 475.95H350.482V479.87ZM365.078 487.83C364.092 487.83 363.218 487.623 362.458 487.21C361.712 486.783 361.125 486.19 360.698 485.43C360.285 484.656 360.078 483.75 360.078 482.71V482.47C360.078 481.43 360.285 480.53 360.698 479.77C361.112 478.996 361.692 478.403 362.438 477.99C363.185 477.563 364.052 477.35 365.038 477.35C366.012 477.35 366.858 477.57 367.578 478.01C368.298 478.436 368.858 479.036 369.258 479.81C369.658 480.57 369.858 481.456 369.858 482.47V483.33H362.638C362.665 484.01 362.918 484.563 363.398 484.99C363.878 485.416 364.465 485.63 365.158 485.63C365.865 485.63 366.385 485.476 366.718 485.17C367.052 484.863 367.305 484.523 367.478 484.15L369.538 485.23C369.352 485.576 369.078 485.956 368.718 486.37C368.372 486.77 367.905 487.116 367.318 487.41C366.732 487.69 365.985 487.83 365.078 487.83ZM362.658 481.45H367.298C367.245 480.876 367.012 480.416 366.598 480.07C366.198 479.723 365.672 479.55 365.018 479.55C364.338 479.55 363.798 479.723 363.398 480.07C362.998 480.416 362.752 480.876 362.658 481.45ZM376.221 487.83C374.928 487.83 373.868 487.55 373.041 486.99C372.215 486.43 371.715 485.63 371.541 484.59L373.861 483.99C373.955 484.456 374.108 484.823 374.321 485.09C374.548 485.356 374.821 485.55 375.141 485.67C375.475 485.776 375.835 485.83 376.221 485.83C376.808 485.83 377.241 485.73 377.521 485.53C377.801 485.316 377.941 485.056 377.941 484.75C377.941 484.443 377.808 484.21 377.541 484.05C377.275 483.876 376.848 483.736 376.261 483.63L375.701 483.53C375.008 483.396 374.375 483.216 373.801 482.99C373.228 482.75 372.768 482.423 372.421 482.01C372.075 481.596 371.901 481.063 371.901 480.41C371.901 479.423 372.261 478.67 372.981 478.15C373.701 477.616 374.648 477.35 375.821 477.35C376.928 477.35 377.848 477.596 378.581 478.09C379.315 478.583 379.795 479.23 380.021 480.03L377.681 480.75C377.575 480.243 377.355 479.883 377.021 479.67C376.701 479.456 376.301 479.35 375.821 479.35C375.341 479.35 374.975 479.436 374.721 479.61C374.468 479.77 374.341 479.996 374.341 480.29C374.341 480.61 374.475 480.85 374.741 481.01C375.008 481.156 375.368 481.27 375.821 481.35L376.381 481.45C377.128 481.583 377.801 481.763 378.401 481.99C379.015 482.203 379.495 482.516 379.841 482.93C380.201 483.33 380.381 483.876 380.381 484.57C380.381 485.61 380.001 486.416 379.241 486.99C378.495 487.55 377.488 487.83 376.221 487.83ZM387.11 487.83C386.123 487.83 385.25 487.623 384.49 487.21C383.743 486.783 383.156 486.19 382.73 485.43C382.316 484.656 382.11 483.75 382.11 482.71V482.47C382.11 481.43 382.316 480.53 382.73 479.77C383.143 478.996 383.723 478.403 384.47 477.99C385.216 477.563 386.083 477.35 387.07 477.35C388.043 477.35 388.89 477.57 389.61 478.01C390.33 478.436 390.89 479.036 391.29 479.81C391.69 480.57 391.89 481.456 391.89 482.47V483.33H384.67C384.696 484.01 384.95 484.563 385.43 484.99C385.91 485.416 386.496 485.63 387.19 485.63C387.896 485.63 388.416 485.476 388.75 485.17C389.083 484.863 389.336 484.523 389.51 484.15L391.57 485.23C391.383 485.576 391.11 485.956 390.75 486.37C390.403 486.77 389.936 487.116 389.35 487.41C388.763 487.69 388.016 487.83 387.11 487.83ZM384.69 481.45H389.33C389.276 480.876 389.043 480.416 388.63 480.07C388.23 479.723 387.703 479.55 387.05 479.55C386.37 479.55 385.83 479.723 385.43 480.07C385.03 480.416 384.783 480.876 384.69 481.45ZM397.213 487.83C396.506 487.83 395.873 487.71 395.313 487.47C394.753 487.216 394.306 486.856 393.973 486.39C393.653 485.91 393.493 485.33 393.493 484.65C393.493 483.97 393.653 483.403 393.973 482.95C394.306 482.483 394.759 482.136 395.333 481.91C395.919 481.67 396.586 481.55 397.333 481.55H400.053V480.99C400.053 480.523 399.906 480.143 399.613 479.85C399.319 479.543 398.853 479.39 398.213 479.39C397.586 479.39 397.119 479.536 396.813 479.83C396.506 480.11 396.306 480.476 396.213 480.93L393.893 480.15C394.053 479.643 394.306 479.183 394.653 478.77C395.013 478.343 395.486 478.003 396.073 477.75C396.673 477.483 397.399 477.35 398.253 477.35C399.559 477.35 400.593 477.676 401.353 478.33C402.113 478.983 402.493 479.93 402.493 481.17V484.87C402.493 485.27 402.679 485.47 403.053 485.47H403.853V487.55H402.173C401.679 487.55 401.273 487.43 400.953 487.19C400.633 486.95 400.473 486.63 400.473 486.23V486.21H400.093C400.039 486.37 399.919 486.583 399.733 486.85C399.546 487.103 399.253 487.33 398.853 487.53C398.453 487.73 397.906 487.83 397.213 487.83ZM397.653 485.79C398.359 485.79 398.933 485.596 399.373 485.21C399.826 484.81 400.053 484.283 400.053 483.63V483.43H397.513C397.046 483.43 396.679 483.53 396.413 483.73C396.146 483.93 396.013 484.21 396.013 484.57C396.013 484.93 396.153 485.223 396.433 485.45C396.713 485.676 397.119 485.79 397.653 485.79ZM405.695 487.55V477.63H408.175V478.75H408.535C408.682 478.35 408.922 478.056 409.255 477.87C409.602 477.683 410.002 477.59 410.455 477.59H411.655V479.83H410.415C409.775 479.83 409.248 480.003 408.835 480.35C408.422 480.683 408.215 481.203 408.215 481.91V487.55H405.695ZM417.933 487.83C416.973 487.83 416.1 487.63 415.313 487.23C414.54 486.83 413.926 486.25 413.473 485.49C413.02 484.73 412.793 483.81 412.793 482.73V482.45C412.793 481.37 413.02 480.45 413.473 479.69C413.926 478.93 414.54 478.35 415.313 477.95C416.1 477.55 416.973 477.35 417.933 477.35C418.88 477.35 419.693 477.516 420.373 477.85C421.053 478.183 421.6 478.643 422.013 479.23C422.44 479.803 422.72 480.456 422.853 481.19L420.413 481.71C420.36 481.31 420.24 480.95 420.053 480.63C419.866 480.31 419.6 480.056 419.253 479.87C418.92 479.683 418.5 479.59 417.993 479.59C417.486 479.59 417.026 479.703 416.613 479.93C416.213 480.143 415.893 480.47 415.653 480.91C415.426 481.336 415.313 481.863 415.313 482.49V482.69C415.313 483.316 415.426 483.85 415.653 484.29C415.893 484.716 416.213 485.043 416.613 485.27C417.026 485.483 417.486 485.59 417.993 485.59C418.753 485.59 419.326 485.396 419.713 485.01C420.113 484.61 420.366 484.09 420.473 483.45L422.913 484.03C422.74 484.736 422.44 485.383 422.013 485.97C421.6 486.543 421.053 486.996 420.373 487.33C419.693 487.663 418.88 487.83 417.933 487.83ZM424.992 487.55V473.55H427.512V478.85H427.872C427.979 478.636 428.145 478.423 428.372 478.21C428.599 477.996 428.899 477.823 429.272 477.69C429.659 477.543 430.145 477.47 430.732 477.47C431.505 477.47 432.179 477.65 432.752 478.01C433.339 478.356 433.792 478.843 434.112 479.47C434.432 480.083 434.592 480.803 434.592 481.63V487.55H432.072V481.83C432.072 481.083 431.885 480.523 431.512 480.15C431.152 479.776 430.632 479.59 429.952 479.59C429.179 479.59 428.579 479.85 428.152 480.37C427.725 480.876 427.512 481.59 427.512 482.51V487.55H424.992Z" fill="white"/>
<path d="M349.738 579.55L346.178 565.55H348.898L351.858 577.85H352.138L355.098 565.55H357.818L354.258 579.55H349.738ZM362.056 579.83C361.35 579.83 360.716 579.71 360.156 579.47C359.596 579.216 359.15 578.856 358.816 578.39C358.496 577.91 358.336 577.33 358.336 576.65C358.336 575.97 358.496 575.403 358.816 574.95C359.15 574.483 359.603 574.136 360.176 573.91C360.763 573.67 361.43 573.55 362.176 573.55H364.896V572.99C364.896 572.523 364.75 572.143 364.456 571.85C364.163 571.543 363.696 571.39 363.056 571.39C362.43 571.39 361.963 571.536 361.656 571.83C361.35 572.11 361.15 572.476 361.056 572.93L358.736 572.15C358.896 571.643 359.15 571.183 359.496 570.77C359.856 570.343 360.33 570.003 360.916 569.75C361.516 569.483 362.243 569.35 363.096 569.35C364.403 569.35 365.436 569.676 366.196 570.33C366.956 570.983 367.336 571.93 367.336 573.17V576.87C367.336 577.27 367.523 577.47 367.896 577.47H368.696V579.55H367.016C366.523 579.55 366.116 579.43 365.796 579.19C365.476 578.95 365.316 578.63 365.316 578.23V578.21H364.936C364.883 578.37 364.763 578.583 364.576 578.85C364.39 579.103 364.096 579.33 363.696 579.53C363.296 579.73 362.75 579.83 362.056 579.83ZM362.496 577.79C363.203 577.79 363.776 577.596 364.216 577.21C364.67 576.81 364.896 576.283 364.896 575.63V575.43H362.356C361.89 575.43 361.523 575.53 361.256 575.73C360.99 575.93 360.856 576.21 360.856 576.57C360.856 576.93 360.996 577.223 361.276 577.45C361.556 577.676 361.963 577.79 362.496 577.79ZM370.539 579.55V565.55H373.059V579.55H370.539ZM379.631 579.71C378.858 579.71 378.178 579.536 377.591 579.19C377.018 578.83 376.571 578.336 376.251 577.71C375.931 577.083 375.771 576.363 375.771 575.55V569.63H378.291V575.35C378.291 576.096 378.471 576.656 378.831 577.03C379.205 577.403 379.731 577.59 380.411 577.59C381.185 577.59 381.785 577.336 382.211 576.83C382.638 576.31 382.851 575.59 382.851 574.67V569.63H385.371V579.55H382.891V578.25H382.531C382.371 578.583 382.071 578.91 381.631 579.23C381.191 579.55 380.525 579.71 379.631 579.71ZM391.255 579.83C390.549 579.83 389.915 579.71 389.355 579.47C388.795 579.216 388.349 578.856 388.015 578.39C387.695 577.91 387.535 577.33 387.535 576.65C387.535 575.97 387.695 575.403 388.015 574.95C388.349 574.483 388.802 574.136 389.375 573.91C389.962 573.67 390.629 573.55 391.375 573.55H394.095V572.99C394.095 572.523 393.949 572.143 393.655 571.85C393.362 571.543 392.895 571.39 392.255 571.39C391.629 571.39 391.162 571.536 390.855 571.83C390.549 572.11 390.349 572.476 390.255 572.93L387.935 572.15C388.095 571.643 388.349 571.183 388.695 570.77C389.055 570.343 389.529 570.003 390.115 569.75C390.715 569.483 391.442 569.35 392.295 569.35C393.602 569.35 394.635 569.676 395.395 570.33C396.155 570.983 396.535 571.93 396.535 573.17V576.87C396.535 577.27 396.722 577.47 397.095 577.47H397.895V579.55H396.215C395.722 579.55 395.315 579.43 394.995 579.19C394.675 578.95 394.515 578.63 394.515 578.23V578.21H394.135C394.082 578.37 393.962 578.583 393.775 578.85C393.589 579.103 393.295 579.33 392.895 579.53C392.495 579.73 391.949 579.83 391.255 579.83ZM391.695 577.79C392.402 577.79 392.975 577.596 393.415 577.21C393.869 576.81 394.095 576.283 394.095 575.63V575.43H391.555C391.089 575.43 390.722 575.53 390.455 575.73C390.189 575.93 390.055 576.21 390.055 576.57C390.055 576.93 390.195 577.223 390.475 577.45C390.755 577.676 391.162 577.79 391.695 577.79ZM402.815 579.55C402.162 579.55 401.629 579.35 401.215 578.95C400.815 578.536 400.615 577.99 400.615 577.31V571.71H398.135V569.63H400.615V566.55H403.135V569.63H405.855V571.71H403.135V576.87C403.135 577.27 403.322 577.47 403.695 577.47H405.615V579.55H402.815ZM408.136 579.55V569.63H410.656V579.55H408.136ZM409.396 568.47C408.943 568.47 408.556 568.323 408.236 568.03C407.93 567.736 407.776 567.35 407.776 566.87C407.776 566.39 407.93 566.003 408.236 565.71C408.556 565.416 408.943 565.27 409.396 565.27C409.863 565.27 410.25 565.416 410.556 565.71C410.863 566.003 411.016 566.39 411.016 566.87C411.016 567.35 410.863 567.736 410.556 568.03C410.25 568.323 409.863 568.47 409.396 568.47ZM418.169 579.83C417.182 579.83 416.296 579.63 415.509 579.23C414.722 578.83 414.102 578.25 413.649 577.49C413.196 576.73 412.969 575.816 412.969 574.75V574.43C412.969 573.363 413.196 572.45 413.649 571.69C414.102 570.93 414.722 570.35 415.509 569.95C416.296 569.55 417.182 569.35 418.169 569.35C419.156 569.35 420.042 569.55 420.829 569.95C421.616 570.35 422.236 570.93 422.689 571.69C423.142 572.45 423.369 573.363 423.369 574.43V574.75C423.369 575.816 423.142 576.73 422.689 577.49C422.236 578.25 421.616 578.83 420.829 579.23C420.042 579.63 419.156 579.83 418.169 579.83ZM418.169 577.59C418.942 577.59 419.582 577.343 420.089 576.85C420.596 576.343 420.849 575.623 420.849 574.69V574.49C420.849 573.556 420.596 572.843 420.089 572.35C419.596 571.843 418.956 571.59 418.169 571.59C417.396 571.59 416.756 571.843 416.249 572.35C415.742 572.843 415.489 573.556 415.489 574.49V574.69C415.489 575.623 415.742 576.343 416.249 576.85C416.756 577.343 417.396 577.59 418.169 577.59ZM425.695 579.55V569.63H428.175V570.93H428.535C428.695 570.583 428.995 570.256 429.435 569.95C429.875 569.63 430.542 569.47 431.435 569.47C432.208 569.47 432.882 569.65 433.455 570.01C434.042 570.356 434.495 570.843 434.815 571.47C435.135 572.083 435.295 572.803 435.295 573.63V579.55H432.775V573.83C432.775 573.083 432.588 572.523 432.215 572.15C431.855 571.776 431.335 571.59 430.655 571.59C429.882 571.59 429.282 571.85 428.855 572.37C428.428 572.876 428.215 573.59 428.215 574.51V579.55H425.695Z" fill="white"/>
<path d="M314.98 677V665.4H310.9V663H321.7V665.4H317.62V677H314.98ZM326.223 677.28C325.236 677.28 324.363 677.073 323.603 676.66C322.856 676.233 322.269 675.64 321.843 674.88C321.429 674.107 321.223 673.2 321.223 672.16V671.92C321.223 670.88 321.429 669.98 321.843 669.22C322.256 668.447 322.836 667.853 323.583 667.44C324.329 667.013 325.196 666.8 326.183 666.8C327.156 666.8 328.003 667.02 328.723 667.46C329.443 667.887 330.003 668.487 330.403 669.26C330.803 670.02 331.003 670.907 331.003 671.92V672.78H323.783C323.809 673.46 324.063 674.013 324.543 674.44C325.023 674.867 325.609 675.08 326.303 675.08C327.009 675.08 327.529 674.927 327.863 674.62C328.196 674.313 328.449 673.973 328.623 673.6L330.683 674.68C330.496 675.027 330.223 675.407 329.863 675.82C329.516 676.22 329.049 676.567 328.463 676.86C327.876 677.14 327.129 677.28 326.223 677.28ZM323.803 670.9H328.443C328.389 670.327 328.156 669.867 327.743 669.52C327.343 669.173 326.816 669 326.163 669C325.483 669 324.943 669.173 324.543 669.52C324.143 669.867 323.896 670.327 323.803 670.9ZM336.326 677.28C335.619 677.28 334.986 677.16 334.426 676.92C333.866 676.667 333.419 676.307 333.086 675.84C332.766 675.36 332.606 674.78 332.606 674.1C332.606 673.42 332.766 672.853 333.086 672.4C333.419 671.933 333.872 671.587 334.446 671.36C335.032 671.12 335.699 671 336.446 671H339.166V670.44C339.166 669.973 339.019 669.593 338.726 669.3C338.432 668.993 337.966 668.84 337.326 668.84C336.699 668.84 336.232 668.987 335.926 669.28C335.619 669.56 335.419 669.927 335.326 670.38L333.006 669.6C333.166 669.093 333.419 668.633 333.766 668.22C334.126 667.793 334.599 667.453 335.186 667.2C335.786 666.933 336.512 666.8 337.366 666.8C338.672 666.8 339.706 667.127 340.466 667.78C341.226 668.433 341.606 669.38 341.606 670.62V674.32C341.606 674.72 341.792 674.92 342.166 674.92H342.966V677H341.286C340.792 677 340.386 676.88 340.066 676.64C339.746 676.4 339.586 676.08 339.586 675.68V675.66H339.206C339.152 675.82 339.032 676.033 338.846 676.3C338.659 676.553 338.366 676.78 337.966 676.98C337.566 677.18 337.019 677.28 336.326 677.28ZM336.766 675.24C337.472 675.24 338.046 675.047 338.486 674.66C338.939 674.26 339.166 673.733 339.166 673.08V672.88H336.626C336.159 672.88 335.792 672.98 335.526 673.18C335.259 673.38 335.126 673.66 335.126 674.02C335.126 674.38 335.266 674.673 335.546 674.9C335.826 675.127 336.232 675.24 336.766 675.24ZM344.808 677V667.08H347.288V668.16H347.648C347.822 667.827 348.108 667.54 348.508 667.3C348.908 667.047 349.435 666.92 350.088 666.92C350.795 666.92 351.362 667.06 351.788 667.34C352.215 667.607 352.542 667.96 352.768 668.4H353.128C353.355 667.973 353.675 667.62 354.088 667.34C354.502 667.06 355.088 666.92 355.848 666.92C356.462 666.92 357.015 667.053 357.508 667.32C358.015 667.573 358.415 667.967 358.708 668.5C359.015 669.02 359.168 669.68 359.168 670.48V677H356.648V670.66C356.648 670.113 356.508 669.707 356.228 669.44C355.948 669.16 355.555 669.02 355.048 669.02C354.475 669.02 354.028 669.207 353.708 669.58C353.402 669.94 353.248 670.46 353.248 671.14V677H350.728V670.66C350.728 670.113 350.588 669.707 350.308 669.44C350.028 669.16 349.635 669.02 349.128 669.02C348.555 669.02 348.108 669.207 347.788 669.58C347.482 669.94 347.328 670.46 347.328 671.14V677H344.808ZM366.477 677V674.68H368.317V665.32H366.477V663H372.237C374.117 663 375.543 663.48 376.517 664.44C377.503 665.387 377.997 666.8 377.997 668.68V671.32C377.997 673.2 377.503 674.62 376.517 675.58C375.543 676.527 374.117 677 372.237 677H366.477ZM370.957 674.6H372.277C373.343 674.6 374.123 674.32 374.617 673.76C375.11 673.2 375.357 672.413 375.357 671.4V668.6C375.357 667.573 375.11 666.787 374.617 666.24C374.123 665.68 373.343 665.4 372.277 665.4H370.957V674.6ZM380.277 677V667.08H382.797V677H380.277ZM381.537 665.92C381.084 665.92 380.697 665.773 380.377 665.48C380.07 665.187 379.917 664.8 379.917 664.32C379.917 663.84 380.07 663.453 380.377 663.16C380.697 662.867 381.084 662.72 381.537 662.72C382.004 662.72 382.39 662.867 382.697 663.16C383.004 663.453 383.157 663.84 383.157 664.32C383.157 664.8 383.004 665.187 382.697 665.48C382.39 665.773 382.004 665.92 381.537 665.92ZM389.709 677.28C388.416 677.28 387.356 677 386.529 676.44C385.703 675.88 385.203 675.08 385.029 674.04L387.349 673.44C387.443 673.907 387.596 674.273 387.809 674.54C388.036 674.807 388.309 675 388.629 675.12C388.963 675.227 389.323 675.28 389.709 675.28C390.296 675.28 390.729 675.18 391.009 674.98C391.289 674.767 391.429 674.507 391.429 674.2C391.429 673.893 391.296 673.66 391.029 673.5C390.763 673.327 390.336 673.187 389.749 673.08L389.189 672.98C388.496 672.847 387.863 672.667 387.289 672.44C386.716 672.2 386.256 671.873 385.909 671.46C385.563 671.047 385.389 670.513 385.389 669.86C385.389 668.873 385.749 668.12 386.469 667.6C387.189 667.067 388.136 666.8 389.309 666.8C390.416 666.8 391.336 667.047 392.069 667.54C392.803 668.033 393.283 668.68 393.509 669.48L391.169 670.2C391.063 669.693 390.843 669.333 390.509 669.12C390.189 668.907 389.789 668.8 389.309 668.8C388.829 668.8 388.463 668.887 388.209 669.06C387.956 669.22 387.829 669.447 387.829 669.74C387.829 670.06 387.963 670.3 388.229 670.46C388.496 670.607 388.856 670.72 389.309 670.8L389.869 670.9C390.616 671.033 391.289 671.213 391.889 671.44C392.503 671.653 392.983 671.967 393.329 672.38C393.689 672.78 393.869 673.327 393.869 674.02C393.869 675.06 393.489 675.867 392.729 676.44C391.983 677 390.976 677.28 389.709 677.28ZM400.738 677.28C399.778 677.28 398.904 677.08 398.118 676.68C397.344 676.28 396.731 675.7 396.278 674.94C395.824 674.18 395.598 673.26 395.598 672.18V671.9C395.598 670.82 395.824 669.9 396.278 669.14C396.731 668.38 397.344 667.8 398.118 667.4C398.904 667 399.778 666.8 400.738 666.8C401.684 666.8 402.498 666.967 403.178 667.3C403.858 667.633 404.404 668.093 404.818 668.68C405.244 669.253 405.524 669.907 405.658 670.64L403.218 671.16C403.164 670.76 403.044 670.4 402.858 670.08C402.671 669.76 402.404 669.507 402.058 669.32C401.724 669.133 401.304 669.04 400.798 669.04C400.291 669.04 399.831 669.153 399.418 669.38C399.018 669.593 398.698 669.92 398.458 670.36C398.231 670.787 398.118 671.313 398.118 671.94V672.14C398.118 672.767 398.231 673.3 398.458 673.74C398.698 674.167 399.018 674.493 399.418 674.72C399.831 674.933 400.291 675.04 400.798 675.04C401.558 675.04 402.131 674.847 402.518 674.46C402.918 674.06 403.171 673.54 403.278 672.9L405.718 673.48C405.544 674.187 405.244 674.833 404.818 675.42C404.404 675.993 403.858 676.447 403.178 676.78C402.498 677.113 401.684 677.28 400.738 677.28ZM411.576 677.16C410.803 677.16 410.123 676.987 409.536 676.64C408.963 676.28 408.516 675.787 408.196 675.16C407.876 674.533 407.716 673.813 407.716 673V667.08H410.236V672.8C410.236 673.547 410.416 674.107 410.776 674.48C411.15 674.853 411.676 675.04 412.356 675.04C413.13 675.04 413.73 674.787 414.156 674.28C414.583 673.76 414.796 673.04 414.796 672.12V667.08H417.316V677H414.836V675.7H414.476C414.316 676.033 414.016 676.36 413.576 676.68C413.136 677 412.47 677.16 411.576 677.16ZM424.241 677.28C422.947 677.28 421.887 677 421.061 676.44C420.234 675.88 419.734 675.08 419.561 674.04L421.881 673.44C421.974 673.907 422.127 674.273 422.341 674.54C422.567 674.807 422.841 675 423.161 675.12C423.494 675.227 423.854 675.28 424.241 675.28C424.827 675.28 425.261 675.18 425.541 674.98C425.821 674.767 425.961 674.507 425.961 674.2C425.961 673.893 425.827 673.66 425.561 673.5C425.294 673.327 424.867 673.187 424.281 673.08L423.721 672.98C423.027 672.847 422.394 672.667 421.821 672.44C421.247 672.2 420.787 671.873 420.441 671.46C420.094 671.047 419.921 670.513 419.921 669.86C419.921 668.873 420.281 668.12 421.001 667.6C421.721 667.067 422.667 666.8 423.841 666.8C424.947 666.8 425.867 667.047 426.601 667.54C427.334 668.033 427.814 668.68 428.041 669.48L425.701 670.2C425.594 669.693 425.374 669.333 425.041 669.12C424.721 668.907 424.321 668.8 423.841 668.8C423.361 668.8 422.994 668.887 422.741 669.06C422.487 669.22 422.361 669.447 422.361 669.74C422.361 670.06 422.494 670.3 422.761 670.46C423.027 670.607 423.387 670.72 423.841 670.8L424.401 670.9C425.147 671.033 425.821 671.213 426.421 671.44C427.034 671.653 427.514 671.967 427.861 672.38C428.221 672.78 428.401 673.327 428.401 674.02C428.401 675.06 428.021 675.867 427.261 676.44C426.514 677 425.507 677.28 424.241 677.28ZM434.729 677.28C433.436 677.28 432.376 677 431.549 676.44C430.722 675.88 430.222 675.08 430.049 674.04L432.369 673.44C432.462 673.907 432.616 674.273 432.829 674.54C433.056 674.807 433.329 675 433.649 675.12C433.982 675.227 434.342 675.28 434.729 675.28C435.316 675.28 435.749 675.18 436.029 674.98C436.309 674.767 436.449 674.507 436.449 674.2C436.449 673.893 436.316 673.66 436.049 673.5C435.782 673.327 435.356 673.187 434.769 673.08L434.209 672.98C433.516 672.847 432.882 672.667 432.309 672.44C431.736 672.2 431.276 671.873 430.929 671.46C430.582 671.047 430.409 670.513 430.409 669.86C430.409 668.873 430.769 668.12 431.489 667.6C432.209 667.067 433.156 666.8 434.329 666.8C435.436 666.8 436.356 667.047 437.089 667.54C437.822 668.033 438.302 668.68 438.529 669.48L436.189 670.2C436.082 669.693 435.862 669.333 435.529 669.12C435.209 668.907 434.809 668.8 434.329 668.8C433.849 668.8 433.482 668.887 433.229 669.06C432.976 669.22 432.849 669.447 432.849 669.74C432.849 670.06 432.982 670.3 433.249 670.46C433.516 670.607 433.876 670.72 434.329 670.8L434.889 670.9C435.636 671.033 436.309 671.213 436.909 671.44C437.522 671.653 438.002 671.967 438.349 672.38C438.709 672.78 438.889 673.327 438.889 674.02C438.889 675.06 438.509 675.867 437.749 676.44C437.002 677 435.996 677.28 434.729 677.28ZM441.097 677V667.08H443.617V677H441.097ZM442.357 665.92C441.904 665.92 441.517 665.773 441.197 665.48C440.891 665.187 440.737 664.8 440.737 664.32C440.737 663.84 440.891 663.453 441.197 663.16C441.517 662.867 441.904 662.72 442.357 662.72C442.824 662.72 443.211 662.867 443.517 663.16C443.824 663.453 443.977 663.84 443.977 664.32C443.977 664.8 443.824 665.187 443.517 665.48C443.211 665.773 442.824 665.92 442.357 665.92ZM451.13 677.28C450.143 677.28 449.256 677.08 448.47 676.68C447.683 676.28 447.063 675.7 446.61 674.94C446.156 674.18 445.93 673.267 445.93 672.2V671.88C445.93 670.813 446.156 669.9 446.61 669.14C447.063 668.38 447.683 667.8 448.47 667.4C449.256 667 450.143 666.8 451.13 666.8C452.116 666.8 453.003 667 453.79 667.4C454.576 667.8 455.196 668.38 455.65 669.14C456.103 669.9 456.33 670.813 456.33 671.88V672.2C456.33 673.267 456.103 674.18 455.65 674.94C455.196 675.7 454.576 676.28 453.79 676.68C453.003 677.08 452.116 677.28 451.13 677.28ZM451.13 675.04C451.903 675.04 452.543 674.793 453.05 674.3C453.556 673.793 453.81 673.073 453.81 672.14V671.94C453.81 671.007 453.556 670.293 453.05 669.8C452.556 669.293 451.916 669.04 451.13 669.04C450.356 669.04 449.716 669.293 449.21 669.8C448.703 670.293 448.45 671.007 448.45 671.94V672.14C448.45 673.073 448.703 673.793 449.21 674.3C449.716 674.793 450.356 675.04 451.13 675.04ZM458.656 677V667.08H461.136V668.38H461.496C461.656 668.033 461.956 667.707 462.396 667.4C462.836 667.08 463.503 666.92 464.396 666.92C465.169 666.92 465.843 667.1 466.416 667.46C467.003 667.807 467.456 668.293 467.776 668.92C468.096 669.533 468.256 670.253 468.256 671.08V677H465.736V671.28C465.736 670.533 465.549 669.973 465.176 669.6C464.816 669.227 464.296 669.04 463.616 669.04C462.843 669.04 462.243 669.3 461.816 669.82C461.389 670.327 461.176 671.04 461.176 671.96V677H458.656Z" fill="white"/>
<path d="M356.868 761V749.8H361.477C362.181 749.8 362.799 749.944 363.333 750.232C363.877 750.509 364.298 750.904 364.597 751.416C364.906 751.928 365.061 752.536 365.061 753.24V753.464C365.061 754.157 364.901 754.765 364.581 755.288C364.271 755.8 363.845 756.2 363.301 756.488C362.767 756.765 362.159 756.904 361.477 756.904H358.981V761H356.868ZM358.981 754.984H361.269C361.77 754.984 362.175 754.845 362.485 754.568C362.794 754.291 362.949 753.912 362.949 753.432V753.272C362.949 752.792 362.794 752.413 362.485 752.136C362.175 751.859 361.77 751.72 361.269 751.72H358.981V754.984ZM370.177 761.224C369.388 761.224 368.679 761.064 368.049 760.744C367.42 760.424 366.924 759.96 366.561 759.352C366.199 758.744 366.017 758.013 366.017 757.16V756.904C366.017 756.051 366.199 755.32 366.561 754.712C366.924 754.104 367.42 753.64 368.049 753.32C368.679 753 369.388 752.84 370.177 752.84C370.967 752.84 371.676 753 372.305 753.32C372.935 753.64 373.431 754.104 373.793 754.712C374.156 755.32 374.337 756.051 374.337 756.904V757.16C374.337 758.013 374.156 758.744 373.793 759.352C373.431 759.96 372.935 760.424 372.305 760.744C371.676 761.064 370.967 761.224 370.177 761.224ZM370.177 759.432C370.796 759.432 371.308 759.235 371.713 758.84C372.119 758.435 372.321 757.859 372.321 757.112V756.952C372.321 756.205 372.119 755.635 371.713 755.24C371.319 754.835 370.807 754.632 370.177 754.632C369.559 754.632 369.047 754.835 368.641 755.24C368.236 755.635 368.033 756.205 368.033 756.952V757.112C368.033 757.859 368.236 758.435 368.641 758.84C369.047 759.235 369.559 759.432 370.177 759.432ZM376.198 761V753.064H378.182V753.96H378.47C378.587 753.64 378.779 753.405 379.046 753.256C379.323 753.107 379.643 753.032 380.006 753.032H380.966V754.824H379.974C379.462 754.824 379.041 754.963 378.71 755.24C378.379 755.507 378.214 755.923 378.214 756.488V761H376.198ZM385.582 761C385.059 761 384.633 760.84 384.302 760.52C383.982 760.189 383.822 759.752 383.822 759.208V754.728H381.838V753.064H383.822V750.6H385.838V753.064H388.014V754.728H385.838V758.856C385.838 759.176 385.987 759.336 386.286 759.336H387.822V761H385.582ZM390.76 761V754.728H388.744V753.064H390.76V751.592C390.76 751.048 390.92 750.616 391.24 750.296C391.571 749.965 391.997 749.8 392.52 749.8H394.6V751.464H393.224C392.925 751.464 392.776 751.624 392.776 751.944V753.064H394.856V754.728H392.776V761H390.76ZM399.927 761.224C399.138 761.224 398.429 761.064 397.799 760.744C397.17 760.424 396.674 759.96 396.311 759.352C395.949 758.744 395.767 758.013 395.767 757.16V756.904C395.767 756.051 395.949 755.32 396.311 754.712C396.674 754.104 397.17 753.64 397.799 753.32C398.429 753 399.138 752.84 399.927 752.84C400.717 752.84 401.426 753 402.055 753.32C402.685 753.64 403.181 754.104 403.543 754.712C403.906 755.32 404.087 756.051 404.087 756.904V757.16C404.087 758.013 403.906 758.744 403.543 759.352C403.181 759.96 402.685 760.424 402.055 760.744C401.426 761.064 400.717 761.224 399.927 761.224ZM399.927 759.432C400.546 759.432 401.058 759.235 401.463 758.84C401.869 758.435 402.071 757.859 402.071 757.112V756.952C402.071 756.205 401.869 755.635 401.463 755.24C401.069 754.835 400.557 754.632 399.927 754.632C399.309 754.632 398.797 754.835 398.391 755.24C397.986 755.635 397.783 756.205 397.783 756.952V757.112C397.783 757.859 397.986 758.435 398.391 758.84C398.797 759.235 399.309 759.432 399.927 759.432ZM405.948 761V749.8H407.964V761H405.948ZM410.198 761V753.064H412.214V761H410.198ZM411.206 752.136C410.843 752.136 410.534 752.019 410.278 751.784C410.033 751.549 409.91 751.24 409.91 750.856C409.91 750.472 410.033 750.163 410.278 749.928C410.534 749.693 410.843 749.576 411.206 749.576C411.579 749.576 411.889 749.693 412.134 749.928C412.379 750.163 412.502 750.472 412.502 750.856C412.502 751.24 412.379 751.549 412.134 751.784C411.889 752.019 411.579 752.136 411.206 752.136ZM418.224 761.224C417.435 761.224 416.725 761.064 416.096 760.744C415.467 760.424 414.971 759.96 414.608 759.352C414.245 758.744 414.064 758.013 414.064 757.16V756.904C414.064 756.051 414.245 755.32 414.608 754.712C414.971 754.104 415.467 753.64 416.096 753.32C416.725 753 417.435 752.84 418.224 752.84C419.013 752.84 419.723 753 420.352 753.32C420.981 753.64 421.477 754.104 421.84 754.712C422.203 755.32 422.384 756.051 422.384 756.904V757.16C422.384 758.013 422.203 758.744 421.84 759.352C421.477 759.96 420.981 760.424 420.352 760.744C419.723 761.064 419.013 761.224 418.224 761.224ZM418.224 759.432C418.843 759.432 419.355 759.235 419.76 758.84C420.165 758.435 420.368 757.859 420.368 757.112V756.952C420.368 756.205 420.165 755.635 419.76 755.24C419.365 754.835 418.853 754.632 418.224 754.632C417.605 754.632 417.093 754.835 416.688 755.24C416.283 755.635 416.08 756.205 416.08 756.952V757.112C416.08 757.859 416.283 758.435 416.688 758.84C417.093 759.235 417.605 759.432 418.224 759.432ZM345.812 785.224C344.425 785.224 343.327 784.84 342.516 784.072C341.705 783.293 341.3 782.184 341.3 780.744V778.056C341.3 776.616 341.705 775.512 342.516 774.744C343.327 773.965 344.425 773.576 345.812 773.576C347.188 773.576 348.249 773.955 348.996 774.712C349.753 775.459 350.132 776.488 350.132 777.8V777.896H348.052V777.736C348.052 777.075 347.865 776.531 347.492 776.104C347.129 775.677 346.569 775.464 345.812 775.464C345.065 775.464 344.479 775.693 344.052 776.152C343.625 776.611 343.412 777.235 343.412 778.024V780.776C343.412 781.555 343.625 782.179 344.052 782.648C344.479 783.107 345.065 783.336 345.812 783.336C346.569 783.336 347.129 783.123 347.492 782.696C347.865 782.259 348.052 781.715 348.052 781.064V780.776H350.132V781C350.132 782.312 349.753 783.347 348.996 784.104C348.249 784.851 347.188 785.224 345.812 785.224ZM355.693 785.224C354.904 785.224 354.194 785.064 353.565 784.744C352.936 784.424 352.44 783.96 352.077 783.352C351.714 782.744 351.533 782.013 351.533 781.16V780.904C351.533 780.051 351.714 779.32 352.077 778.712C352.44 778.104 352.936 777.64 353.565 777.32C354.194 777 354.904 776.84 355.693 776.84C356.482 776.84 357.192 777 357.821 777.32C358.45 777.64 358.946 778.104 359.309 778.712C359.672 779.32 359.853 780.051 359.853 780.904V781.16C359.853 782.013 359.672 782.744 359.309 783.352C358.946 783.96 358.45 784.424 357.821 784.744C357.192 785.064 356.482 785.224 355.693 785.224ZM355.693 783.432C356.312 783.432 356.824 783.235 357.229 782.84C357.634 782.435 357.837 781.859 357.837 781.112V780.952C357.837 780.205 357.634 779.635 357.229 779.24C356.834 778.835 356.322 778.632 355.693 778.632C355.074 778.632 354.562 778.835 354.157 779.24C353.752 779.635 353.549 780.205 353.549 780.952V781.112C353.549 781.859 353.752 782.435 354.157 782.84C354.562 783.235 355.074 783.432 355.693 783.432ZM361.714 785V777.064H363.698V778.104H363.986C364.114 777.827 364.354 777.565 364.706 777.32C365.058 777.064 365.591 776.936 366.306 776.936C366.924 776.936 367.463 777.08 367.922 777.368C368.391 777.645 368.754 778.035 369.01 778.536C369.266 779.027 369.394 779.603 369.394 780.264V785H367.378V780.424C367.378 779.827 367.228 779.379 366.93 779.08C366.642 778.781 366.226 778.632 365.682 778.632C365.063 778.632 364.583 778.84 364.242 779.256C363.9 779.661 363.73 780.232 363.73 780.968V785H361.714ZM374.869 785.224C373.834 785.224 372.986 785 372.325 784.552C371.664 784.104 371.264 783.464 371.125 782.632L372.981 782.152C373.056 782.525 373.178 782.819 373.349 783.032C373.53 783.245 373.749 783.4 374.005 783.496C374.272 783.581 374.56 783.624 374.869 783.624C375.338 783.624 375.685 783.544 375.909 783.384C376.133 783.213 376.245 783.005 376.245 782.76C376.245 782.515 376.138 782.328 375.925 782.2C375.712 782.061 375.37 781.949 374.901 781.864L374.453 781.784C373.898 781.677 373.392 781.533 372.933 781.352C372.474 781.16 372.106 780.899 371.829 780.568C371.552 780.237 371.413 779.811 371.413 779.288C371.413 778.499 371.701 777.896 372.277 777.48C372.853 777.053 373.61 776.84 374.549 776.84C375.434 776.84 376.17 777.037 376.757 777.432C377.344 777.827 377.728 778.344 377.909 778.984L376.037 779.56C375.952 779.155 375.776 778.867 375.509 778.696C375.253 778.525 374.933 778.44 374.549 778.44C374.165 778.44 373.872 778.509 373.669 778.648C373.466 778.776 373.365 778.957 373.365 779.192C373.365 779.448 373.472 779.64 373.685 779.768C373.898 779.885 374.186 779.976 374.549 780.04L374.997 780.12C375.594 780.227 376.133 780.371 376.613 780.552C377.104 780.723 377.488 780.973 377.765 781.304C378.053 781.624 378.197 782.061 378.197 782.616C378.197 783.448 377.893 784.093 377.285 784.552C376.688 785 375.882 785.224 374.869 785.224ZM382.848 785C382.325 785 381.898 784.84 381.568 784.52C381.248 784.189 381.088 783.752 381.088 783.208V778.728H379.104V777.064H381.088V774.6H383.104V777.064H385.28V778.728H383.104V782.856C383.104 783.176 383.253 783.336 383.552 783.336H385.088V785H382.848ZM387.104 785V777.064H389.088V777.96H389.376C389.494 777.64 389.686 777.405 389.952 777.256C390.23 777.107 390.55 777.032 390.912 777.032H391.872V778.824H390.88C390.368 778.824 389.947 778.963 389.616 779.24C389.286 779.507 389.12 779.923 389.12 780.488V785H387.104ZM396.472 785.128C395.853 785.128 395.309 784.989 394.84 784.712C394.381 784.424 394.024 784.029 393.768 783.528C393.512 783.027 393.384 782.451 393.384 781.8V777.064H395.4V781.64C395.4 782.237 395.544 782.685 395.832 782.984C396.131 783.283 396.552 783.432 397.096 783.432C397.715 783.432 398.195 783.229 398.536 782.824C398.877 782.408 399.048 781.832 399.048 781.096V777.064H401.064V785H399.08V783.96H398.792C398.664 784.227 398.424 784.488 398.072 784.744C397.72 785 397.187 785.128 396.472 785.128ZM407.036 785.224C406.268 785.224 405.569 785.064 404.94 784.744C404.321 784.424 403.83 783.96 403.468 783.352C403.105 782.744 402.924 782.008 402.924 781.144V780.92C402.924 780.056 403.105 779.32 403.468 778.712C403.83 778.104 404.321 777.64 404.94 777.32C405.569 777 406.268 776.84 407.036 776.84C407.793 776.84 408.444 776.973 408.988 777.24C409.532 777.507 409.969 777.875 410.3 778.344C410.641 778.803 410.865 779.325 410.972 779.912L409.02 780.328C408.977 780.008 408.881 779.72 408.732 779.464C408.582 779.208 408.369 779.005 408.092 778.856C407.825 778.707 407.489 778.632 407.084 778.632C406.678 778.632 406.31 778.723 405.98 778.904C405.66 779.075 405.404 779.336 405.212 779.688C405.03 780.029 404.94 780.451 404.94 780.952V781.112C404.94 781.613 405.03 782.04 405.212 782.392C405.404 782.733 405.66 782.995 405.98 783.176C406.31 783.347 406.678 783.432 407.084 783.432C407.692 783.432 408.15 783.277 408.46 782.968C408.78 782.648 408.982 782.232 409.068 781.72L411.02 782.184C410.881 782.749 410.641 783.267 410.3 783.736C409.969 784.195 409.532 784.557 408.988 784.824C408.444 785.091 407.793 785.224 407.036 785.224ZM415.457 785C414.934 785 414.508 784.84 414.177 784.52C413.857 784.189 413.697 783.752 413.697 783.208V778.728H411.713V777.064H413.697V774.6H415.713V777.064H417.889V778.728H415.713V782.856C415.713 783.176 415.862 783.336 416.161 783.336H417.697V785H415.457ZM419.714 785V777.064H421.73V785H419.714ZM420.722 776.136C420.359 776.136 420.05 776.019 419.794 775.784C419.548 775.549 419.426 775.24 419.426 774.856C419.426 774.472 419.548 774.163 419.794 773.928C420.05 773.693 420.359 773.576 420.722 773.576C421.095 773.576 421.404 773.693 421.65 773.928C421.895 774.163 422.018 774.472 422.018 774.856C422.018 775.24 421.895 775.549 421.65 775.784C421.404 776.019 421.095 776.136 420.722 776.136ZM427.74 785.224C426.95 785.224 426.241 785.064 425.612 784.744C424.982 784.424 424.486 783.96 424.124 783.352C423.761 782.744 423.58 782.013 423.58 781.16V780.904C423.58 780.051 423.761 779.32 424.124 778.712C424.486 778.104 424.982 777.64 425.612 777.32C426.241 777 426.95 776.84 427.74 776.84C428.529 776.84 429.238 777 429.868 777.32C430.497 777.64 430.993 778.104 431.356 778.712C431.718 779.32 431.9 780.051 431.9 780.904V781.16C431.9 782.013 431.718 782.744 431.356 783.352C430.993 783.96 430.497 784.424 429.868 784.744C429.238 785.064 428.529 785.224 427.74 785.224ZM427.74 783.432C428.358 783.432 428.87 783.235 429.276 782.84C429.681 782.435 429.884 781.859 429.884 781.112V780.952C429.884 780.205 429.681 779.635 429.276 779.24C428.881 778.835 428.369 778.632 427.74 778.632C427.121 778.632 426.609 778.835 426.204 779.24C425.798 779.635 425.596 780.205 425.596 780.952V781.112C425.596 781.859 425.798 782.435 426.204 782.84C426.609 783.235 427.121 783.432 427.74 783.432ZM433.761 785V777.064H435.745V778.104H436.033C436.161 777.827 436.401 777.565 436.753 777.32C437.105 777.064 437.638 776.936 438.353 776.936C438.971 776.936 439.51 777.08 439.969 777.368C440.438 777.645 440.801 778.035 441.057 778.536C441.313 779.027 441.441 779.603 441.441 780.264V785H439.425V780.424C439.425 779.827 439.275 779.379 438.977 779.08C438.689 778.781 438.273 778.632 437.729 778.632C437.11 778.632 436.63 778.84 436.289 779.256C435.947 779.661 435.777 780.232 435.777 780.968V785H433.761Z" fill="white"/>
<path fill-rule="evenodd" clip-rule="evenodd" d="M375.271 143.708V179.254H360.57L389.971 214.801L419.373 179.254H404.672V143.708H375.271Z" fill="url(#paint7_linear_804_6045)"/>
<path d="M392.958 1069.85C407.957 1069.85 420.116 1057.69 420.116 1042.69C420.116 1027.69 407.957 1015.53 392.958 1015.53C377.959 1015.53 365.8 1027.69 365.8 1042.69C365.8 1057.69 377.959 1069.85 392.958 1069.85Z" fill="url(#paint8_radial_804_6045)"/>
<path fill-rule="evenodd" clip-rule="evenodd" d="M391.637 1037.74C391.637 1043.23 387.188 1047.68 381.698 1047.68C376.209 1047.68 371.759 1043.23 371.759 1037.74C371.759 1032.25 376.209 1027.8 381.698 1027.8C387.188 1027.8 391.637 1032.25 391.637 1037.74Z" fill="#F1F2F4"/>
<path d="M506.158 122.317C521.157 122.317 533.317 110.157 533.317 95.1584C533.317 80.1592 521.157 68 506.158 68C491.159 68 479 80.1592 479 95.1584C479 110.157 491.159 122.317 506.158 122.317Z" fill="url(#paint9_radial_804_6045)"/>
<path fill-rule="evenodd" clip-rule="evenodd" d="M504.837 90.2075C504.837 95.6969 500.388 100.146 494.898 100.146C489.409 100.146 484.959 95.6969 484.959 90.2075C484.959 84.7181 489.409 80.2686 494.898 80.2686C500.388 80.2686 504.837 84.7181 504.837 90.2075Z" fill="#F1F2F4"/>
<path d="M410.158 93.3166C425.157 93.3166 437.317 81.1575 437.317 66.1584C437.317 51.1592 425.157 39 410.158 39C395.159 39 383 51.1592 383 66.1584C383 81.1575 395.159 93.3166 410.158 93.3166Z" fill="url(#paint10_radial_804_6045)"/>
<path fill-rule="evenodd" clip-rule="evenodd" d="M408.837 61.2075C408.837 66.6969 404.388 71.1464 398.898 71.1464C393.409 71.1464 388.959 66.6969 388.959 61.2075C388.959 55.7181 393.409 51.2686 398.898 51.2686C404.388 51.2686 408.837 55.7181 408.837 61.2075Z" fill="#F1F2F4"/>
<path d="M271.158 94.3166C286.157 94.3166 298.317 82.1575 298.317 67.1584C298.317 52.1592 286.157 40 271.158 40C256.159 40 244 52.1592 244 67.1584C244 82.1575 256.159 94.3166 271.158 94.3166Z" fill="url(#paint11_radial_804_6045)"/>
<path fill-rule="evenodd" clip-rule="evenodd" d="M269.837 62.2075C269.837 67.6969 265.388 72.1464 259.898 72.1464C254.409 72.1464 249.959 67.6969 249.959 62.2075C249.959 56.7181 254.409 52.2686 259.898 52.2686C265.388 52.2686 269.837 56.7181 269.837 62.2075Z" fill="#F1F2F4"/>
<path d="M253.048 164.416C264.672 164.416 274.096 154.993 274.096 143.368C274.096 131.744 264.672 122.32 253.048 122.32C241.423 122.32 232 131.744 232 143.368C232 154.993 241.423 164.416 253.048 164.416Z" fill="url(#paint12_radial_804_6045)"/>
<path fill-rule="evenodd" clip-rule="evenodd" d="M252.024 139.531C252.024 143.785 248.576 147.234 244.321 147.234C240.067 147.234 236.619 143.785 236.619 139.531C236.619 135.277 240.067 131.828 244.321 131.828C248.576 131.828 252.024 135.277 252.024 139.531Z" fill="#F1F2F4"/>
<path d="M338.632 147.096C350.257 147.096 359.68 137.672 359.68 126.048C359.68 114.424 350.257 105 338.632 105C327.008 105 317.584 114.424 317.584 126.048C317.584 137.672 327.008 147.096 338.632 147.096Z" fill="url(#paint13_radial_804_6045)"/>
<path fill-rule="evenodd" clip-rule="evenodd" d="M337.608 122.211C337.608 126.465 334.16 129.913 329.906 129.913C325.651 129.913 322.203 126.465 322.203 122.211C322.203 117.956 325.651 114.508 329.906 114.508C334.16 114.508 337.608 117.956 337.608 122.211Z" fill="#F1F2F4"/>
<path d="M189.048 122.096C200.672 122.096 210.096 112.672 210.096 101.048C210.096 89.4235 200.672 80 189.048 80C177.423 80 168 89.4235 168 101.048C168 112.672 177.423 122.096 189.048 122.096Z" fill="url(#paint14_radial_804_6045)"/>
<path fill-rule="evenodd" clip-rule="evenodd" d="M188.024 97.2106C188.024 101.465 184.576 104.913 180.321 104.913C176.067 104.913 172.619 101.465 172.619 97.2106C172.619 92.9562 176.067 89.5078 180.321 89.5078C184.576 89.5078 188.024 92.9562 188.024 97.2106Z" fill="#F1F2F4"/>
<path d="M335.5 74.3164C344.06 74.3164 351 67.3768 351 58.8164C351 50.256 344.06 43.3164 335.5 43.3164C326.94 43.3164 320 50.256 320 58.8164C320 67.3768 326.94 74.3164 335.5 74.3164Z" fill="url(#paint15_radial_804_6045)"/>
<path fill-rule="evenodd" clip-rule="evenodd" d="M334.746 55.9908C334.746 59.1237 332.207 61.6632 329.074 61.6632C325.941 61.6632 323.401 59.1237 323.401 55.9908C323.401 52.8578 325.941 50.3184 329.074 50.3184C332.207 50.3184 334.746 52.8578 334.746 55.9908Z" fill="#F1F2F4"/>
<path d="M568.5 80C577.06 80 584 73.0604 584 64.5C584 55.9396 577.06 49 568.5 49C559.94 49 553 55.9396 553 64.5C553 73.0604 559.94 80 568.5 80Z" fill="url(#paint16_radial_804_6045)"/>
<path fill-rule="evenodd" clip-rule="evenodd" d="M567.746 61.6744C567.746 64.8073 565.207 67.3468 562.074 67.3468C558.941 67.3468 556.401 64.8073 556.401 61.6744C556.401 58.5414 558.941 56.002 562.074 56.002C565.207 56.002 567.746 58.5414 567.746 61.6744Z" fill="#F1F2F4"/>
<path d="M487.5 50C496.06 50 503 43.0604 503 34.5C503 25.9396 496.06 19 487.5 19C478.94 19 472 25.9396 472 34.5C472 43.0604 478.94 50 487.5 50Z" fill="url(#paint17_radial_804_6045)"/>
<path fill-rule="evenodd" clip-rule="evenodd" d="M486.746 31.6744C486.746 34.8073 484.207 37.3468 481.074 37.3468C477.941 37.3468 475.401 34.8073 475.401 31.6744C475.401 28.5414 477.941 26.002 481.074 26.002C484.207 26.002 486.746 28.5414 486.746 31.6744Z" fill="#F1F2F4"/>
<path d="M428.5 32C433.747 32 438 27.7467 438 22.5C438 17.2533 433.747 13 428.5 13C423.253 13 419 17.2533 419 22.5C419 27.7467 423.253 32 428.5 32Z" fill="url(#paint18_radial_804_6045)"/>
<path fill-rule="evenodd" clip-rule="evenodd" d="M428.038 20.7682C428.038 22.6883 426.482 24.2448 424.561 24.2448C422.641 24.2448 421.085 22.6883 421.085 20.7682C421.085 18.848 422.641 17.2915 424.561 17.2915C426.482 17.2915 428.038 18.848 428.038 20.7682Z" fill="#F1F2F4"/>
<path d="M303.5 19C308.747 19 313 14.7467 313 9.50002C313 4.25331 308.747 0 303.5 0C298.253 0 294 4.25331 294 9.50002C294 14.7467 298.253 19 303.5 19Z" fill="url(#paint19_radial_804_6045)"/>
<path fill-rule="evenodd" clip-rule="evenodd" d="M303.038 7.76815C303.038 9.68835 301.482 11.2448 299.561 11.2448C297.641 11.2448 296.085 9.68835 296.085 7.76815C296.085 5.84795 297.641 4.2915 299.561 4.2915C301.482 4.2915 303.038 5.84795 303.038 7.76815Z" fill="#F1F2F4"/>
<path d="M387.5 119C392.747 119 397 114.747 397 109.5C397 104.253 392.747 100 387.5 100C382.253 100 378 104.253 378 109.5C378 114.747 382.253 119 387.5 119Z" fill="url(#paint20_radial_804_6045)"/>
<path fill-rule="evenodd" clip-rule="evenodd" d="M387.038 107.769C387.038 109.689 385.482 111.245 383.561 111.245C381.641 111.245 380.085 109.689 380.085 107.769C380.085 105.848 381.641 104.292 383.561 104.292C385.482 104.292 387.038 105.848 387.038 107.769Z" fill="#F1F2F4"/>
<path d="M452.5 115C457.747 115 462 110.747 462 105.5C462 100.253 457.747 96 452.5 96C447.253 96 443 100.253 443 105.5C443 110.747 447.253 115 452.5 115Z" fill="url(#paint21_radial_804_6045)"/>
<path fill-rule="evenodd" clip-rule="evenodd" d="M452.038 103.769C452.038 105.689 450.482 107.245 448.561 107.245C446.641 107.245 445.085 105.689 445.085 103.769C445.085 101.848 446.641 100.292 448.561 100.292C450.482 100.292 452.038 101.848 452.038 103.769Z" fill="#F1F2F4"/>
<path d="M496.5 196C501.747 196 506 191.747 506 186.5C506 181.253 501.747 177 496.5 177C491.253 177 487 181.253 487 186.5C487 191.747 491.253 196 496.5 196Z" fill="url(#paint22_radial_804_6045)"/>
<path fill-rule="evenodd" clip-rule="evenodd" d="M496.038 184.769C496.038 186.689 494.482 188.245 492.561 188.245C490.641 188.245 489.085 186.689 489.085 184.769C489.085 182.848 490.641 181.292 492.561 181.292C494.482 181.292 496.038 182.848 496.038 184.769Z" fill="#F1F2F4"/>
<path d="M313.5 196C322.06 196 329 189.06 329 180.5C329 171.94 322.06 165 313.5 165C304.94 165 298 171.94 298 180.5C298 189.06 304.94 196 313.5 196Z" fill="url(#paint23_radial_804_6045)"/>
<path fill-rule="evenodd" clip-rule="evenodd" d="M312.746 177.674C312.746 180.807 310.207 183.347 307.074 183.347C303.941 183.347 301.401 180.807 301.401 177.674C301.401 174.541 303.941 172.002 307.074 172.002C310.207 172.002 312.746 174.541 312.746 177.674Z" fill="#F1F2F4"/>
<path d="M553.5 175C562.06 175 569 168.06 569 159.5C569 150.94 562.06 144 553.5 144C544.94 144 538 150.94 538 159.5C538 168.06 544.94 175 553.5 175Z" fill="url(#paint24_radial_804_6045)"/>
<path fill-rule="evenodd" clip-rule="evenodd" d="M552.746 156.674C552.746 159.807 550.207 162.347 547.074 162.347C543.941 162.347 541.401 159.807 541.401 156.674C541.401 153.541 543.941 151.002 547.074 151.002C550.207 151.002 552.746 153.541 552.746 156.674Z" fill="#F1F2F4"/>
<path d="M463.952 164.416C475.576 164.416 485 154.993 485 143.368C485 131.744 475.576 122.32 463.952 122.32C452.328 122.32 442.904 131.744 442.904 143.368C442.904 154.993 452.328 164.416 463.952 164.416Z" fill="url(#paint25_radial_804_6045)"/>
<path fill-rule="evenodd" clip-rule="evenodd" d="M462.928 139.531C462.928 143.785 459.48 147.234 455.225 147.234C450.971 147.234 447.523 143.785 447.523 139.531C447.523 135.277 450.971 131.828 455.225 131.828C459.48 131.828 462.928 135.277 462.928 139.531Z" fill="#F1F2F4"/>
<path d="M358.45 938.948C371.007 938.948 381.187 928.768 381.187 916.21C381.187 903.653 371.007 893.473 358.45 893.473C345.892 893.473 335.712 903.653 335.712 916.21C335.712 928.768 345.892 938.948 358.45 938.948Z" fill="url(#paint26_radial_804_6045)"/>
<path fill-rule="evenodd" clip-rule="evenodd" d="M357.344 912.065C357.344 916.661 353.619 920.386 349.023 920.386C344.427 920.386 340.702 916.661 340.702 912.065C340.702 907.469 344.427 903.744 349.023 903.744C353.619 903.744 357.344 907.469 357.344 912.065Z" fill="#F1F2F4"/>
<path d="M439.369 997.799C448.602 997.799 456.088 990.314 456.088 981.08C456.088 971.847 448.602 964.361 439.369 964.361C430.135 964.361 422.65 971.847 422.65 981.08C422.65 990.314 430.135 997.799 439.369 997.799Z" fill="url(#paint27_radial_804_6045)"/>
<path fill-rule="evenodd" clip-rule="evenodd" d="M438.556 978.033C438.556 981.412 435.817 984.151 432.437 984.151C429.058 984.151 426.319 981.412 426.319 978.033C426.319 974.653 429.058 971.914 432.437 971.914C435.817 971.914 438.556 974.653 438.556 978.033Z" fill="#F1F2F4"/>
<path d="M381.188 988.435C387.097 988.435 391.888 983.645 391.888 977.735C391.888 971.826 387.097 967.035 381.188 967.035C375.278 967.035 370.488 971.826 370.488 977.735C370.488 983.645 375.278 988.435 381.188 988.435Z" fill="url(#paint28_radial_804_6045)"/>
<path fill-rule="evenodd" clip-rule="evenodd" d="M380.667 975.785C380.667 977.948 378.914 979.701 376.751 979.701C374.589 979.701 372.835 977.948 372.835 975.785C372.835 973.622 374.589 971.869 376.751 971.869C378.914 971.869 380.667 973.622 380.667 975.785Z" fill="#F1F2F4"/>
<path d="M442.712 924.236C448.622 924.236 453.412 919.445 453.412 913.536C453.412 907.627 448.622 902.836 442.712 902.836C436.803 902.836 432.012 907.627 432.012 913.536C432.012 919.445 436.803 924.236 442.712 924.236Z" fill="url(#paint29_radial_804_6045)"/>
<path fill-rule="evenodd" clip-rule="evenodd" d="M442.192 911.586C442.192 913.748 440.439 915.502 438.276 915.502C436.113 915.502 434.36 913.748 434.36 911.586C434.36 909.423 436.113 907.67 438.276 907.67C440.439 907.67 442.192 909.423 442.192 911.586Z" fill="#F1F2F4"/>
<path d="M389.212 882.773C395.122 882.773 399.912 877.983 399.912 872.073C399.912 866.164 395.122 861.373 389.212 861.373C383.303 861.373 378.512 866.164 378.512 872.073C378.512 877.983 383.303 882.773 389.212 882.773Z" fill="url(#paint30_radial_804_6045)"/>
<path fill-rule="evenodd" clip-rule="evenodd" d="M388.692 870.123C388.692 872.286 386.939 874.039 384.776 874.039C382.613 874.039 380.86 872.286 380.86 870.123C380.86 867.96 382.613 866.207 384.776 866.207C386.939 866.207 388.692 867.96 388.692 870.123Z" fill="#F1F2F4"/>
<path d="M358.45 847.998C362.143 847.998 365.137 845.004 365.137 841.311C365.137 837.617 362.143 834.623 358.45 834.623C354.757 834.623 351.762 837.617 351.762 841.311C351.762 845.004 354.757 847.998 358.45 847.998Z" fill="url(#paint31_radial_804_6045)"/>
<path fill-rule="evenodd" clip-rule="evenodd" d="M358.125 840.092C358.125 841.444 357.029 842.539 355.677 842.539C354.326 842.539 353.23 841.444 353.23 840.092C353.23 838.74 354.326 837.645 355.677 837.645C357.029 837.645 358.125 838.74 358.125 840.092Z" fill="#F1F2F4"/>
<path d="M407.938 837.297C410.154 837.297 411.95 835.501 411.95 833.285C411.95 831.069 410.154 829.272 407.938 829.272C405.722 829.272 403.925 831.069 403.925 833.285C403.925 835.501 405.722 837.297 407.938 837.297Z" fill="url(#paint32_radial_804_6045)"/>
<path fill-rule="evenodd" clip-rule="evenodd" d="M407.742 832.554C407.742 833.365 407.085 834.023 406.274 834.023C405.463 834.023 404.805 833.365 404.805 832.554C404.805 831.743 405.463 831.086 406.274 831.086C407.085 831.086 407.742 831.743 407.742 832.554Z" fill="#F1F2F4"/>
<defs>
<linearGradient id="paint0_linear_804_6045" x1="301.74" y1="772.042" x2="510.967" y2="772.042" gradientUnits="userSpaceOnUse">
<stop stop-color="#E66B12"/>
<stop offset="1" stop-color="#DEC021"/>
</linearGradient>
<linearGradient id="paint1_linear_804_6045" x1="272.888" y1="674.974" x2="506.306" y2="674.974" gradientUnits="userSpaceOnUse">
<stop stop-color="#0F2FD6"/>
<stop offset="1" stop-color="#0DCECE"/>
</linearGradient>
<linearGradient id="paint2_linear_804_6045" x1="238.828" y1="579.116" x2="573.191" y2="579.116" gradientUnits="userSpaceOnUse">
<stop stop-color="#203CD2"/>
<stop offset="1" stop-color="#FF66E7"/>
</linearGradient>
<linearGradient id="paint3_linear_804_6045" x1="204.466" y1="482.937" x2="575.125" y2="482.863" gradientUnits="userSpaceOnUse">
<stop stop-color="#FE14A0"/>
<stop offset="1" stop-color="#DA73B7"/>
</linearGradient>
<linearGradient id="paint4_linear_804_6045" x1="169.601" y1="385.049" x2="657.121" y2="385.049" gradientUnits="userSpaceOnUse">
<stop stop-color="#F77F11"/>
<stop offset="0.4" stop-color="#EAC749"/>
<stop offset="1" stop-color="#EABD49"/>
</linearGradient>
<radialGradient id="paint5_radial_804_6045" cx="0" cy="0" r="1" gradientUnits="userSpaceOnUse" gradientTransform="translate(389.597 237.563) scale(227.844 10.8909)">
<stop offset="0.4" stop-color="#A9FF53"/>
<stop offset="1" stop-color="#508DB6"/>
</radialGradient>
<linearGradient id="paint6_linear_804_6045" x1="152" y1="282.5" x2="662.5" y2="289" gradientUnits="userSpaceOnUse">
<stop offset="0.0208333" stop-color="#00BE0E"/>
<stop offset="1" stop-color="#FFF500"/>
</linearGradient>
<linearGradient id="paint7_linear_804_6045" x1="360.57" y1="179.254" x2="419.374" y2="179.254" gradientUnits="userSpaceOnUse">
<stop stop-color="#28E930"/>
<stop offset="1" stop-color="#09CC9E"/>
</linearGradient>
<radialGradient id="paint8_radial_804_6045" cx="0" cy="0" r="1" gradientUnits="userSpaceOnUse" gradientTransform="translate(392.958 1042.69) scale(27.1582)">
<stop offset="0.4" stop-color="#53FFB7"/>
<stop offset="1" stop-color="#1AE9DC"/>
</radialGradient>
<radialGradient id="paint9_radial_804_6045" cx="0" cy="0" r="1" gradientUnits="userSpaceOnUse" gradientTransform="translate(506.158 95.1585) scale(27.1582)">
<stop offset="0.4" stop-color="#BEBEBE"/>
<stop offset="1" stop-color="#808383"/>
</radialGradient>
<radialGradient id="paint10_radial_804_6045" cx="0" cy="0" r="1" gradientUnits="userSpaceOnUse" gradientTransform="translate(410.158 66.1585) scale(27.1582)">
<stop offset="0.4" stop-color="#BEBEBE"/>
<stop offset="1" stop-color="#808383"/>
</radialGradient>
<radialGradient id="paint11_radial_804_6045" cx="0" cy="0" r="1" gradientUnits="userSpaceOnUse" gradientTransform="translate(271.158 67.1585) scale(27.1582)">
<stop offset="0.4" stop-color="#BEBEBE"/>
<stop offset="1" stop-color="#808383"/>
</radialGradient>
<radialGradient id="paint12_radial_804_6045" cx="0" cy="0" r="1" gradientUnits="userSpaceOnUse" gradientTransform="translate(253.048 143.368) scale(21.0478)">
<stop offset="0.4" stop-color="#BEBEBE"/>
<stop offset="1" stop-color="#808383"/>
</radialGradient>
<radialGradient id="paint13_radial_804_6045" cx="0" cy="0" r="1" gradientUnits="userSpaceOnUse" gradientTransform="translate(338.632 126.048) scale(21.0478)">
<stop offset="0.4" stop-color="#BEBEBE"/>
<stop offset="1" stop-color="#808383"/>
</radialGradient>
<radialGradient id="paint14_radial_804_6045" cx="0" cy="0" r="1" gradientUnits="userSpaceOnUse" gradientTransform="translate(189.048 101.048) scale(21.0478)">
<stop offset="0.4" stop-color="#BEBEBE"/>
<stop offset="1" stop-color="#808383"/>
</radialGradient>
<radialGradient id="paint15_radial_804_6045" cx="0" cy="0" r="1" gradientUnits="userSpaceOnUse" gradientTransform="translate(335.5 58.8165) scale(15.4999)">
<stop offset="0.4" stop-color="#BEBEBE"/>
<stop offset="1" stop-color="#808383"/>
</radialGradient>
<radialGradient id="paint16_radial_804_6045" cx="0" cy="0" r="1" gradientUnits="userSpaceOnUse" gradientTransform="translate(568.5 64.5001) scale(15.4999)">
<stop offset="0.4" stop-color="#BEBEBE"/>
<stop offset="1" stop-color="#808383"/>
</radialGradient>
<radialGradient id="paint17_radial_804_6045" cx="0" cy="0" r="1" gradientUnits="userSpaceOnUse" gradientTransform="translate(487.5 34.5001) scale(15.4999)">
<stop offset="0.4" stop-color="#BEBEBE"/>
<stop offset="1" stop-color="#808383"/>
</radialGradient>
<radialGradient id="paint18_radial_804_6045" cx="0" cy="0" r="1" gradientUnits="userSpaceOnUse" gradientTransform="translate(428.5 22.5001) scale(9.49995)">
<stop offset="0.4" stop-color="#BEBEBE"/>
<stop offset="1" stop-color="#808383"/>
</radialGradient>
<radialGradient id="paint19_radial_804_6045" cx="0" cy="0" r="1" gradientUnits="userSpaceOnUse" gradientTransform="translate(303.5 9.50005) scale(9.49995)">
<stop offset="0.4" stop-color="#BEBEBE"/>
<stop offset="1" stop-color="#808383"/>
</radialGradient>
<radialGradient id="paint20_radial_804_6045" cx="0" cy="0" r="1" gradientUnits="userSpaceOnUse" gradientTransform="translate(387.5 109.5) scale(9.49995)">
<stop offset="0.4" stop-color="#BEBEBE"/>
<stop offset="1" stop-color="#808383"/>
</radialGradient>
<radialGradient id="paint21_radial_804_6045" cx="0" cy="0" r="1" gradientUnits="userSpaceOnUse" gradientTransform="translate(452.5 105.5) scale(9.49995)">
<stop offset="0.4" stop-color="#BEBEBE"/>
<stop offset="1" stop-color="#808383"/>
</radialGradient>
<radialGradient id="paint22_radial_804_6045" cx="0" cy="0" r="1" gradientUnits="userSpaceOnUse" gradientTransform="translate(496.5 186.5) scale(9.49995)">
<stop offset="0.4" stop-color="#BEBEBE"/>
<stop offset="1" stop-color="#808383"/>
</radialGradient>
<radialGradient id="paint23_radial_804_6045" cx="0" cy="0" r="1" gradientUnits="userSpaceOnUse" gradientTransform="translate(313.5 180.5) scale(15.4999)">
<stop offset="0.4" stop-color="#BEBEBE"/>
<stop offset="1" stop-color="#808383"/>
</radialGradient>
<radialGradient id="paint24_radial_804_6045" cx="0" cy="0" r="1" gradientUnits="userSpaceOnUse" gradientTransform="translate(553.5 159.5) scale(15.4999)">
<stop offset="0.4" stop-color="#BEBEBE"/>
<stop offset="1" stop-color="#808383"/>
</radialGradient>
<radialGradient id="paint25_radial_804_6045" cx="0" cy="0" r="1" gradientUnits="userSpaceOnUse" gradientTransform="translate(463.952 143.368) scale(21.0478)">
<stop offset="0.4" stop-color="#BEBEBE"/>
<stop offset="1" stop-color="#808383"/>
</radialGradient>
<radialGradient id="paint26_radial_804_6045" cx="0" cy="0" r="1" gradientUnits="userSpaceOnUse" gradientTransform="translate(358.45 916.21) scale(22.7374)">
<stop offset="0.4" stop-color="#53FFB7"/>
<stop offset="1" stop-color="#1AE9DC"/>
</radialGradient>
<radialGradient id="paint27_radial_804_6045" cx="0" cy="0" r="1" gradientUnits="userSpaceOnUse" gradientTransform="translate(439.369 981.08) scale(16.7187)">
<stop offset="0.4" stop-color="#53FFB7"/>
<stop offset="1" stop-color="#1AE9DC"/>
</radialGradient>
<radialGradient id="paint28_radial_804_6045" cx="0" cy="0" r="1" gradientUnits="userSpaceOnUse" gradientTransform="translate(381.188 977.735) scale(10.6999)">
<stop offset="0.4" stop-color="#53FFB7"/>
<stop offset="1" stop-color="#1AE9DC"/>
</radialGradient>
<radialGradient id="paint29_radial_804_6045" cx="0" cy="0" r="1" gradientUnits="userSpaceOnUse" gradientTransform="translate(442.712 913.536) scale(10.6999)">
<stop offset="0.4" stop-color="#53FFB7"/>
<stop offset="1" stop-color="#1AE9DC"/>
</radialGradient>
<radialGradient id="paint30_radial_804_6045" cx="0" cy="0" r="1" gradientUnits="userSpaceOnUse" gradientTransform="translate(389.212 872.073) scale(10.6999)">
<stop offset="0.4" stop-color="#53FFB7"/>
<stop offset="1" stop-color="#1AE9DC"/>
</radialGradient>
<radialGradient id="paint31_radial_804_6045" cx="0" cy="0" r="1" gradientUnits="userSpaceOnUse" gradientTransform="translate(358.45 841.311) scale(6.68746)">
<stop offset="0.4" stop-color="#53FFB7"/>
<stop offset="1" stop-color="#1AE9DC"/>
</radialGradient>
<radialGradient id="paint32_radial_804_6045" cx="0" cy="0" r="1" gradientUnits="userSpaceOnUse" gradientTransform="translate(407.938 833.285) scale(4.01248)">
<stop offset="0.4" stop-color="#53FFB7"/>
<stop offset="1" stop-color="#1AE9DC"/>
</radialGradient>
</defs>
</svg>
