<svg width="120" height="120" viewBox="0 0 120 120" fill="none" xmlns="http://www.w3.org/2000/svg">
<path d="M60 120C93.1371 120 120 93.1371 120 60C120 26.8629 93.1371 0 60 0C26.8629 0 0 26.8629 0 60C0 93.1371 26.8629 120 60 120Z" fill="url(#paint0_linear_1467_6238)"/>
<mask id="mask0_1467_6238" style="mask-type:luminance" maskUnits="userSpaceOnUse" x="0" y="0" width="120" height="120">
<path d="M60 120C93.1371 120 120 93.1371 120 60C120 26.8629 93.1371 0 60 0C26.8629 0 0 26.8629 0 60C0 93.1371 26.8629 120 60 120Z" fill="white"/>
</mask>
<g mask="url(#mask0_1467_6238)">
<path d="M86.7006 33.6654V53.6067C86.7006 53.8956 86.6936 54.1839 86.6872 54.4722C86.6744 55.0692 86.6413 55.6655 86.589 56.2555C86.5762 56.459 86.5558 56.6618 86.5296 56.8652C86.4442 57.7109 86.3268 58.5439 86.1757 59.3705C86.1227 59.646 86.0704 59.9145 86.0111 60.1837C86.0047 60.2424 85.992 60.2953 85.9786 60.3476C85.9256 60.6231 85.86 60.8923 85.7949 61.1608C85.7687 61.3049 85.7292 61.4491 85.6967 61.5938C85.6635 61.7182 85.631 61.8432 85.5921 61.9676C85.4537 62.5052 85.2968 63.0302 85.1322 63.5544C85.0538 63.8038 84.9753 64.0462 84.8899 64.2955C84.8828 64.3217 84.8701 64.3478 84.8637 64.374C84.7846 64.5966 84.7062 64.8198 84.6277 65.0424C84.6016 65.1081 84.5754 65.1732 84.5486 65.2459C84.4702 65.4557 84.3918 65.6655 84.3063 65.8754C84.2081 66.1311 84.1035 66.3805 83.9982 66.6299C83.9064 66.8531 83.8082 67.0757 83.7099 67.2989C83.6972 67.3385 83.6768 67.371 83.664 67.4099C83.5524 67.6459 83.4478 67.8825 83.3362 68.1115C83.2246 68.3538 83.1066 68.5968 82.9816 68.8398C82.7456 69.3182 82.4898 69.7972 82.2341 70.2628C82.1161 70.4726 81.9981 70.6824 81.8795 70.8923C80.8698 72.6303 79.7486 74.263 78.5291 75.7708C78.3646 75.987 78.1949 76.1968 78.0176 76.4003C77.7746 76.6949 77.5252 76.9839 77.2765 77.2658C77.0533 77.5151 76.8307 77.7639 76.6011 78.0069C75.9716 78.6823 75.3287 79.3252 74.673 79.9286C74.5423 80.0599 74.4039 80.1779 74.2661 80.3023C74.0435 80.5058 73.8209 80.7022 73.5907 80.8923C73.414 81.0498 73.2303 81.2003 73.046 81.3515C72.574 81.738 72.1021 82.1117 71.6237 82.4593C71.4266 82.6105 71.2232 82.7546 71.0204 82.8924C70.6925 83.1284 70.3583 83.3516 70.0235 83.5678C69.8398 83.6922 69.6497 83.8102 69.459 83.9218C68.79 84.3351 68.1152 84.7152 67.4462 85.043C67.2822 85.1279 67.1183 85.207 66.9544 85.2854C66.7899 85.3639 66.6202 85.4429 66.4429 85.5214C66.2261 85.6196 66.0098 85.7114 65.7936 85.7969C65.7082 85.8365 65.6227 85.869 65.5379 85.8951C65.2828 86.0004 65.02 86.0986 64.7642 86.1834C64.4428 86.3014 64.1149 86.3996 63.7941 86.4915C63.5709 86.5572 63.3419 86.6158 63.1187 86.6681C63.1053 86.6752 63.0926 86.6815 63.0728 86.6815C62.8496 86.7338 62.627 86.7868 62.4037 86.8257C62.3444 86.8391 62.2864 86.8518 62.2271 86.8582C62.0434 86.8907 61.8597 86.9239 61.676 86.9437C61.4139 86.9832 61.1517 87.0157 60.8896 87.0291C60.7984 87.0419 60.7129 87.0489 60.6205 87.0489C60.4113 87.0623 60.2014 87.0687 59.9973 87.0687H59.9782C59.7747 87.0687 59.5713 87.0623 59.3685 87.0489C59.2894 87.0489 59.2109 87.0425 59.1318 87.0291C58.9488 87.0228 58.7581 87.0023 58.5617 86.9762C58.5221 86.9762 58.4762 86.9698 58.4373 86.9634C58.1943 86.9309 57.9519 86.8914 57.7025 86.8455C57.4934 86.8129 57.2835 86.7664 57.0667 86.7141C55.9454 86.4583 54.7916 86.0718 53.6245 85.5533C52.6276 85.1138 51.618 84.5832 50.6147 83.9664C50.1096 83.6584 49.6045 83.3306 49.1063 82.983C48.857 82.8056 48.6082 82.629 48.3588 82.4453C47.5782 81.8745 46.8045 81.252 46.0436 80.5829C45.8344 80.3929 45.6246 80.2028 45.4148 80.0057C45.2049 79.8157 44.9951 79.6192 44.7916 79.4292C44.2795 78.9374 43.7814 78.4259 43.296 77.8946C43.106 77.6918 42.9159 77.482 42.7252 77.2651C42.2009 76.6752 41.6894 76.0654 41.204 75.4289C41.0133 75.1993 40.8367 74.9633 40.6594 74.7273C39.9973 73.8491 39.3678 72.9307 38.7772 71.9797C38.6203 71.724 38.4628 71.4612 38.3123 71.2061C38.1286 70.898 37.9519 70.5836 37.7746 70.2685C37.119 69.0879 36.515 67.8621 35.9907 66.5961C35.9123 66.4124 35.8332 66.2287 35.7675 66.0457C35.6622 65.8097 35.5704 65.5667 35.4856 65.3307C35.3548 64.9831 35.2305 64.6355 35.1118 64.2879C34.9938 63.9403 34.8829 63.5863 34.7712 63.2323C34.666 62.8911 34.5678 62.5505 34.4759 62.2029C34.3707 61.8356 34.2731 61.4618 34.1877 61.0817C34.1806 61.0421 34.1679 61.0032 34.1615 60.9637C34.0371 60.4394 33.9255 59.9081 33.8273 59.3705C33.6959 58.6619 33.5913 57.9405 33.5122 57.2128C33.4797 56.9832 33.4599 56.7536 33.4402 56.524C33.414 56.2816 33.3949 56.045 33.3815 55.8027C33.3483 55.3632 33.3285 54.9174 33.3152 54.4716C33.3088 54.1827 33.3018 53.8944 33.3018 53.6061V33.6654C33.3018 18.931 45.2432 6.98385 59.9776 6.97046H60.0037C62.037 6.97046 64.0167 7.19943 65.918 7.62611C67.656 8.01963 69.3283 8.58344 70.9151 9.29841C73.0792 10.2691 75.092 11.5148 76.9021 13.0034C78.4233 14.2496 79.8073 15.6528 81.0133 17.2001C84.5761 21.738 86.7006 27.4494 86.7006 33.6654Z" fill="#ECC19C"/>
</g>
<mask id="mask1_1467_6238" style="mask-type:luminance" maskUnits="userSpaceOnUse" x="0" y="0" width="120" height="120">
<path d="M60 120C93.1371 120 120 93.1371 120 60C120 26.8629 93.1371 0 60 0C26.8629 0 0 26.8629 0 60C0 93.1371 26.8629 120 60 120Z" fill="white"/>
</mask>
<g mask="url(#mask1_1467_6238)">
<path d="M94.7844 128.032V128.038H25.2168V128.032C25.2168 124.104 25.8661 120.32 27.0728 116.799C27.289 116.163 27.525 115.534 27.7807 114.91V114.904C28.0359 114.281 28.305 113.671 28.5933 113.068C29.7413 110.648 31.1706 108.386 32.8295 106.314C33.2492 105.796 33.6752 105.291 34.1153 104.805C34.3315 104.556 34.5611 104.313 34.7907 104.071C35.0204 103.835 35.25 103.599 35.4859 103.363C36.6601 102.19 37.9185 101.114 39.2438 100.124C39.9059 99.6321 40.5749 99.1729 41.2701 98.727C41.9653 98.2876 42.6733 97.8679 43.3946 97.4744C43.408 97.4617 43.4208 97.4617 43.4208 97.4617C43.7027 97.3111 43.9782 97.1472 44.2537 96.9763C44.7984 96.6485 45.3354 96.2945 45.8476 95.9144C46.1097 95.7307 46.3591 95.5406 46.6078 95.3372C47.1978 94.8652 47.768 94.3601 48.3127 93.8288C48.4893 93.6521 48.6673 93.4748 48.8439 93.2911C49.2107 92.9103 49.5583 92.5104 49.8931 92.1042C50.0577 91.9077 50.2216 91.7043 50.3721 91.5008C50.5296 91.298 50.6802 91.0882 50.8313 90.8777C51.9985 89.2513 52.936 87.4617 53.6249 85.5527C54.4578 83.2312 54.91 80.7329 54.91 78.123L59.9792 78.1492L65.1919 78.1753C65.1919 80.752 65.6314 83.2241 66.4446 85.5196C67.1206 87.4342 68.0575 89.2245 69.2056 90.8509C70.3989 92.5423 71.8218 94.0507 73.4348 95.3423C73.6778 95.5393 73.9202 95.7294 74.1632 95.9061C74.3991 96.0834 74.6415 96.2537 74.8909 96.4176C74.9438 96.4571 74.9891 96.4897 75.042 96.5228C75.278 96.6804 75.514 96.8379 75.7634 96.982C76.0319 97.1459 76.3081 97.3099 76.583 97.461C76.6282 97.4738 76.6684 97.4935 76.7009 97.5203C77.2781 97.8418 77.849 98.176 78.4064 98.5236C78.6749 98.6875 78.9441 98.8578 79.2062 99.0485C79.7509 99.4025 80.2822 99.7762 80.7994 100.17C80.7994 100.177 80.8064 100.177 80.8064 100.177H80.8128C82.1375 101.167 83.3901 102.248 84.5637 103.416C90.883 109.711 94.7844 118.406 94.7844 128.032Z" fill="#ECC19C"/>
</g>
<mask id="mask2_1467_6238" style="mask-type:luminance" maskUnits="userSpaceOnUse" x="0" y="0" width="120" height="120">
<path d="M60 120C93.1371 120 120 93.1371 120 60C120 26.8629 93.1371 0 60 0C26.8629 0 0 26.8629 0 60C0 93.1371 26.8629 120 60 120Z" fill="white"/>
</mask>
<g mask="url(#mask2_1467_6238)">
<path d="M94.7853 128.033H25.2178C25.2178 124.105 25.8677 120.321 27.0738 116.8C27.29 116.164 27.526 115.535 27.7817 114.912C27.7747 114.905 27.7817 114.905 27.7817 114.905C28.0311 114.282 28.306 113.672 28.5943 113.069C29.7423 110.649 31.1716 108.387 32.8305 106.315C33.2502 105.796 33.6769 105.292 34.1163 104.806C34.3325 104.557 34.5621 104.315 34.7917 104.072C35.0213 103.836 35.2509 103.6 35.4869 103.364C36.6611 102.191 37.9195 101.115 39.2448 100.125C39.9068 99.6333 40.5759 99.174 41.2711 98.7282C41.9663 98.2824 42.6742 97.8627 43.3956 97.4692C43.409 97.4565 43.4217 97.4628 43.4217 97.4628V97.4565C43.7036 97.2989 43.9792 97.1414 44.2547 96.9775C45.0743 96.4794 45.8619 95.9283 46.596 95.325C46.6024 95.3313 46.6024 95.3313 46.6094 95.3377C50.0057 98.813 54.7337 100.97 59.9802 100.983H60.0325C65.2784 100.983 70.0261 98.8194 73.4358 95.3441L73.4428 95.3377C73.9077 95.7242 74.3931 96.0852 74.8919 96.4194C74.9442 96.4583 74.9901 96.4915 75.0424 96.524C75.2784 96.6815 75.5207 96.8321 75.7637 96.9832C76.0329 97.1471 76.3084 97.3047 76.5833 97.4552C76.6292 97.4679 76.6617 97.4941 76.7013 97.5139C77.2785 97.8353 77.8493 98.1695 78.4068 98.5235C78.6753 98.6874 78.9444 98.8577 79.2066 99.0484C79.7512 99.396 80.2825 99.7761 80.7998 100.17H80.8132C82.1449 101.167 83.3969 102.248 84.564 103.415C90.8839 109.712 94.7853 118.407 94.7853 128.033Z" fill="#C7D4E2"/>
</g>
<mask id="mask3_1467_6238" style="mask-type:luminance" maskUnits="userSpaceOnUse" x="0" y="0" width="120" height="120">
<path d="M60 120C93.1371 120 120 93.1371 120 60C120 26.8629 93.1371 0 60 0C26.8629 0 0 26.8629 0 60C0 93.1371 26.8629 120 60 120Z" fill="white"/>
</mask>
<g mask="url(#mask3_1467_6238)">
<path d="M86.7002 53.6068C86.7002 53.8958 86.6932 54.184 86.6868 54.4723C86.6741 55.0693 86.6409 55.6656 86.5886 56.2556C86.5759 56.4591 86.5555 56.6619 86.5293 56.8653C86.4438 57.7111 86.3265 58.544 86.1753 59.3706C86.1224 59.6461 86.0701 59.9146 86.0108 60.1838C86.0044 60.2425 85.9916 60.2954 85.9783 60.3477C85.9253 60.6232 85.8596 60.8924 85.7946 61.1609C85.7614 61.3184 85.7225 61.4689 85.6759 61.6201C85.6568 61.7381 85.6236 61.8561 85.5911 61.9677C85.4527 62.5054 85.2958 63.0303 85.1313 63.5545C85.0528 63.8039 84.9744 64.0463 84.8889 64.2957C84.8819 64.3218 84.8691 64.348 84.8628 64.3741C84.7837 64.5967 84.7052 64.8199 84.6268 65.0425C84.6006 65.1082 84.5745 65.1733 84.5477 65.246C84.4692 65.4558 84.3908 65.6656 84.3053 65.8755C84.2071 66.1312 84.1025 66.3806 83.9973 66.63C83.9054 66.8532 83.8072 67.0758 83.709 67.299C83.6962 67.3386 83.6758 67.3711 83.6631 67.41C83.5514 67.646 83.4468 67.8826 83.3352 68.1116C83.2236 68.3539 83.1056 68.5969 82.9806 68.8399C82.7446 69.3183 82.4889 69.7973 82.2331 70.2629C82.1151 70.4727 81.9971 70.6825 81.8785 70.8924C80.8689 72.6304 79.7476 74.2631 78.5282 75.7709C78.3636 75.9871 78.194 76.1969 78.0166 76.4004C77.7736 76.695 77.5243 76.984 77.2755 77.2659C77.0523 77.5152 76.8297 77.764 76.6001 78.007C75.9706 78.6824 75.3277 79.3253 74.672 79.9287C74.5413 80.0601 74.4029 80.178 74.2651 80.3024C74.0425 80.5059 73.82 80.7023 73.5897 80.8924C73.413 81.0499 73.2293 81.2004 73.045 81.3516C72.5731 81.7381 72.1011 82.1118 71.6227 82.4594C71.4257 82.6106 71.2222 82.7547 71.0194 82.8925C70.6916 83.1285 70.3574 83.3517 70.0225 83.5679C69.8388 83.6923 69.6488 83.8103 69.4581 83.9219C68.789 84.3352 68.1142 84.7153 67.4452 85.0432C67.2813 85.128 67.1174 85.2071 66.9534 85.2855C66.7889 85.364 66.6192 85.4431 66.4419 85.5215C66.2251 85.6197 66.0089 85.7116 65.7926 85.797C65.7072 85.8366 65.6217 85.8691 65.5369 85.8952C65.2818 86.0005 65.019 86.0987 64.7632 86.1835C64.4418 86.3015 64.114 86.3997 63.7932 86.4916C63.5699 86.5573 63.341 86.616 63.1177 86.6683C63.1043 86.6753 63.0916 86.6817 63.0718 86.6817C62.8486 86.734 62.626 86.7869 62.4028 86.8258C62.3435 86.8392 62.2854 86.8519 62.2261 86.8583C62.0424 86.8908 61.8587 86.924 61.675 86.9438C61.4129 86.9833 61.1508 87.0159 60.8886 87.0292C60.7974 87.042 60.712 87.049 60.6195 87.049C60.4103 87.0624 60.2005 87.0688 59.9964 87.0688H59.9772C59.7738 87.0688 59.5703 87.0624 59.3675 87.049C59.2884 87.049 59.21 87.0426 59.1309 87.0292C58.9478 87.0229 58.7571 87.0025 58.5607 86.9763C58.5211 86.9763 58.4752 86.9699 58.4363 86.9636C58.1933 86.931 57.951 86.8915 57.7016 86.8456C57.4924 86.813 57.2825 86.7665 57.0657 86.7142C55.9444 86.4584 54.7907 86.0719 53.6235 85.5534C52.6266 85.114 51.617 84.5833 50.6137 83.9666C50.1086 83.6649 49.6105 83.337 49.1054 82.9831C48.856 82.8058 48.6072 82.6291 48.3579 82.4454C47.5772 81.8746 46.8036 81.2521 46.0427 80.583C45.8335 80.393 45.6236 80.2029 45.4138 80.0058C45.204 79.8158 44.9941 79.6193 44.7907 79.4293C44.2785 78.9375 43.7804 78.426 43.295 77.8947C43.105 77.6919 42.9149 77.4821 42.7242 77.2652C42.1999 76.6753 41.6884 76.0655 41.2031 75.429C41.0124 75.1994 40.8357 74.9634 40.6584 74.7274C39.9964 73.8492 39.3669 72.9308 38.7763 71.9798C38.6194 71.7241 38.4618 71.4613 38.3113 71.2062C38.1276 70.8981 37.951 70.5837 37.7736 70.2686C37.118 69.0881 36.514 67.8622 35.9897 66.5962C35.9113 66.4125 35.8322 66.2288 35.7665 66.0458C35.6613 65.8098 35.5694 65.5668 35.4846 65.3308C35.3538 64.9832 35.2295 64.6356 35.1108 64.288C34.9929 63.9404 34.8819 63.5864 34.7703 63.2324C34.665 62.8912 34.5668 62.5506 34.475 62.203C34.3697 61.8357 34.2721 61.4619 34.1867 61.0818C34.1797 61.0423 34.1669 61.0034 34.1605 60.9638C34.0362 60.4395 33.9245 59.9083 33.8263 59.3706C33.6949 58.662 33.5903 57.9407 33.5113 57.2129C33.4787 56.9833 33.459 56.7537 33.4392 56.5241C33.413 56.2818 33.3939 56.0451 33.3805 55.8028C33.3473 55.3633 33.3276 54.9175 33.3142 54.4717C33.3078 54.1828 33.3008 53.8945 33.3008 53.6062L37.5638 61.9868L44.8883 65.1803L53.5502 65.9609L59.9766 66.5445H60.0161L66.0293 67.0892L79.4262 68.2959L86.7002 53.6068Z" fill="#543E36"/>
</g>
<mask id="mask4_1467_6238" style="mask-type:luminance" maskUnits="userSpaceOnUse" x="0" y="0" width="120" height="120">
<path d="M60 120C93.1371 120 120 93.1371 120 60C120 26.8629 93.1371 0 60 0C26.8629 0 0 26.8629 0 60C0 93.1371 26.8629 120 60 120Z" fill="white"/>
</mask>
<g mask="url(#mask4_1467_6238)">
<path d="M81.0147 17.2001C79.7097 20.1576 78.0113 22.9052 76.0048 25.3971C75.8868 25.5418 75.7688 25.686 75.6444 25.8301C71.5332 30.7807 66.1432 34.6304 59.9789 36.8793C58.3589 37.4763 56.6872 37.961 54.969 38.322C53.8216 38.5643 52.6544 38.7551 51.4675 38.8928C50.1033 39.0433 48.7135 39.1224 47.304 39.1224C45.691 39.1224 44.1105 39.0172 42.5569 38.8144C41.0351 38.6243 39.5465 38.3424 38.091 37.9623C37.258 37.7524 36.4449 37.5101 35.638 37.2409C34.8446 36.9788 34.071 36.6899 33.3037 36.3754V33.6674C33.3037 18.933 45.2452 6.98581 59.9795 6.97241H60.0057C62.039 6.97241 64.0187 7.20138 65.92 7.62807C67.6579 8.02159 69.3302 8.5854 70.9171 9.30037C73.0811 10.2711 75.094 11.5167 76.9041 13.0053C78.4246 14.249 79.8086 15.6528 81.0147 17.2001Z" fill="#543E36"/>
</g>
<mask id="mask5_1467_6238" style="mask-type:luminance" maskUnits="userSpaceOnUse" x="0" y="0" width="120" height="120">
<path d="M60 120C93.1371 120 120 93.1371 120 60C120 26.8629 93.1371 0 60 0C26.8629 0 0 26.8629 0 60C0 93.1371 26.8629 120 60 120Z" fill="white"/>
</mask>
<g mask="url(#mask5_1467_6238)">
<path d="M86.7005 33.6655V38.9177C82.1492 35.3965 78.3792 30.944 75.6577 25.8557C75.6513 25.8493 75.6513 25.8359 75.6443 25.8295C72.9694 20.833 71.3099 15.2262 70.917 9.29785C73.081 10.2686 75.0939 11.5142 76.904 13.0028C78.4251 14.2491 79.8091 15.6522 81.0152 17.1995C84.576 21.7381 86.7005 27.4495 86.7005 33.6655Z" fill="#543E36"/>
</g>
<mask id="mask6_1467_6238" style="mask-type:luminance" maskUnits="userSpaceOnUse" x="0" y="0" width="120" height="120">
<path d="M60 120C93.1371 120 120 93.1371 120 60C120 26.8629 93.1371 0 60 0C26.8629 0 0 26.8629 0 60C0 93.1371 26.8629 120 60 120Z" fill="white"/>
</mask>
<g mask="url(#mask6_1467_6238)">
<path d="M36.4311 35.7248C36.1499 36.2165 35.8935 36.7216 35.6377 37.2395C35.5401 37.4423 35.4413 37.6592 35.343 37.869C34.0515 40.741 33.4016 43.5607 33.3098 46.1055C33.3098 46.1776 33.3027 46.256 33.3027 46.3288V36.0462C33.3027 35.6788 33.3161 35.3178 33.3161 34.9639C34.3525 35.233 35.3883 35.4952 36.4311 35.7248Z" fill="#543E36"/>
</g>
<mask id="mask7_1467_6238" style="mask-type:luminance" maskUnits="userSpaceOnUse" x="0" y="0" width="120" height="120">
<path d="M60 120C93.1371 120 120 93.1371 120 60C120 26.8629 93.1371 0 60 0C26.8629 0 0 26.8629 0 60C0 93.1371 26.8629 120 60 120Z" fill="white"/>
</mask>
<g mask="url(#mask7_1467_6238)">
<path d="M83.5859 35.7249C83.9826 36.422 84.3366 37.1363 84.6766 37.8685C86.0083 40.8298 86.6601 43.7222 86.7162 46.3308V36.0432C86.7162 35.6815 86.7028 35.3199 86.7028 34.9666C85.6677 35.2338 84.6338 35.4921 83.5859 35.7249Z" fill="#543E36"/>
</g>
<mask id="mask8_1467_6238" style="mask-type:luminance" maskUnits="userSpaceOnUse" x="0" y="0" width="120" height="120">
<path d="M60 120C93.1371 120 120 93.1371 120 60C120 26.8629 93.1371 0 60 0C26.8629 0 0 26.8629 0 60C0 93.1371 26.8629 120 60 120Z" fill="white"/>
</mask>
<g mask="url(#mask8_1467_6238)">
<path d="M83.5337 38.3742C83.5337 38.2626 83.4482 38.1644 83.3366 38.151C82.3927 38.0068 78.143 37.4226 73.5726 37.4226C68.3854 37.4226 61.6904 39.049 60.5233 39.049H59.4875C58.9428 39.049 57.1991 38.695 54.9694 38.3213C52.4054 37.8882 49.2056 37.4226 46.4382 37.4226C43.0942 37.4226 39.9199 37.7377 38.0907 37.9603C37.4217 38.0394 36.9299 38.1108 36.6742 38.1503C36.5626 38.1637 36.4771 38.2619 36.4771 38.3736L36.4248 41.1601C36.4248 41.2583 36.4841 41.3438 36.5753 41.3833L36.8898 41.4949C37.3553 41.6722 37.3164 50.072 39.8211 52.1704C41.3097 53.4096 42.6344 54.1175 48.2145 54.1175C51.4474 54.1175 53.4801 53.2457 55.4082 50.6422C56.7986 48.7735 58.0308 44.3535 58.0308 44.3535C58.4045 42.5307 59.7618 42.3866 59.9786 42.3732C59.992 42.3732 60.0048 42.3732 60.0048 42.3732C60.05 42.3732 61.5788 42.3993 61.9787 44.3535C61.9787 44.3535 63.2116 48.7735 64.6013 50.6422C66.5288 53.2457 68.5621 54.1175 71.7944 54.1175C77.3751 54.1175 78.6992 53.4096 80.1878 52.1704C82.6931 50.072 82.6535 41.6722 83.1191 41.4949L83.4342 41.3833C83.5254 41.3438 83.5847 41.259 83.5847 41.1601L83.5337 38.3742ZM55.4088 48.3149C54.5892 50.2557 52.4711 52.761 49.4875 52.9115C40.5367 53.3637 40.1234 50.8654 39.5462 48.8851C38.9626 46.9047 38.8121 45.1667 39.041 43.1864C39.277 41.206 39.7758 40.0452 40.6744 39.4616C41.0609 39.2059 41.4812 38.9763 42.5566 38.8124C43.5203 38.6682 45.0089 38.5828 47.4874 38.5828C48.9231 38.5828 50.2675 38.6944 51.4672 38.8908C54.6543 39.4023 56.8049 40.4847 56.8049 41.553C56.8049 42.282 56.6212 45.4423 55.4088 48.3149ZM80.464 48.8851C79.8874 50.8654 79.4741 53.3637 70.5233 52.9115C67.5397 52.761 65.4216 50.2557 64.602 48.3149C63.3889 45.4429 63.2058 42.282 63.2058 41.5542C63.2058 40.0854 67.2846 38.5834 72.5234 38.5834C77.7629 38.5834 78.6016 38.9769 79.337 39.4623C80.235 40.0459 80.7331 41.2066 80.9697 43.187C81.1993 45.1674 81.0482 46.9054 80.464 48.8851Z" fill="#1A1A1A"/>
</g>
<mask id="mask9_1467_6238" style="mask-type:luminance" maskUnits="userSpaceOnUse" x="0" y="0" width="120" height="120">
<path d="M60 120C93.1371 120 120 93.1371 120 60C120 26.8629 93.1371 0 60 0C26.8629 0 0 26.8629 0 60C0 93.1371 26.8629 120 60 120Z" fill="white"/>
</mask>
<g mask="url(#mask9_1467_6238)">
<path d="M60.0315 57.8162L60.0245 64.2821L60.0181 66.5444V68.3213L60.0111 74.2228V74.2292L60.0047 74.2228H59.9977L59.9785 74.2094L34.1886 61.0823C34.1816 61.0428 34.1689 61.0039 34.1625 60.9643C34.0381 60.4401 33.9265 59.9088 33.8283 59.3711C33.6969 58.6625 33.5923 57.9412 33.5132 57.2134C33.4807 56.9838 33.4609 56.7542 33.4411 56.5246C33.415 56.2823 33.3959 56.0456 33.3825 55.8033C33.3493 55.3638 33.3295 54.918 33.3161 54.4722C33.3098 54.1833 33.3027 53.895 33.3027 53.6067V45.7708C33.3027 45.8824 33.3098 45.994 33.3098 46.105C33.3621 47.9998 33.6637 50.0854 34.2473 52.2163C34.7001 53.8555 35.264 55.3702 35.9196 56.7211V56.7274C37.6378 60.3017 39.9396 62.7272 42.0571 63.1207C42.1885 63.1405 42.3263 63.1532 42.4577 63.1666C43.2772 63.2585 44.1363 63.3108 45.0216 63.3108C48.3656 63.3108 51.3364 60.6225 53.2052 59.5337C53.2185 59.5274 53.2313 59.5204 53.2447 59.514C53.3429 59.4547 53.4418 59.396 53.5266 59.3367C53.5528 59.3169 53.5789 59.3041 53.605 59.2907C55.1791 58.3921 57.4478 57.8219 59.9792 57.8155L60.0315 57.8162Z" fill="#543E36"/>
<path d="M86.707 45.7708L86.7006 53.6067C86.7006 55.5743 86.5169 57.5017 86.1763 59.3711C86.0379 60.1186 85.881 60.8591 85.6973 61.5938L79.6446 70.3348L60.012 74.2235H60.0056L59.9986 74.2298V74.2235L59.9795 57.8149H60.0318C62.5632 57.8213 64.8382 58.3921 66.4123 59.2901C66.4384 59.3035 66.4576 59.3163 66.4844 59.336C66.5762 59.3953 66.6744 59.454 66.7727 59.5133C66.779 59.5197 66.7918 59.5267 66.8052 59.5331C68.6809 60.6218 71.6448 63.312 74.9894 63.312C75.8746 63.312 76.7331 63.2598 77.5527 63.1679C77.6904 63.1545 77.8218 63.1418 77.9596 63.122C80.0713 62.7285 82.3795 60.3023 84.0907 56.7287V56.7223C84.7457 55.3715 85.3102 53.8567 85.7624 52.2176C86.353 50.0536 86.661 47.9424 86.7006 46.0208C86.707 45.9347 86.707 45.8556 86.707 45.7708Z" fill="#543E36"/>
</g>
<mask id="mask10_1467_6238" style="mask-type:luminance" maskUnits="userSpaceOnUse" x="0" y="0" width="120" height="120">
<path d="M60 120C93.1371 120 120 93.1371 120 60C120 26.8629 93.1371 0 60 0C26.8629 0 0 26.8629 0 60C0 93.1371 26.8629 120 60 120Z" fill="white"/>
</mask>
<g mask="url(#mask10_1467_6238)">
<path d="M59.9996 68.3239C63.6118 68.3239 66.5402 67.4187 66.5402 66.3021C66.5402 65.1855 63.6118 64.2803 59.9996 64.2803C56.3873 64.2803 53.459 65.1855 53.459 66.3021C53.459 67.4187 56.3873 68.3239 59.9996 68.3239Z" fill="#ECC19C"/>
</g>
<mask id="mask11_1467_6238" style="mask-type:luminance" maskUnits="userSpaceOnUse" x="0" y="0" width="120" height="120">
<path d="M60 120C93.1371 120 120 93.1371 120 60C120 26.8629 93.1371 0 60 0C26.8629 0 0 26.8629 0 60C0 93.1371 26.8629 120 60 120Z" fill="white"/>
</mask>
<g mask="url(#mask11_1467_6238)">
<path d="M40.9027 98.9692V135.042H38.1162V101.003C38.49 100.701 38.8637 100.406 39.2445 100.124C39.7885 99.7174 40.3389 99.3366 40.9027 98.9692Z" fill="#435363"/>
<path d="M79.1006 98.9763V128.032V135.042H81.8871V128.032V101.009L79.1006 98.9763Z" fill="#435363"/>
</g>
<mask id="mask12_1467_6238" style="mask-type:luminance" maskUnits="userSpaceOnUse" x="0" y="0" width="120" height="120">
<path d="M60 120C93.1371 120 120 93.1371 120 60C120 26.8629 93.1371 0 60 0C26.8629 0 0 26.8629 0 60C0 93.1371 26.8629 120 60 120Z" fill="white"/>
</mask>
<g mask="url(#mask12_1467_6238)">
<path d="M52.3711 96.762L59.9998 105.905L67.6291 96.762H52.3711Z" fill="#141720"/>
<path d="M59.9994 143.783H55.4883L58.7474 101.816C58.8845 102.35 61.1149 102.35 61.252 101.816L64.5112 143.783H59.9994Z" fill="#141720"/>
<path d="M59.9976 96.7138L59.9785 96.7463L59.9715 96.7597L56.8042 102.078L53.8467 107.035L45.8398 95.9069C46.0956 95.7233 46.3514 95.5268 46.5944 95.3234C46.6007 95.3297 46.6007 95.3297 46.6077 95.3368C48.2137 94.058 49.6437 92.5566 50.8306 90.8779L59.9785 96.701L59.9976 96.7138Z" fill="#E7ECF2"/>
<path d="M74.1619 95.9072L66.155 107.035L63.1975 102.078L60.0232 96.76L59.9971 96.714L69.2043 90.8521C70.3976 92.5435 71.8205 94.0519 73.4335 95.3434C73.6772 95.5398 73.9189 95.7305 74.1619 95.9072Z" fill="#E7ECF2"/>
</g>
<defs>
<linearGradient id="paint0_linear_1467_6238" x1="-6.55423" y1="59.2599" x2="137.16" y2="59.2599" gradientUnits="userSpaceOnUse">
<stop stop-color="#0026EC"/>
<stop offset="1" stop-color="#1BFFFF"/>
</linearGradient>
</defs>
</svg>
