<svg width="122" height="130" viewBox="0 0 122 130" fill="none" xmlns="http://www.w3.org/2000/svg">
<circle cx="60" cy="70" r="60" fill="#FBF0FF"/>
<g clip-path="url(#clip0_1_166)">
<path d="M97.4375 36.8499L92.1501 31.5625C91.4376 30.8125 90.2376 30.8125 89.5251 31.5625L84.2001 36.8499L84.3853 44.535L92.1501 44.7999L97.4375 39.475C98.1875 38.7625 98.1875 37.5625 97.4375 36.8499ZM79.5494 52.0893L64.4139 67.2595L60.4221 68.5779L61.7405 64.588L76.9126 49.4525C78.0919 48.2692 77.2505 46.25 75.587 46.25H39.625C36.5233 46.25 34 48.7733 34 51.875V89.375C34 92.4767 36.5233 95 39.625 95H77.125C80.2267 95 82.75 92.4767 82.75 89.375V53.4131C82.75 51.754 80.734 50.9006 79.5494 52.0893Z" fill="url(#paint0_linear_1_166)"/>
<path d="M84.2001 36.8499L58.7875 62.2624C58.5625 62.45 58.4126 62.7126 58.3375 62.9749L55.7125 70.9249C55.1863 72.5042 56.7775 73.807 58.075 73.2874L66.025 70.6625C66.2875 70.5874 66.55 70.4375 66.7375 70.2125L92.1501 44.7999L84.2001 36.8499Z" fill="url(#paint1_linear_1_166)"/>
</g>
<circle cx="105.5" cy="16.5" r="16.5" fill="#D9D9D9"/>
<circle cx="105.5" cy="16.5" r="16.5" fill="url(#paint2_linear_1_166)"/>
<g filter="url(#filter0_d_1_166)">
<path d="M104.902 24V12.486H104.56L102.774 16.704H100.228L102.945 10.7H107.334V24H104.902Z" fill="white"/>
</g>
<defs>
<filter id="filter0_d_1_166" x="96.228" y="10.7" width="15.106" height="21.3" filterUnits="userSpaceOnUse" color-interpolation-filters="sRGB">
<feFlood flood-opacity="0" result="BackgroundImageFix"/>
<feColorMatrix in="SourceAlpha" type="matrix" values="0 0 0 0 0 0 0 0 0 0 0 0 0 0 0 0 0 0 127 0" result="hardAlpha"/>
<feOffset dy="4"/>
<feGaussianBlur stdDeviation="2"/>
<feComposite in2="hardAlpha" operator="out"/>
<feColorMatrix type="matrix" values="0 0 0 0 0 0 0 0 0 0 0 0 0 0 0 0 0 0 0.25 0"/>
<feBlend mode="normal" in2="BackgroundImageFix" result="effect1_dropShadow_1_166"/>
<feBlend mode="normal" in="SourceGraphic" in2="effect1_dropShadow_1_166" result="shape"/>
</filter>
<linearGradient id="paint0_linear_1_166" x1="66" y1="95" x2="66" y2="31" gradientUnits="userSpaceOnUse">
<stop stop-color="#A93AFF"/>
<stop offset="1" stop-color="#FF81FF"/>
</linearGradient>
<linearGradient id="paint1_linear_1_166" x1="73.8796" y1="73.4034" x2="73.8796" y2="36.85" gradientUnits="userSpaceOnUse">
<stop stop-color="#FFBEF9"/>
<stop offset="1" stop-color="#FFF1FF"/>
</linearGradient>
<linearGradient id="paint2_linear_1_166" x1="105.5" y1="6.85453e-07" x2="128.5" y2="17" gradientUnits="userSpaceOnUse">
<stop stop-color="#B846FF"/>
<stop offset="0.848958" stop-color="#FBF0FF"/>
</linearGradient>
<clipPath id="clip0_1_166">
<rect width="64" height="64" fill="white" transform="translate(34 31)"/>
</clipPath>
</defs>
</svg>
