<svg width="191" height="39" viewBox="0 0 191 39" fill="none" xmlns="http://www.w3.org/2000/svg">
<g clip-path="url(#clip0_595_7992)">
<mask id="mask0_595_7992" style="mask-type:luminance" maskUnits="userSpaceOnUse" x="0" y="0" width="201" height="39">
<path d="M200.873 0H0V39H200.873V0Z" fill="white"/>
</mask>
<g mask="url(#mask0_595_7992)">
<path d="M74.7789 23.267C73.8384 23.267 73.0058 23.082 72.2813 22.7121C71.5695 22.3302 71.0102 21.7991 70.6035 21.1188C70.2095 20.4266 70.0125 19.6151 70.0125 18.6842V18.4694C70.0125 17.5385 70.2095 16.7329 70.6035 16.0527C70.9975 15.3605 71.5504 14.8294 72.2622 14.4594C72.974 14.0775 73.8002 13.8866 74.7408 13.8866C75.6687 13.8866 76.4758 14.0835 77.1622 14.4773C77.8486 14.8592 78.3824 15.3963 78.7637 16.0885C79.145 16.7687 79.3357 17.5624 79.3357 18.4694V19.2391H72.4529C72.4783 19.8478 72.7198 20.3431 73.1774 20.725C73.635 21.1069 74.1943 21.2978 74.8552 21.2978C75.5289 21.2978 76.0246 21.1606 76.3423 20.8861C76.6601 20.6116 76.9016 20.3073 77.0669 19.9731L79.0306 20.9398C78.8527 21.2501 78.5921 21.5902 78.2489 21.9602C77.9185 22.3182 77.4736 22.6285 76.9143 22.8911C76.3551 23.1417 75.6433 23.267 74.7789 23.267ZM72.472 17.5564H76.8953C76.8444 17.0432 76.622 16.6315 76.228 16.3212C75.8466 16.0109 75.3446 15.8557 74.7217 15.8557C74.0735 15.8557 73.5587 16.0109 73.1774 16.3212C72.7961 16.6315 72.5609 17.0432 72.472 17.5564Z" fill="white"/>
<path d="M84.7799 23.0164C84.1571 23.0164 83.6487 22.8374 83.2547 22.4793C82.8733 22.1094 82.6827 21.6201 82.6827 21.0114V15.9989H80.3185V14.1372H82.6827V11.3803H85.085V14.1372H87.678V15.9989H85.085V20.6176C85.085 20.9756 85.2629 21.1546 85.6188 21.1546H87.4492V23.0164H84.7799Z" fill="white"/>
<path d="M89.8525 23.0164V10.4852H92.2548V15.2292H92.598C92.6997 15.0382 92.8586 14.8473 93.0747 14.6563C93.2907 14.4654 93.5767 14.3102 93.9326 14.1909C94.3012 14.0596 94.7652 13.994 95.3244 13.994C96.0617 13.994 96.7035 14.1551 97.2501 14.4773C97.8094 14.7876 98.2415 15.2232 98.5466 15.7841C98.8516 16.3331 99.0042 16.9776 99.0042 17.7175V23.0164H96.6019V17.8965C96.6019 17.2282 96.4239 16.7269 96.068 16.3928C95.7248 16.0586 95.2291 15.8915 94.5809 15.8915C93.8437 15.8915 93.2717 16.1243 92.8649 16.5897C92.4582 17.0432 92.2548 17.6817 92.2548 18.5052V23.0164H89.8525Z" fill="white"/>
<path d="M101.601 23.0164V14.1372H104.003V23.0164H101.601ZM102.802 13.0989C102.37 13.0989 102.002 12.9676 101.696 12.705C101.404 12.4425 101.258 12.0964 101.258 11.6668C101.258 11.2371 101.404 10.891 101.696 10.6285C102.002 10.3659 102.37 10.2346 102.802 10.2346C103.247 10.2346 103.616 10.3659 103.908 10.6285C104.2 10.891 104.347 11.2371 104.347 11.6668C104.347 12.0964 104.2 12.4425 103.908 12.705C103.616 12.9676 103.247 13.0989 102.802 13.0989Z" fill="white"/>
<path d="M111.108 23.267C110.193 23.267 109.36 23.088 108.61 22.73C107.873 22.3719 107.288 21.8528 106.856 21.1725C106.424 20.4923 106.208 19.6688 106.208 18.7021V18.4515C106.208 17.4848 106.424 16.6613 106.856 15.981C107.288 15.3008 107.873 14.7816 108.61 14.4236C109.36 14.0656 110.193 13.8866 111.108 13.8866C112.01 13.8866 112.786 14.0357 113.434 14.3341C114.082 14.6325 114.603 15.0442 114.997 15.5693C115.404 16.0825 115.671 16.6673 115.798 17.3237L113.472 17.7891C113.421 17.4311 113.307 17.1088 113.129 16.8224C112.951 16.536 112.697 16.3092 112.366 16.1422C112.049 15.9751 111.648 15.8915 111.165 15.8915C110.682 15.8915 110.244 15.993 109.85 16.1959C109.468 16.3868 109.163 16.6792 108.934 17.073C108.718 17.4549 108.61 17.9264 108.61 18.4873V18.6663C108.61 19.2272 108.718 19.7046 108.934 20.0984C109.163 20.4803 109.468 20.7727 109.85 20.9756C110.244 21.1666 110.682 21.262 111.165 21.262C111.89 21.262 112.436 21.089 112.805 20.7429C113.186 20.3848 113.428 19.9194 113.529 19.3466L115.855 19.8657C115.69 20.4982 115.404 21.077 114.997 21.6022C114.603 22.1153 114.082 22.5211 113.434 22.8195C112.786 23.1178 112.01 23.267 111.108 23.267Z" fill="white"/>
<path d="M120.773 23.267C120.1 23.267 119.496 23.1596 118.962 22.9448C118.428 22.718 118.002 22.3958 117.684 21.9781C117.379 21.5485 117.227 21.0293 117.227 20.4207C117.227 19.812 117.379 19.3048 117.684 18.899C118.002 18.4813 118.434 18.171 118.981 17.9681C119.54 17.7533 120.176 17.6459 120.888 17.6459H123.481V17.1447C123.481 16.7269 123.341 16.3868 123.061 16.1243C122.781 15.8498 122.337 15.7125 121.726 15.7125C121.129 15.7125 120.684 15.8438 120.392 16.1064C120.1 16.357 119.909 16.6852 119.82 17.0909L117.608 16.3928C117.761 15.9393 118.002 15.5275 118.333 15.1576C118.676 14.7757 119.127 14.4713 119.686 14.2446C120.258 14.0059 120.951 13.8866 121.765 13.8866C123.01 13.8866 123.995 14.1789 124.72 14.7637C125.444 15.3485 125.807 16.1959 125.807 17.3058V20.6176C125.807 20.9756 125.985 21.1546 126.34 21.1546H127.103V23.0164H125.502C125.031 23.0164 124.644 22.909 124.339 22.6942C124.033 22.4793 123.881 22.1929 123.881 21.8349V21.817H123.519C123.468 21.9602 123.353 22.1511 123.175 22.3898C122.998 22.6166 122.718 22.8195 122.337 22.9985C121.955 23.1775 121.434 23.267 120.773 23.267ZM121.193 21.441C121.866 21.441 122.413 21.268 122.832 20.9219C123.264 20.5639 123.481 20.0925 123.481 19.5077V19.3287H121.059C120.614 19.3287 120.265 19.4182 120.011 19.5972C119.756 19.7762 119.629 20.0268 119.629 20.349C119.629 20.6713 119.763 20.9338 120.03 21.1367C120.297 21.3396 120.684 21.441 121.193 21.441Z" fill="white"/>
<path d="M133.7 23.0164V14.1372H136.103V23.0164H133.7ZM134.902 13.0989C134.469 13.0989 134.101 12.9676 133.796 12.705C133.503 12.4425 133.357 12.0964 133.357 11.6668C133.357 11.2371 133.503 10.891 133.796 10.6285C134.101 10.3659 134.469 10.2346 134.902 10.2346C135.347 10.2346 135.715 10.3659 136.007 10.6285C136.3 10.891 136.446 11.2371 136.446 11.6668C136.446 12.0964 136.3 12.4425 136.007 12.705C135.715 12.9676 135.347 13.0989 134.902 13.0989Z" fill="white"/>
<path d="M138.765 23.0164V14.1372H141.129V15.3008H141.472C141.625 14.9905 141.911 14.6981 142.33 14.4236C142.75 14.1372 143.385 13.994 144.237 13.994C144.974 13.994 145.616 14.1551 146.162 14.4773C146.722 14.7876 147.154 15.2232 147.459 15.7841C147.764 16.3331 147.917 16.9776 147.917 17.7175V23.0164H145.514V17.8965C145.514 17.2282 145.336 16.7269 144.98 16.3928C144.637 16.0586 144.141 15.8915 143.493 15.8915C142.756 15.8915 142.184 16.1243 141.777 16.5897C141.371 17.0432 141.167 17.6817 141.167 18.5052V23.0164H138.765Z" fill="white"/>
<path d="M152.236 23.0164L149.223 14.1372H151.778L153.971 21.3694H154.314L156.506 14.1372H159.061L156.049 23.0164H152.236Z" fill="white"/>
<path d="M164.728 23.267C163.787 23.267 162.955 23.082 162.23 22.7121C161.518 22.3302 160.959 21.7991 160.552 21.1188C160.158 20.4266 159.961 19.6151 159.961 18.6842V18.4694C159.961 17.5385 160.158 16.7329 160.552 16.0527C160.946 15.3605 161.499 14.8294 162.211 14.4594C162.923 14.0775 163.749 13.8866 164.69 13.8866C165.618 13.8866 166.425 14.0835 167.111 14.4773C167.797 14.8592 168.331 15.3963 168.713 16.0885C169.094 16.7687 169.285 17.5624 169.285 18.4694V19.2391H162.402C162.427 19.8478 162.669 20.3431 163.126 20.725C163.584 21.1069 164.143 21.2978 164.804 21.2978C165.478 21.2978 165.973 21.1606 166.291 20.8861C166.609 20.6116 166.85 20.3073 167.016 19.9731L168.979 20.9398C168.802 21.2501 168.541 21.5902 168.198 21.9602C167.867 22.3182 167.422 22.6285 166.863 22.8911C166.304 23.1417 165.592 23.267 164.728 23.267ZM162.421 17.5564H166.844C166.793 17.0432 166.571 16.6315 166.177 16.3212C165.795 16.0109 165.293 15.8557 164.671 15.8557C164.022 15.8557 163.508 16.0109 163.126 16.3212C162.745 16.6315 162.51 17.0432 162.421 17.5564Z" fill="white"/>
<path d="M175.35 23.267C174.117 23.267 173.107 23.0164 172.319 22.5151C171.531 22.0139 171.054 21.2978 170.889 20.3669L173.101 19.8299C173.19 20.2476 173.336 20.5758 173.539 20.8145C173.755 21.0532 174.016 21.2262 174.321 21.3336C174.639 21.4291 174.982 21.4768 175.35 21.4768C175.91 21.4768 176.323 21.3873 176.59 21.2083C176.857 21.0174 176.99 20.7847 176.99 20.5102C176.99 20.2357 176.863 20.0268 176.609 19.8836C176.354 19.7285 175.948 19.6031 175.388 19.5077L174.855 19.4182C174.194 19.2988 173.59 19.1377 173.043 18.9348C172.497 18.72 172.058 18.4276 171.728 18.0576C171.397 17.6877 171.232 17.2103 171.232 16.6255C171.232 15.7424 171.575 15.0681 172.262 14.6026C172.948 14.1252 173.851 13.8866 174.969 13.8866C176.024 13.8866 176.901 14.1073 177.6 14.5489C178.299 14.9905 178.757 15.5693 178.973 16.2854L176.742 16.9298C176.64 16.4763 176.431 16.1541 176.113 15.9631C175.808 15.7722 175.427 15.6767 174.969 15.6767C174.511 15.6767 174.162 15.7543 173.92 15.9094C173.679 16.0527 173.558 16.2555 173.558 16.5181C173.558 16.8045 173.685 17.0193 173.939 17.1626C174.194 17.2938 174.537 17.3953 174.969 17.4669L175.503 17.5564C176.215 17.6757 176.857 17.8368 177.429 18.0397C178.013 18.2307 178.471 18.5111 178.801 18.8811C179.144 19.2391 179.316 19.7285 179.316 20.349C179.316 21.2799 178.954 22.002 178.229 22.5151C177.518 23.0164 176.558 23.267 175.35 23.267Z" fill="white"/>
<path d="M184.858 23.0164C184.235 23.0164 183.726 22.8374 183.332 22.4793C182.951 22.1094 182.76 21.6201 182.76 21.0114V15.9989H180.396V14.1372H182.76V11.3803H185.163V14.1372H187.756V15.9989H185.163V20.6176C185.163 20.9756 185.341 21.1546 185.696 21.1546H187.527V23.0164H184.858Z" fill="white"/>
<path d="M29.5083 15.545L23.7508 11.7477L35.5947 3.88262L29.7523 0.000976562L28.842 0.60004L24.232 3.63448L12.1316 11.6904L17.8966 15.603L29.5713 23.303L47.2405 11.5694V3.81821L29.5083 15.545Z" fill="white"/>
<path d="M59.5491 19.3639L59.5432 11.6514L29.7746 31.2848L0.00566182 11.6514L0 19.3639L29.7746 39.0012L59.5491 19.3639Z" fill="white"/>
</g>
</g>
<defs>
<clipPath id="clip0_595_7992">
<rect width="191" height="39" fill="white"/>
</clipPath>
</defs>
</svg>
