<svg width="120" height="120" viewBox="0 0 120 120" fill="none" xmlns="http://www.w3.org/2000/svg">
<circle cx="60" cy="60" r="60" fill="#E6F7FE"/>
<path d="M54.1498 70.4396L42.7372 62.9249C41.7649 62.2761 40.4548 62.5398 39.812 63.5099C39.1652 64.4801 39.4269 65.7882 40.397 66.4351L51.8096 73.9498C52.17 74.1887 52.5759 74.3042 52.9776 74.3042C53.6595 74.3042 54.3289 73.9745 54.7348 73.3648C55.3816 72.3946 55.1201 71.0865 54.1498 70.4396ZM75.104 55.9274C74.1605 55.2498 72.8422 55.4701 72.1624 56.4176L63.1887 68.7835C62.511 69.731 62.7314 71.0494 63.6789 71.7251C64.0498 71.9909 64.4782 72.1186 64.9025 72.1186C65.5618 72.1186 66.2085 71.8116 66.6205 71.2349L75.5942 58.869C76.272 57.9215 76.0517 56.6031 75.104 55.9274Z" fill="url(#paint0_linear_884_5057)"/>
<path d="M34.5469 49.4531C28.7316 49.4531 24 54.1847 24 60C24 65.8153 28.7316 70.5469 34.5469 70.5469C40.3621 70.5469 45.0938 65.8153 45.0938 60C45.0938 54.1847 40.3621 49.4531 34.5469 49.4531ZM60 66.3281C54.1847 66.3281 49.4531 71.0597 49.4531 76.875C49.4531 82.6903 54.1847 87.4219 60 87.4219C65.8153 87.4219 70.5469 82.6903 70.5469 76.875C70.5469 71.0597 65.8153 66.3281 60 66.3281ZM81.2344 32.5781C73.0935 32.5781 66.4688 39.2028 66.4688 47.3438C66.4688 55.4847 73.0935 62.1094 81.2344 62.1094C89.3753 62.1094 96 55.4847 96 47.3438C96 39.2028 89.3753 32.5781 81.2344 32.5781Z" fill="url(#paint1_linear_884_5057)"/>
<defs>
<linearGradient id="paint0_linear_884_5057" x1="57.7223" y1="74.3042" x2="57.7223" y2="55.5342" gradientUnits="userSpaceOnUse">
<stop stop-color="#ADDCFF"/>
<stop offset="0.5028" stop-color="#EAF6FF"/>
<stop offset="1" stop-color="#EAF6FF"/>
</linearGradient>
<linearGradient id="paint1_linear_884_5057" x1="60" y1="87.4219" x2="60" y2="32.5781" gradientUnits="userSpaceOnUse">
<stop stop-color="#5558FF"/>
<stop offset="1" stop-color="#00C0FF"/>
</linearGradient>
</defs>
</svg>
