<svg width="120" height="120" viewBox="0 0 120 120" fill="none" xmlns="http://www.w3.org/2000/svg">
<circle cx="60" cy="60" r="60" fill="#FFF5DC"/>
<path d="M57.6992 70.3176C56.4043 68.0534 58.0138 65.1986 60.6273 65.1986C62.0406 65.1986 63.2126 64.1735 63.4135 62.7578C63.651 61.0929 63.651 59.4008 63.4135 57.7353C63.2113 56.3172 62.0409 55.2953 60.6194 55.2953C58.0256 55.2953 56.3999 52.4462 57.6992 50.177C58.4067 48.9416 58.116 47.4029 57.0081 46.5183C55.6981 45.4701 54.2497 44.6222 52.7031 43.9977C51.3902 43.4682 49.9246 43.984 49.2187 45.2223C47.9245 47.4997 44.6689 47.503 43.3729 45.2223C42.666 43.9826 41.2008 43.4682 39.8877 43.9977C38.3419 44.6222 36.8929 45.4701 35.5827 46.5183C34.475 47.4029 34.1843 48.9416 34.8924 50.177C36.1875 52.4374 34.5792 55.2953 31.963 55.2953C30.551 55.2953 29.3791 56.3212 29.1783 57.7353C28.9406 59.3969 28.9406 61.096 29.1783 62.7578C29.3814 64.1787 30.5508 65.1986 31.9738 65.1986C34.5655 65.1986 36.1916 68.0478 34.8925 70.3176C34.1845 71.5538 34.4751 73.0926 35.5829 73.9772C36.8931 75.0232 38.342 75.871 39.8879 76.4956C41.1826 77.0182 42.6575 76.5299 43.373 75.2709C44.6684 72.9918 47.9255 72.9952 49.2189 75.2709C49.9248 76.5115 51.3888 77.0265 52.7032 76.4956C54.2478 75.871 55.6967 75.0246 57.0082 73.9772C58.1159 73.0926 58.4067 71.5538 57.6992 70.3176ZM46.2959 65.1692C43.6115 65.1692 41.4295 62.9613 41.4295 60.2468C41.4295 57.5339 43.6116 55.3259 46.2959 55.3259C48.9801 55.3259 51.1622 57.5339 51.1622 60.2468C51.1622 62.9611 48.9801 65.1692 46.2959 65.1692ZM33.8008 40.1359C38.8576 30.7754 49.5684 26.2384 59.6376 29.0291L57.7661 26.1966C57.5331 25.8442 57.6279 25.3652 57.9762 25.1304C58.3259 24.8934 58.799 24.9885 59.0319 25.3421L61.9693 29.789C62.1972 30.1356 62.1131 30.6016 61.7775 30.8437L57.4661 33.9405C57.1234 34.1869 56.649 34.1055 56.4054 33.759C56.1617 33.4132 56.243 32.9313 56.5849 32.6871L59.5037 30.5893C50.0357 27.8289 39.8982 32.059 35.1373 40.8742C34.9336 41.2498 34.4699 41.3809 34.1058 41.1804C33.7354 40.9759 33.6001 40.5098 33.8008 40.1359ZM88.0126 83.4156L91.3281 84.0049C92.3106 84.1786 92.0597 85.6901 91.0653 85.5206L85.8568 84.5941C85.4515 84.5221 85.1757 84.1374 85.2355 83.7246L86.0022 78.4333C86.1478 77.4315 87.6523 77.654 87.5076 78.656L86.989 82.2385C95.5072 77.2268 99.4895 66.8958 96.4832 57.3234C96.178 56.3558 97.6338 55.8937 97.9293 56.8587C101.128 67.0234 96.9674 77.9868 88.0126 83.4156ZM87.0693 54.3288C88.3171 54.3288 89.3449 53.4313 89.5221 52.1872C89.7201 50.7975 89.7209 49.3607 89.5221 47.9694C89.3444 46.7263 88.317 45.8277 87.0693 45.8277C85.0033 45.8277 83.7196 43.5588 84.7497 41.7603C85.371 40.6775 85.1152 39.3262 84.1442 38.5489C83.0428 37.6707 81.8268 36.9583 80.5287 36.4353C79.3752 35.9686 78.0894 36.4216 77.4704 37.5095C76.4423 39.3184 73.8542 39.3187 72.8262 37.5095C72.2064 36.4217 70.9212 35.9686 69.7677 36.4353C68.4697 36.9583 67.2538 37.6707 66.153 38.551C65.1812 39.3262 64.9256 40.6775 65.546 41.7603C66.5742 43.5551 65.3002 45.8277 63.2199 45.8277C61.9798 45.8277 60.9525 46.7281 60.7743 47.9694C60.5748 49.3624 60.5749 50.7944 60.7743 52.1872C60.9522 53.4305 61.9793 54.3288 63.2271 54.3288C65.2894 54.3288 66.5778 56.5945 65.546 58.3954C64.9254 59.4788 65.1812 60.8303 66.153 61.6053C67.2536 62.4856 68.4697 63.1981 69.7677 63.7211C70.9086 64.1809 72.1992 63.7485 72.8262 62.6471C73.8585 60.833 76.4458 60.8434 77.4717 62.6471C78.0894 63.7356 79.3752 64.1879 80.5287 63.7211C81.8267 63.1981 83.0426 62.4856 84.1442 61.6053C85.1152 60.8303 85.371 59.4788 84.7497 58.3939C83.7192 56.5954 85.0053 54.3288 87.0693 54.3288ZM75.1481 54.0457C72.9846 54.0457 71.2257 52.2657 71.2257 50.0778C71.2257 47.8908 72.9846 46.1106 75.1481 46.1106C77.3124 46.1106 79.0713 47.8906 79.0713 50.0778C79.0712 52.2657 77.3123 54.0457 75.1481 54.0457ZM77.6563 74.8186C76.0389 74.8186 75.0562 73.0549 75.8511 71.6669C76.3976 70.7132 76.1725 69.5267 75.319 68.8438C74.4007 68.1112 73.3863 67.5176 72.3027 67.0803C71.289 66.6711 70.1605 67.068 69.6156 68.0254C68.817 69.4278 66.8122 69.4261 66.0151 68.0254C65.4708 67.068 64.3417 66.671 63.328 67.0803C62.2444 67.5176 61.2314 68.1111 60.3117 68.8438C59.4582 69.5267 59.2331 70.7146 59.7794 71.6669C60.5772 73.0592 59.5834 74.8186 57.9806 74.8186C57.9792 74.8199 57.9777 74.8186 57.975 74.8186C56.885 74.8186 55.981 75.611 55.8264 76.7023C55.6617 77.858 55.6619 79.0616 55.8264 80.2192C55.9817 81.3134 56.8848 82.1015 57.9806 82.1015C59.5842 82.1015 60.5772 83.8606 59.7794 85.2539C59.233 86.207 59.4582 87.3935 60.3117 88.0764C61.2312 88.8105 62.2444 89.4026 63.328 89.8399C64.3417 90.2491 65.471 89.8522 66.0151 88.8962C66.8135 87.4926 68.8171 87.4928 69.6156 88.8962C70.1667 89.865 71.306 90.2434 72.3027 89.8399C73.3863 89.4026 74.3993 88.8105 75.319 88.0764C76.1725 87.3935 76.3976 86.207 75.8511 85.2539C75.0565 83.8661 76.0374 82.1015 77.6563 82.1015C78.7455 82.1015 79.6497 81.3104 79.8049 80.2192C79.9693 79.0622 79.9691 77.8585 79.8049 76.7023C79.6497 75.611 78.7457 74.8186 77.6563 74.8186ZM67.8153 81.598C66.1047 81.598 64.7127 80.1904 64.7127 78.4607C64.7127 76.7297 66.1047 75.322 67.8153 75.322C69.5272 75.322 70.9178 76.7297 70.9178 78.4607C70.9178 80.1906 69.5272 81.598 67.8153 81.598Z" fill="url(#paint0_linear_516_4633)"/>
<defs>
<linearGradient id="paint0_linear_516_4633" x1="43.2717" y1="81.7808" x2="85.5626" y2="39.9585" gradientUnits="userSpaceOnUse">
<stop stop-color="#FC4422"/>
<stop offset="1" stop-color="#FFBB32"/>
</linearGradient>
</defs>
</svg>
