<svg width="48" height="48" viewBox="0 0 48 48" fill="none" xmlns="http://www.w3.org/2000/svg">
<path d="M41.1393 36.0112L37.1077 16.6267C36.9702 15.9473 36.6021 15.3363 36.0658 14.8972C35.5295 14.458 34.8579 14.2177 34.1647 14.2169H33.7593V12.7154C33.2495 -0.234576 14.7828 -0.242324 14.2397 12.7154V14.2169H13.8343C13.1411 14.2177 12.4696 14.458 11.9332 14.8972C11.3969 15.3363 11.0288 15.9473 10.8913 16.6267L6.85978 36.0187C6.65111 37.1071 6.68438 38.228 6.95722 39.302C7.23006 40.3761 7.7358 41.377 8.43859 42.2338C9.14138 43.0906 10.024 43.7823 11.024 44.26C12.0239 44.7376 13.1166 44.9895 14.2248 44.9977L33.7744 44.9978C34.8834 44.9902 35.9772 44.7385 36.978 44.2606C37.9788 43.7826 38.8621 43.0902 39.5651 42.2324C40.2681 41.3746 40.7736 40.3725 41.0457 39.2973C41.3177 38.2221 41.3497 37.1002 41.1393 36.0112ZM21.2668 30.1328H26.7323C27.0098 30.1333 27.2846 30.1884 27.5408 30.2951C27.797 30.4017 28.0298 30.5578 28.2257 30.7544C28.4216 30.951 28.5768 31.1842 28.6826 31.4409C28.7883 31.6975 28.8424 31.9724 28.8419 32.2499V34.9752C28.8424 35.2527 28.7883 35.5276 28.6826 35.7843C28.5768 36.0409 28.4216 36.2741 28.2257 36.4707C28.0298 36.6673 27.797 36.8234 27.5408 36.9301C27.2846 37.0367 27.0098 37.0919 26.7323 37.0923H24.7503V38.3911C24.7503 38.5903 24.6712 38.7812 24.5304 38.922C24.3896 39.0628 24.1986 39.1419 23.9995 39.1419C23.8004 39.1419 23.6095 39.0628 23.4687 38.922C23.3279 38.7812 23.2488 38.5903 23.2488 38.3911V37.0923H21.2668C20.9892 37.0919 20.7145 37.0367 20.4583 36.9301C20.202 36.8234 19.9693 36.6673 19.7734 36.4707C19.5775 36.2741 19.4222 36.0409 19.3165 35.7843C19.2108 35.5276 19.1566 35.2527 19.1572 34.9752C19.161 34.7786 19.2418 34.5914 19.3822 34.4537C19.5225 34.316 19.7113 34.2389 19.9079 34.2389C20.1045 34.2389 20.2933 34.3161 20.4337 34.4537C20.5741 34.5914 20.6548 34.7786 20.6587 34.9752C20.6577 35.1375 20.7212 35.2935 20.8353 35.4089C20.9493 35.5244 21.1045 35.5898 21.2668 35.5908H26.7323C26.8946 35.5898 27.0498 35.5243 27.1638 35.4089C27.2778 35.2935 27.3414 35.1374 27.3404 34.9752V32.2499C27.3415 32.1694 27.3266 32.0895 27.2965 32.0148C27.2664 31.9401 27.2218 31.8721 27.1652 31.8148C27.1086 31.7576 27.0412 31.7121 26.9669 31.6811C26.8926 31.6501 26.8128 31.6342 26.7323 31.6343H21.2668C20.7066 31.6322 20.1702 31.4082 19.7748 31.0114C19.3794 30.6146 19.1574 30.0774 19.1572 29.5172V26.7845C19.1574 26.2243 19.3794 25.6871 19.7748 25.2903C20.1702 24.8935 20.7066 24.6695 21.2668 24.6673H23.2488V23.376C23.2488 23.1769 23.3279 22.986 23.4687 22.8452C23.6095 22.7044 23.8004 22.6253 23.9995 22.6253C24.1986 22.6253 24.3896 22.7044 24.5304 22.8452C24.6712 22.986 24.7503 23.1769 24.7503 23.376V24.6673H26.7323C27.2924 24.6695 27.8289 24.8935 28.2242 25.2903C28.6196 25.6871 28.8417 26.2243 28.8419 26.7845C28.8419 26.9836 28.7628 27.1745 28.622 27.3153C28.4812 27.4561 28.2903 27.5352 28.0911 27.5352C27.892 27.5352 27.7011 27.4561 27.5603 27.3153C27.4195 27.1745 27.3404 26.9836 27.3404 26.7845C27.3414 26.6222 27.2778 26.4662 27.1638 26.3507C27.0498 26.2353 26.8946 26.1699 26.7323 26.1688H21.2668C21.1045 26.1699 20.9493 26.2353 20.8353 26.3507C20.7212 26.4662 20.6577 26.6222 20.6587 26.7845V29.5172C20.6577 29.6795 20.7212 29.8355 20.8352 29.9509C20.9493 30.0664 21.1045 30.1318 21.2668 30.1328ZM32.2578 14.2168H15.7412C14.8864 1.23394 33.1331 1.24462 32.2578 14.2168Z" fill="url(#paint0_linear_884_5673)"/>
<defs>
<linearGradient id="paint0_linear_884_5673" x1="6.69466" y1="24" x2="46.1252" y2="31.125" gradientUnits="userSpaceOnUse">
<stop stop-color="#0094FF"/>
<stop offset="1" stop-color="#4200FD"/>
</linearGradient>
</defs>
</svg>
