<svg width="40" height="40" viewBox="0 0 40 40" fill="none" xmlns="http://www.w3.org/2000/svg">
<path d="M3.59375 36.4844L5.9375 40H8.28125L10.625 36.4844L7.10938 32.9688L3.59375 36.4844ZM28.2031 18.9062H20V15.2344C20 14.5866 19.4759 14.0625 18.8281 14.0625C18.1804 14.0625 17.6562 14.5866 17.6562 15.2344V18.9062H9.45312C7.51453 18.9062 5.9375 20.4833 5.9375 22.4219V24.7656C5.9375 25.4134 6.46164 25.9375 7.10938 25.9375C7.75711 25.9375 8.28125 25.4134 8.28125 24.7656V22.4219C8.28125 21.7764 8.80766 21.25 9.45312 21.25H28.2031C28.8486 21.25 29.375 21.7764 29.375 22.4219V24.7656C29.375 25.4134 29.8991 25.9375 30.5469 25.9375C31.1946 25.9375 31.7188 25.4134 31.7188 24.7656V22.4219C31.7188 20.4833 30.1417 18.9062 28.2031 18.9062Z" fill="url(#paint0_linear_884_5675)"/>
<path d="M30.5469 23.5938C26.0241 23.5938 22.3438 27.2741 22.3438 31.7969V36.4844C22.3438 38.423 23.9208 40 25.8594 40H28.2031C28.8509 40 29.375 39.4759 29.375 38.8281V31.7969C29.375 31.1491 28.8509 30.625 28.2031 30.625H25.8594C25.4831 30.625 25.1273 30.6999 24.7872 30.81C25.2595 28.0492 27.6531 25.9375 30.5469 25.9375C33.4406 25.9375 35.8343 28.0492 36.3066 30.81C35.9664 30.6999 35.6106 30.625 35.2344 30.625H32.8906C32.2429 30.625 31.7188 31.1491 31.7188 31.7969V38.8281C31.7188 39.4759 32.2429 40 32.8906 40H35.2344C37.173 40 38.75 38.423 38.75 36.4844V31.7969C38.75 27.2741 35.0696 23.5938 30.5469 23.5938ZM9.45312 23.5938H4.76562C2.82023 23.5938 1.25 25.1641 1.25 27.1094V36.4844C1.25 38.4295 2.82023 40 4.76562 40H5.9375V36.4844C5.9375 35.828 6.45305 35.3125 7.10938 35.3125C7.7657 35.3125 8.28125 35.828 8.28125 36.4844V40H9.45312C11.3985 40 12.9688 38.4295 12.9688 36.4844V27.1094C12.9688 25.1641 11.3985 23.5938 9.45312 23.5938ZM10.625 16.4062H27.0312C29.6153 16.4062 31.7188 14.3028 31.7188 11.7188C31.7188 10.0113 30.7941 8.46406 29.3498 7.64922C29.0683 4.67836 26.5598 2.34375 23.5156 2.34375C23.1059 2.34375 22.7145 2.38266 22.3323 2.46508C20.808 0.890312 18.7183 0 16.4844 0C12.1448 0 8.58336 3.38516 8.29953 7.65383C6.85758 8.45492 5.9375 9.99523 5.9375 11.7188C5.9375 14.3028 8.04094 16.4062 10.625 16.4062Z" fill="url(#paint1_linear_884_5675)"/>
<defs>
<linearGradient id="paint0_linear_884_5675" x1="17.6562" y1="40" x2="17.6562" y2="14.0625" gradientUnits="userSpaceOnUse">
<stop stop-color="#FF9E8D"/>
<stop offset="1" stop-color="#FE4986"/>
</linearGradient>
<linearGradient id="paint1_linear_884_5675" x1="20" y1="40" x2="20" y2="0" gradientUnits="userSpaceOnUse">
<stop stop-color="#FD3A84"/>
<stop offset="1" stop-color="#FFA68D"/>
</linearGradient>
</defs>
</svg>
