<svg width="12" height="11" viewBox="0 0 12 11" fill="none" xmlns="http://www.w3.org/2000/svg">
<path d="M8.5 0.999907C8.63132 0.868585 8.78722 0.764415 8.9588 0.693344C9.13038 0.622273 9.31428 0.585693 9.5 0.585693C9.68572 0.585693 9.86962 0.622273 10.0412 0.693344C10.2128 0.764415 10.3687 0.868585 10.5 0.999907C10.6313 1.13123 10.7355 1.28713 10.8066 1.45871C10.8776 1.63029 10.9142 1.81419 10.9142 1.99991C10.9142 2.18562 10.8776 2.36952 10.8066 2.5411C10.7355 2.71268 10.6313 2.86859 10.5 2.99991L3.75 9.74991L1 10.4999L1.75 7.74991L8.5 0.999907Z" stroke="url(#paint0_linear_1505_1689)" stroke-linecap="round" stroke-linejoin="round"/>
<defs>
<linearGradient id="paint0_linear_1505_1689" x1="0.4585" y1="5.48166" x2="12.332" y2="5.48166" gradientUnits="userSpaceOnUse">
<stop stop-color="#0026EC"/>
<stop offset="1" stop-color="#1BFFFF"/>
</linearGradient>
</defs>
</svg>
