<svg width="16" height="16" viewBox="0 0 16 16" fill="none" xmlns="http://www.w3.org/2000/svg">
<path d="M13.4634 12.5212H2.53679C2.18163 12.5208 1.84113 12.3795 1.59001 12.1284C1.33888 11.8772 1.19764 11.5367 1.19727 11.1816V4.4334C1.19764 4.07824 1.33888 3.73773 1.59001 3.48658C1.84113 3.23543 2.18163 3.09416 2.53679 3.09375H13.4634C13.8185 3.09416 14.159 3.23543 14.4102 3.48658C14.6613 3.73773 14.8025 4.07824 14.8029 4.4334V11.1816C14.8025 11.5367 14.6613 11.8772 14.4102 12.1284C14.159 12.3795 13.8185 12.5208 13.4634 12.5212ZM2.53679 3.60575C2.31736 3.60599 2.107 3.69327 1.95186 3.84843C1.79672 4.0036 1.70947 4.21398 1.70927 4.4334V11.1816C1.70947 11.401 1.79672 11.6114 1.95186 11.7665C2.107 11.9217 2.31736 12.009 2.53679 12.0092H13.4634C13.6828 12.009 13.8932 11.9217 14.0483 11.7665C14.2034 11.6114 14.2907 11.401 14.2909 11.1816V4.4334C14.2907 4.21398 14.2034 4.0036 14.0483 3.84843C13.8932 3.69327 13.6828 3.60599 13.4634 3.60575H2.53679Z" fill="white"/>
<path d="M7.99996 9.31407C7.93756 9.3141 7.87729 9.29134 7.83049 9.25007L1.66089 3.80392L1.9997 3.41992L7.99996 8.71707L14.0005 3.42056L14.3393 3.80456L8.16969 9.25071C8.12276 9.29187 8.06238 9.31441 7.99996 9.31407Z" fill="white"/>
<path d="M1.52173 11.7168L5.6664 6.99438L6.05143 7.3323L1.90675 12.0547L1.52173 11.7168Z" fill="white"/>
<path d="M9.96167 7.32715L10.3467 6.98923L14.4915 11.7117L14.1064 12.0497L9.96167 7.32715Z" fill="white"/>
</svg>
