<svg width="32" height="32" viewBox="0 0 32 32" fill="none" xmlns="http://www.w3.org/2000/svg">
<g clip-path="url(#clip0_1455_7536)">
<path d="M18.6743 19.6056C17.8782 20.1363 16.9534 20.4169 16 20.4169C15.0466 20.4169 14.1219 20.1363 13.3257 19.6056L0.213062 10.8635C0.140312 10.815 0.0694375 10.7645 0 10.7125V25.0373C0 26.6797 1.33281 27.9831 2.94581 27.9831H29.0541C30.6965 27.9831 31.9999 26.6503 31.9999 25.0373V10.7124C31.9304 10.7645 31.8594 10.8152 31.7864 10.8638L18.6743 19.6056Z" fill="#0026EC"/>
<path d="M1.25312 9.3036L14.3658 18.0457C14.8622 18.3767 15.4311 18.5421 15.9999 18.5421C16.5689 18.5421 17.1378 18.3766 17.6342 18.0457L30.7469 9.3036C31.5316 8.78079 32 7.90579 32 6.96141C32 5.3376 30.6789 4.0166 29.0552 4.0166H2.94481C1.32106 4.01666 0 5.33766 0 6.96298C0 7.90579 0.4685 8.78079 1.25312 9.3036Z" fill="#0026EC"/>
</g>
<defs>
<clipPath id="clip0_1455_7536">
<rect width="32" height="32" fill="white"/>
</clipPath>
</defs>
</svg>
