<svg width="32" height="32" viewBox="0 0 32 32" fill="none" xmlns="http://www.w3.org/2000/svg">
<g opacity="0.8" clip-path="url(#clip0_1293_2472)">
<path d="M16 19.2812C17.8122 19.2812 19.2812 17.8122 19.2812 16C19.2812 14.1878 17.8122 12.7188 16 12.7188C14.1878 12.7188 12.7188 14.1878 12.7188 16C12.7188 17.8122 14.1878 19.2812 16 19.2812Z" fill="white"/>
<path d="M16 0.375C7.37056 0.375 0.375 7.37056 0.375 16C0.375 24.6294 7.37056 31.625 16 31.625C24.6294 31.625 31.625 24.6294 31.625 16C31.625 7.37056 24.6294 0.375 16 0.375ZM25.6536 19.9713C25.5786 21.4568 25.1612 22.9216 24.0786 23.9927C22.9856 25.0739 21.5138 25.4768 20.0139 25.5511H11.9861C10.4861 25.4768 9.0145 25.0742 7.92144 23.9927C6.83881 22.9216 6.42144 21.4568 6.34644 19.9713V12.0288C6.42144 10.5433 6.83887 9.07837 7.92144 8.00725C9.0145 6.926 10.4863 6.52312 11.9861 6.44894H20.0139C21.5139 6.52312 22.9855 6.92581 24.0786 8.00725C25.1612 9.07837 25.5786 10.5433 25.6536 12.0288L25.6536 19.9713Z" fill="white"/>
<path d="M19.9124 8.25897C17.957 8.20534 14.0433 8.20534 12.0879 8.25897C11.0704 8.28691 9.91679 8.54022 9.19179 9.31459C8.43841 10.1195 8.15373 11.092 8.12485 12.18C8.0741 14.0895 8.12485 19.8207 8.12485 19.8207C8.15791 20.9085 8.43841 21.8812 9.19179 22.6861C9.91679 23.4607 11.0704 23.7138 12.0879 23.7417C14.0433 23.7953 17.957 23.7953 19.9124 23.7417C20.93 23.7138 22.0835 23.4605 22.8085 22.6861C23.5619 21.8812 23.8466 20.9087 23.8755 19.8207V12.18C23.8466 11.092 23.5619 10.1195 22.8085 9.31459C22.0833 8.53997 20.9297 8.28691 19.9124 8.25897ZM15.9999 21.0863C14.994 21.0863 14.0107 20.788 13.1743 20.2291C12.3379 19.6703 11.6861 18.876 11.3011 17.9466C10.9162 17.0173 10.8155 15.9947 11.0117 15.0081C11.2079 14.0216 11.6923 13.1153 12.4036 12.404C13.1149 11.6928 14.0211 11.2084 15.0077 11.0121C15.9943 10.8159 17.0169 10.9166 17.9462 11.3016C18.8756 11.6865 19.6699 12.3384 20.2287 13.1747C20.7876 14.0111 21.0858 14.9944 21.0858 16.0003C21.0858 17.3492 20.55 18.6428 19.5962 19.5966C18.6424 20.5504 17.3488 21.0863 15.9999 21.0863ZM21.1075 11.9642C20.9063 11.9642 20.7097 11.9045 20.5424 11.7927C20.3752 11.6809 20.2448 11.522 20.1679 11.3361C20.0909 11.1502 20.0708 10.9457 20.1101 10.7484C20.1494 10.5511 20.2463 10.3699 20.3886 10.2277C20.5308 10.0855 20.7121 9.9886 20.9094 9.94937C21.1067 9.91014 21.3112 9.9303 21.497 10.0073C21.6829 10.0843 21.8417 10.2147 21.9535 10.3819C22.0653 10.5492 22.1249 10.7459 22.1249 10.947C22.1249 11.0806 22.0986 11.2129 22.0475 11.3363C21.9963 11.4598 21.9214 11.5719 21.8269 11.6664C21.7324 11.7608 21.6203 11.8358 21.4968 11.8869C21.3734 11.938 21.2411 11.9643 21.1075 11.9642Z" fill="white"/>
</g>
<defs>
<clipPath id="clip0_1293_2472">
<rect width="32" height="32" fill="white"/>
</clipPath>
</defs>
</svg>
