<svg width="16" height="16" viewBox="0 0 16 16" fill="none" xmlns="http://www.w3.org/2000/svg">
<g clip-path="url(#clip0_1617_2833)">
<path d="M4 3.1999C4 2.75809 4.35819 2.3999 4.8 2.3999H15.2C15.6418 2.3999 16 2.75809 16 3.1999C16 3.64171 15.6418 3.9999 15.2 3.9999H4.8C4.35819 3.9999 4 3.64168 4 3.1999ZM15.2 7.1999H0.8C0.358188 7.1999 0 7.55812 0 7.9999C0 8.44171 0.358188 8.7999 0.8 8.7999H15.2C15.6418 8.7999 16 8.44171 16 7.9999C16 7.55812 15.6418 7.1999 15.2 7.1999ZM15.2 11.9999H8C7.55822 11.9999 7.2 12.3581 7.2 12.7999C7.2 13.2417 7.55822 13.5999 8 13.5999H15.2C15.6418 13.5999 16 13.2417 16 12.7999C16 12.3581 15.6418 11.9999 15.2 11.9999Z" fill="#0026EC"/>
</g>
<defs>
<clipPath id="clip0_1617_2833">
<rect width="16" height="16" fill="white"/>
</clipPath>
</defs>
</svg>
