<svg width="52" height="52" viewBox="0 0 52 52" fill="none" xmlns="http://www.w3.org/2000/svg">
<path d="M38.8697 14.5494C38.0139 13.2819 37.1906 12.0578 36.3672 10.8336C36.2047 10.5844 35.9881 10.3569 35.8797 10.0753C35.7822 9.82611 35.6847 9.44694 35.8039 9.27361C35.923 9.10027 36.3347 9.01361 36.5839 9.05694C38.1764 9.32777 39.7689 9.65277 41.3506 9.96694C43.5714 10.4003 45.7814 10.8228 48.0022 11.2561C48.7064 11.3969 48.8364 11.5703 48.6956 12.2961C48.2622 14.5711 47.8181 16.8461 47.3739 19.1211C47.0922 20.5511 46.8539 21.9919 46.5397 23.4111C46.4639 23.7361 46.2581 24.1586 45.9872 24.2886C45.5647 24.4944 45.3481 24.0394 45.1314 23.7253C44.2972 22.5011 43.4631 21.2878 42.5964 20.0311C41.0581 21.1144 39.563 22.1761 38.0681 23.2378C34.8722 25.5019 31.6764 27.7769 28.4806 30.0519C27.8306 30.5178 27.6572 30.4853 27.0722 29.8461C24.4831 27.0403 21.8939 24.2344 19.2939 21.4286C19.1856 21.3094 19.0664 21.2119 18.9256 21.0819C17.4089 22.0786 15.9031 23.0644 14.4081 24.0611C11.1039 26.2494 7.81055 28.4378 4.50638 30.6261C4.14888 30.8644 3.74805 31.1353 3.39055 30.7019C3.03305 30.2686 3.36888 29.9328 3.67222 29.6294C9.05638 24.2886 14.4405 18.9478 19.8247 13.6178C20.9405 12.5128 20.9514 12.5019 22.0347 13.6611C24.1147 15.8819 26.1947 18.1028 28.2639 20.3236C28.5131 20.5836 28.7081 20.7786 29.1089 20.5294C32.2506 18.6119 35.3922 16.7053 38.5447 14.7986C38.6422 14.7336 38.718 14.6686 38.8697 14.5494Z" fill="url(#paint0_linear_884_5667)"/>
<path d="M43.3974 25.0252C43.3757 25.0035 43.3649 24.971 43.3432 24.9494C42.9207 24.321 42.4982 23.7035 42.0541 23.0752C41.1332 23.7252 40.2341 24.3644 39.3241 25.0144L35.7491 27.5494C33.7449 28.9685 31.7407 30.3985 29.7366 31.8177C29.4116 32.0452 28.729 32.5327 27.819 32.5327C26.6057 32.5327 25.8474 31.7094 25.479 31.3194L23.1282 28.7735C21.6224 27.1485 20.1166 25.5127 18.6107 23.8877C17.6032 24.5485 16.6066 25.2094 15.6099 25.8702C13.1832 27.4735 10.7565 29.0877 8.32988 30.691L5.70822 32.4244C5.66488 32.4569 5.62155 32.4785 5.56738 32.511C8.27572 40.376 15.7399 46.031 24.5257 46.031C35.0124 46.031 43.6141 37.9819 44.4916 27.7227C44.5566 26.9319 44.3074 26.141 43.7766 25.556C43.6032 25.3502 43.4732 25.1444 43.3974 25.0252Z" fill="url(#paint1_linear_884_5667)"/>
<path d="M10.5076 19.8035C13.1076 17.2252 15.7185 14.636 18.3185 12.0577C19.0768 11.3102 19.781 10.606 20.951 10.606C22.1751 10.606 22.8793 11.3643 23.6376 12.166C25.4793 14.1268 27.3101 16.0877 29.0976 17.9943C31.026 16.8135 32.976 15.6327 34.861 14.4952C35.186 14.3002 35.511 14.1052 35.836 13.8993C35.4135 13.271 35.0018 12.6535 34.5793 12.036C34.5468 11.9927 34.5143 11.9493 34.4818 11.8952C34.3085 11.6677 34.0485 11.321 33.8751 10.8552C33.4093 9.6635 33.5935 8.8185 33.8968 8.266C31.091 6.79266 27.9168 5.9585 24.5368 5.9585C13.5518 5.9585 4.62512 14.8093 4.49512 25.7618C6.49928 23.7793 8.50345 21.7968 10.5076 19.8035Z" fill="url(#paint2_linear_884_5667)"/>
<defs>
<linearGradient id="paint0_linear_884_5667" x1="2.49976" y1="13.1647" x2="65.19" y2="30.5565" gradientUnits="userSpaceOnUse">
<stop stop-color="#AFEC00"/>
<stop offset="0.976788" stop-color="#4AC101"/>
</linearGradient>
<linearGradient id="paint1_linear_884_5667" x1="4.93723" y1="27.3954" x2="59.8842" y2="39.8286" gradientUnits="userSpaceOnUse">
<stop stop-color="#AFEC00"/>
<stop offset="0.976788" stop-color="#4AC101"/>
</linearGradient>
<linearGradient id="paint2_linear_884_5667" x1="3.98787" y1="9.68541" x2="48.4987" y2="19.0834" gradientUnits="userSpaceOnUse">
<stop stop-color="#AFEC00"/>
<stop offset="0.976788" stop-color="#4AC101"/>
</linearGradient>
</defs>
</svg>
