<svg width="34" height="34" viewBox="0 0 34 34" fill="none" xmlns="http://www.w3.org/2000/svg">
<path d="M22.6667 5.6665H11.3334C8.2038 5.6665 5.66675 8.20356 5.66675 11.3332V22.6665C5.66675 25.7961 8.2038 28.3332 11.3334 28.3332H22.6667C25.7964 28.3332 28.3334 25.7961 28.3334 22.6665V11.3332C28.3334 8.20356 25.7964 5.6665 22.6667 5.6665Z" fill="#F2F2F2"/>
<path d="M21.25 8.5H12.75C10.4028 8.5 8.5 10.4028 8.5 12.75V21.25C8.5 23.5972 10.4028 25.5 12.75 25.5H21.25C23.5972 25.5 25.5 23.5972 25.5 21.25V12.75C25.5 10.4028 23.5972 8.5 21.25 8.5Z" fill="#21CE62"/>
<path d="M17.0851 21.7457C16.8017 21.4623 16.8017 21.0232 17.0851 20.7398L20.3292 17.4957C20.5984 17.2265 20.5984 16.7732 20.3292 16.4898L17.0851 13.2457C16.8017 12.9623 16.8017 12.5232 17.0851 12.2398C17.3684 11.9565 17.8076 11.9565 18.0909 12.2398L21.3351 15.484C22.1567 16.3057 22.1567 17.6657 21.3351 18.4873L18.0909 21.7315C17.8076 22.0148 17.3684 22.0148 17.0851 21.7315V21.7457Z" fill="black"/>
<path d="M21.2358 17.7082H5.66659C5.26992 17.7082 4.95825 17.3965 4.95825 16.9998C4.95825 16.6032 5.26992 16.2915 5.66659 16.2915H21.2358C21.6324 16.2915 21.9441 16.6032 21.9441 16.9998C21.9441 17.3965 21.6324 17.7082 21.2358 17.7082Z" fill="black"/>
<path d="M22.6666 29.0418H11.3333C7.81992 29.0418 4.95825 26.1802 4.95825 22.6668C4.95825 22.2702 5.26992 21.9585 5.66659 21.9585C6.06325 21.9585 6.37492 22.2702 6.37492 22.6668C6.37492 25.401 8.59909 27.6252 11.3333 27.6252H22.6666C25.4008 27.6252 27.6249 25.401 27.6249 22.6668V11.3335C27.6249 8.59933 25.4008 6.37516 22.6666 6.37516H11.3333C8.59909 6.37516 6.37492 8.59933 6.37492 11.3335C6.37492 11.7302 6.06325 12.0418 5.66659 12.0418C5.26992 12.0418 4.95825 11.7302 4.95825 11.3335C4.95825 7.82016 7.81992 4.9585 11.3333 4.9585H22.6666C26.1799 4.9585 29.0416 7.82016 29.0416 11.3335V22.6668C29.0416 26.1802 26.1799 29.0418 22.6666 29.0418Z" fill="black"/>
</svg>
