<svg width="32" height="32" viewBox="0 0 32 32" fill="none" xmlns="http://www.w3.org/2000/svg">
<g clip-path="url(#clip0_1455_7543)">
<path d="M31.1287 23.4848L26.663 19.0191C25.0681 17.4242 22.3567 18.0622 21.7188 20.1355C21.2403 21.571 19.6454 22.3684 18.21 22.0494C15.0202 21.2519 10.714 17.1052 9.9166 13.7559C9.43813 12.3205 10.3951 10.7256 11.8305 10.2472C13.9038 9.60922 14.5418 6.89791 12.9469 5.30301L8.48119 0.837318C7.20528 -0.279106 5.29141 -0.279106 4.17499 0.837318L1.14469 3.86761C-1.8856 7.05739 1.46367 15.5103 8.95966 23.0063C16.4557 30.5023 24.9086 34.0111 28.0984 30.8213L31.1287 27.791C32.2451 26.5151 32.2451 24.6012 31.1287 23.4848Z" fill="#0026EC"/>
</g>
<defs>
<clipPath id="clip0_1455_7543">
<rect width="32" height="32" fill="white"/>
</clipPath>
</defs>
</svg>
