<svg width="28" height="28" viewBox="0 0 28 28" fill="none" xmlns="http://www.w3.org/2000/svg">
<g clip-path="url(#clip0_838_4383)">
<path d="M14.8203 0.410156L25.9492 13.1797H27.5898C27.5898 6.1273 21.8728 0.410156 14.8203 0.410156Z" fill="#9753F3"/>
<path d="M14.8203 0.410156V13.1797H25.9492C25.9492 6.1273 20.9666 0.410156 14.8203 0.410156Z" fill="#ECDEFE"/>
<path d="M23.8984 15.0254L12.9746 27.5898C19.9137 27.5898 25.5391 21.9645 25.5391 15.0254H23.8984Z" fill="#793BCC"/>
<path d="M12.9746 2.46094C7.73912 2.46094 3.25218 5.66355 1.36426 10.2162V15.0254H12.9746V2.46094Z" fill="#D8BBFF"/>
<path d="M1.36423 10.2163C0.74993 11.6977 0.410156 13.3218 0.410156 15.0255C0.410156 18.4951 1.8165 21.6362 4.09019 23.9099H12.9746V15.0255L1.36423 10.2163Z" fill="#B986FF"/>
<path d="M12.9745 15.0254L4.09009 23.9098C6.36383 26.1836 9.50492 27.5898 12.9745 27.5898C19.0076 27.5898 23.8983 21.9645 23.8983 15.0254H12.9745Z" fill="#9752F3"/>
<path d="M24.1398 3.86023C21.6505 1.37091 18.3408 0 14.8203 0C14.5937 0 14.4102 0.183586 14.4102 0.410156V5.97461C14.4102 6.20118 14.5937 6.38477 14.8203 6.38477C15.0469 6.38477 15.2305 6.20118 15.2305 5.97461V0.827039C21.7201 1.03972 26.9603 6.27987 27.173 12.7695H15.2305V7.61523C15.2305 7.38866 15.0469 7.20508 14.8203 7.20508C14.5937 7.20508 14.4102 7.38866 14.4102 7.61523V13.1797C14.4102 13.4063 14.5937 13.5898 14.8203 13.5898H27.5898C27.8164 13.5898 28 13.4063 28 13.1797C28 9.65923 26.6291 6.34949 24.1398 3.86023Z" fill="black"/>
<path d="M25.5391 14.6152H13.3848V2.46094C13.3848 2.23437 13.2012 2.05078 12.9746 2.05078C9.50895 2.05078 6.25078 3.40041 3.80018 5.85096C1.34958 8.30151 0 11.5597 0 15.0254C0 18.491 1.34963 21.7492 3.80018 24.1998C6.25073 26.6504 9.50895 28 12.9746 28C16.4403 28 19.6984 26.6504 22.149 24.1998C24.5996 21.7493 25.9492 18.491 25.9492 15.0254C25.9492 14.7988 25.7656 14.6152 25.5391 14.6152ZM12.5645 2.87793V14.4116L1.91018 9.99841C3.77267 5.9156 7.82966 3.03592 12.5645 2.87793ZM1.59523 10.7558L12.2505 15.1694L4.09965 23.3202C2.06686 21.1467 0.820312 18.2291 0.820312 15.0254C0.820312 13.5236 1.0949 12.0848 1.59523 10.7558ZM12.9746 27.1797C9.77091 27.1797 6.85327 25.9331 4.67972 23.9004L13.1445 15.4355H25.1221C24.9047 21.9481 19.5391 27.1797 12.9746 27.1797Z" fill="black"/>
</g>
<defs>
<clipPath id="clip0_838_4383">
<rect width="28" height="28" fill="white"/>
</clipPath>
</defs>
</svg>
