<svg width="32" height="32" viewBox="0 0 32 32" fill="none" xmlns="http://www.w3.org/2000/svg">
<path d="M16.0003 0C9.61001 0 4.41113 5.19887 4.41113 11.5891C4.41113 19.5196 14.7823 31.1621 15.2239 31.6538C15.6386 32.1157 16.3628 32.1149 16.7768 31.6538C17.2183 31.1621 27.5895 19.5196 27.5895 11.5891C27.5894 5.19887 22.3906 0 16.0003 0ZM16.0003 17.4199C12.7852 17.4199 10.1696 14.8042 10.1696 11.5891C10.1696 8.374 12.7853 5.75838 16.0003 5.75838C19.2154 5.75838 21.831 8.37406 21.831 11.5892C21.831 14.8043 19.2154 17.4199 16.0003 17.4199Z" fill="#0026EC"/>
</svg>
