<svg width="120" height="120" viewBox="0 0 120 120" fill="none" xmlns="http://www.w3.org/2000/svg">
<circle cx="60" cy="60" r="60" fill="#FBF0FF"/>
<circle cx="17" cy="70" r="5" fill="url(#paint0_linear_884_5044)"/>
<circle cx="37.5" cy="30.5" r="8.5" fill="url(#paint1_linear_884_5044)"/>
<circle cx="83" cy="21" r="10" fill="url(#paint2_linear_884_5044)"/>
<g clip-path="url(#clip0_884_5044)">
<path d="M97.4375 26.8499L92.1501 21.5625C91.4376 20.8125 90.2376 20.8125 89.5251 21.5625L84.2001 26.8499L84.3853 34.535L92.1501 34.7999L97.4375 29.475C98.1875 28.7625 98.1875 27.5625 97.4375 26.8499ZM79.5494 42.0893L64.4139 57.2595L60.4221 58.5779L61.7405 54.588L76.9126 39.4525C78.0919 38.2692 77.2505 36.25 75.587 36.25H39.625C36.5233 36.25 34 38.7733 34 41.875V79.375C34 82.4767 36.5233 85 39.625 85H77.125C80.2267 85 82.75 82.4767 82.75 79.375V43.4131C82.75 41.754 80.734 40.9006 79.5494 42.0893Z" fill="url(#paint3_linear_884_5044)"/>
<path d="M84.2003 26.8501L58.7877 52.2626C58.5627 52.4502 58.4128 52.7128 58.3377 52.9751L55.7127 60.9251C55.1864 62.5045 56.7777 63.8072 58.0752 63.2876L66.0252 60.6627C66.2877 60.5876 66.5502 60.4377 66.7377 60.2127L92.1503 34.8001L84.2003 26.8501Z" fill="url(#paint4_linear_884_5044)"/>
</g>
<defs>
<linearGradient id="paint0_linear_884_5044" x1="17" y1="65" x2="17" y2="75" gradientUnits="userSpaceOnUse">
<stop stop-color="#E86EFF"/>
<stop offset="1" stop-color="#B544FF"/>
</linearGradient>
<linearGradient id="paint1_linear_884_5044" x1="37.5" y1="22" x2="37.5" y2="39" gradientUnits="userSpaceOnUse">
<stop stop-color="#E86EFF"/>
<stop offset="1" stop-color="#B544FF"/>
</linearGradient>
<linearGradient id="paint2_linear_884_5044" x1="83" y1="11" x2="83" y2="31" gradientUnits="userSpaceOnUse">
<stop stop-color="#E86EFF"/>
<stop offset="1" stop-color="#B544FF"/>
</linearGradient>
<linearGradient id="paint3_linear_884_5044" x1="66" y1="85" x2="66" y2="21" gradientUnits="userSpaceOnUse">
<stop stop-color="#A93AFF"/>
<stop offset="1" stop-color="#FF81FF"/>
</linearGradient>
<linearGradient id="paint4_linear_884_5044" x1="73.8798" y1="63.4036" x2="73.8798" y2="26.8502" gradientUnits="userSpaceOnUse">
<stop stop-color="#FFBEF9"/>
<stop offset="1" stop-color="#FFF1FF"/>
</linearGradient>
<clipPath id="clip0_884_5044">
<rect width="64" height="64" fill="white" transform="translate(34 21)"/>
</clipPath>
</defs>
</svg>
