<svg width="16" height="16" viewBox="0 0 16 16" fill="none" xmlns="http://www.w3.org/2000/svg">
<path d="M4.63439 9.67428C5.92147 11.2128 7.47084 12.4242 9.23922 13.2814C9.91251 13.6004 10.8129 13.979 11.8161 14.0439C11.8783 14.0466 11.9378 14.0493 12 14.0493C12.6732 14.0493 13.214 13.8167 13.6548 13.3381C13.6575 13.3354 13.6629 13.33 13.6656 13.3246C13.8224 13.1353 14.0009 12.965 14.1875 12.7838C14.3145 12.6622 14.4443 12.5351 14.5687 12.4053C15.1447 11.805 15.1447 11.0425 14.5633 10.4611L12.9382 8.83606C12.6624 8.54944 12.3325 8.39802 11.9864 8.39802C11.6403 8.39802 11.3077 8.54944 11.0238 8.83335L10.0558 9.80137C9.96659 9.74999 9.87465 9.70403 9.78813 9.66076C9.67997 9.60668 9.57992 9.55531 9.49069 9.49852C8.6092 8.93881 7.80883 8.20874 7.04361 7.27047C6.65695 6.78105 6.39737 6.37005 6.2162 5.95094C6.47038 5.7211 6.70832 5.48045 6.93816 5.24521C7.01928 5.16138 7.1031 5.07756 7.18692 4.99374C7.47895 4.70171 7.63578 4.36372 7.63578 4.02032C7.63578 3.67691 7.48165 3.33892 7.18692 3.04689L6.38115 2.24111C6.28651 2.14648 6.19728 2.05454 6.10534 1.9599C5.92688 1.77603 5.74031 1.58676 5.55644 1.41641C5.27793 1.14331 4.95075 1 4.60465 1C4.26125 1 3.93136 1.14331 3.64204 1.41911L2.63076 2.43039C2.26302 2.79813 2.05482 3.24428 2.01156 3.76074C1.96018 4.40698 2.07916 5.09379 2.38741 5.9239C2.8606 7.20828 3.57444 8.40072 4.63439 9.67428ZM2.67132 3.81752C2.70377 3.45789 2.84167 3.15775 3.10125 2.89818L4.10712 1.8923C4.26395 1.74088 4.437 1.66247 4.60465 1.66247C4.76959 1.66247 4.93723 1.74088 5.09136 1.89771C5.27252 2.06536 5.44287 2.24111 5.62674 2.42769C5.71868 2.52233 5.81332 2.61696 5.90795 2.71431L6.71373 3.52008C6.88138 3.68773 6.9679 3.85808 6.9679 4.02572C6.9679 4.19337 6.88138 4.36372 6.71373 4.53136C6.62991 4.61519 6.54609 4.70171 6.46226 4.78553C6.2108 5.03971 5.97555 5.28036 5.71597 5.51019C5.71057 5.5156 5.70786 5.51831 5.70245 5.52371C5.47803 5.74814 5.51318 5.96175 5.56726 6.12399C5.56996 6.1321 5.57266 6.13751 5.57537 6.14562C5.78357 6.64585 6.07289 7.12175 6.52446 7.68958C7.33564 8.69004 8.19009 9.46608 9.13107 10.0637C9.24734 10.1394 9.37172 10.1988 9.48799 10.2583C9.59615 10.3124 9.69619 10.3638 9.78542 10.4206C9.79624 10.426 9.80435 10.4314 9.81517 10.4368C9.9044 10.4828 9.99092 10.5044 10.0774 10.5044C10.2938 10.5044 10.4344 10.3665 10.4803 10.3205L11.4916 9.30925C11.6484 9.15242 11.8188 9.0686 11.9864 9.0686C12.1919 9.0686 12.3596 9.19568 12.465 9.30925L14.0955 10.937C14.42 11.2615 14.4173 11.613 14.0874 11.9564C13.9738 12.0781 13.8549 12.1944 13.7278 12.316C13.5385 12.4999 13.3411 12.6892 13.1627 12.9028C12.8517 13.2381 12.4813 13.3949 12.0027 13.3949C11.9567 13.3949 11.908 13.3922 11.8621 13.3895C10.9752 13.3327 10.1505 12.9866 9.53125 12.6919C7.84939 11.878 6.37303 10.7234 5.14814 9.25787C4.13957 8.0438 3.46088 6.91355 3.01202 5.70217C2.73351 4.95859 2.62806 4.36101 2.67132 3.81752Z" fill="white"/>
</svg>
