<svg width="32" height="32" viewBox="0 0 32 32" fill="none" xmlns="http://www.w3.org/2000/svg">
<path d="M22.5 11.9995C22.5 6.0108 17.4864 1.19313 11.4275 1.51473C6.02824 1.80131 1.65282 6.29944 1.50407 11.7043C1.4218 14.6935 2.59315 17.4042 4.52763 19.3618C5.89783 20.7483 6.83974 22.4994 7.13793 24.4258L7.51486 26.8609H16.4851L16.8622 24.4246C17.1514 22.5569 17.9998 20.8061 19.35 19.4836C21.2924 17.5811 22.5 14.9338 22.5 11.9995Z" fill="white"/>
<path d="M6.02763 19.362C4.09315 17.4045 2.92179 14.6937 3.00407 11.7045C3.15138 6.35278 7.44438 1.89642 12.7704 1.53104C12.3294 1.49902 11.8819 1.49085 11.4275 1.51495C6.02824 1.80154 1.65284 6.29968 1.50407 11.7045C1.42179 14.6937 2.59315 17.4045 4.52763 19.362C5.89784 20.7486 6.83976 22.4996 7.13795 24.426L7.51487 26.8611H9.01487L8.63795 24.426C8.33976 22.4996 7.39784 20.7486 6.02763 19.362Z" fill="#A5D4FF"/>
<path d="M12 19.9995C16.4183 19.9995 20 16.4178 20 11.9995C20 7.58123 16.4183 3.99951 12 3.99951C7.58172 3.99951 4 7.58123 4 11.9995C4 16.4178 7.58172 19.9995 12 19.9995Z" fill="#A5D4FF"/>
<path d="M12 17.4995C15.0376 17.4995 17.5 15.0371 17.5 11.9995C17.5 8.96195 15.0376 6.49951 12 6.49951C8.96243 6.49951 6.5 8.96195 6.5 11.9995C6.5 15.0371 8.96243 17.4995 12 17.4995Z" fill="#F5F5F5"/>
<path d="M12 14.9995C13.6569 14.9995 15 13.6564 15 11.9995C15 10.3427 13.6569 8.99951 12 8.99951C10.3431 8.99951 9 10.3427 9 11.9995C9 13.6564 10.3431 14.9995 12 14.9995Z" fill="#0085FF"/>
<path d="M17.2426 26.8608H6.75757C6.20528 26.8608 5.75757 27.3086 5.75757 27.8608V29.4993C5.75757 30.0516 6.20528 30.4993 6.75757 30.4993H17.2426C17.7949 30.4993 18.2426 30.0516 18.2426 29.4993V27.8608C18.2426 27.3086 17.7949 26.8608 17.2426 26.8608Z" fill="#0085FF"/>
<path d="M26.1523 10.1001H30.5001L29.0001 11.9999L30.5001 13.8996H26.1523C25.6001 13.8996 25.1523 13.4519 25.1523 12.8996V11.1001C25.1523 10.5478 25.6001 10.1001 26.1523 10.1001Z" fill="#0085FF"/>
<path d="M7.13729 24.9261C7.44047 24.9285 7.68085 24.6493 7.63192 24.3496C7.32528 22.366 6.37509 20.5198 4.88339 19.0105C2.95126 17.0552 1.92831 14.4656 2.00399 11.7183C2.14608 6.55057 6.29745 2.28787 11.4542 2.01419C16.4395 1.7554 20.8795 5.22464 21.8189 10.0943C21.8707 10.3648 22.129 10.542 22.4044 10.4905C22.6754 10.4383 22.8531 10.1761 22.8004 9.90482C21.7677 4.54788 16.8824 0.728545 11.4015 1.01566C5.72762 1.31668 1.16073 6.00589 1.00399 11.6909C0.921474 14.7132 2.04647 17.5623 4.17245 19.7136C5.51473 21.0721 6.36922 22.7281 6.64364 24.5025C6.68172 24.7495 6.89462 24.9261 7.13729 24.9261Z" fill="black"/>
<path d="M29.6372 12L30.8926 10.4102C31.0112 10.2598 31.0337 10.0547 30.9502 9.88232C30.8662 9.70996 30.6914 9.60034 30.5 9.60034H26.1523C25.3252 9.60034 24.6523 10.2732 24.6523 11.1003V11.5H15.4601C15.2162 9.8067 13.7595 8.5 12 8.5C10.0703 8.5 8.5 10.0701 8.5 12C8.5 13.9299 10.0703 15.5 12 15.5C13.7595 15.5 15.2162 14.1933 15.4601 12.5H16.9746C16.7229 15.0232 14.5881 17 12 17C9.24317 17 7 14.7571 7 12C7 9.24292 9.24317 7 12 7C14.0405 7 15.9126 8.27881 16.6582 10.1821C16.7583 10.4392 17.0483 10.5659 17.3062 10.4653C17.563 10.3645 17.6899 10.0745 17.5889 9.81739C16.6948 7.53418 14.4487 6 12 6C8.69141 6 6.00001 8.69165 6.00001 12C6.00001 15.3083 8.69141 18 12 18C15.1398 18 17.7192 15.5747 17.9747 12.5H19.4747C19.2154 16.4023 15.967 19.5 12 19.5C7.86426 19.5 4.50001 16.1355 4.50001 12C4.50001 7.8645 7.86426 4.5 12 4.5C15.4204 4.5 18.4072 6.81323 19.2632 10.125C19.332 10.3928 19.605 10.553 19.8721 10.4841C20.1397 10.415 20.3003 10.1423 20.231 9.875C19.2612 6.12134 15.8765 3.5 12 3.5C7.31299 3.5 3.5 7.31298 3.5 12C3.5 16.687 7.31299 20.5 12 20.5C16.5182 20.5 20.2137 16.9539 20.4747 12.5H21.9753C21.8516 15.0115 20.8141 17.3501 19 19.1269C17.6138 20.4849 16.6792 22.3394 16.3682 24.3486L16.0565 26.3613H6.75732C5.93017 26.3613 5.25732 27.0342 5.25732 27.8613V29.5C5.25732 30.3271 5.93017 31 6.75732 31H17.2427C18.0698 31 18.7427 30.3271 18.7427 29.5V27.8613C18.7477 26.9609 17.9527 26.2828 17.0684 26.3613L17.3564 24.5015C17.6348 22.7043 18.4668 21.0493 19.7002 19.8413C21.7077 17.8748 22.8509 15.2825 22.9753 12.5H24.6523V12.8997C24.6523 13.7268 25.3252 14.3997 26.1523 14.3997H30.5C30.6914 14.3997 30.8662 14.29 30.9502 14.1177C31.0337 13.9453 31.0112 13.7402 30.8926 13.5898L29.6372 12ZM17.7427 27.8613V29.5C17.7427 29.7756 17.5186 30 17.2427 30H6.75732C6.48144 30 6.25732 29.7756 6.25732 29.5V27.8613C6.25732 27.5857 6.48144 27.3613 6.75732 27.3613H17.2427C17.5186 27.3613 17.7427 27.5857 17.7427 27.8613ZM12 14.5C10.6216 14.5 9.5 13.3784 9.5 12C9.5 10.6216 10.6216 9.5 12 9.5C13.2072 9.5 14.2171 10.3603 14.4495 11.5H12C11.7236 11.5 11.5 11.7239 11.5 12C11.5 12.2761 11.7236 12.5 12 12.5H14.4495C14.2171 13.6396 13.2072 14.5 12 14.5ZM28.6074 12.3098L29.4683 13.3997H26.1523C25.8765 13.3997 25.6523 13.1753 25.6523 12.8997V11.1003C25.6523 10.8247 25.8765 10.6003 26.1523 10.6003H29.4683L28.6074 11.6902C28.4644 11.8718 28.4644 12.1282 28.6074 12.3098Z" fill="black"/>
</svg>
