<svg width="23" height="12" viewBox="0 0 23 12" fill="none" xmlns="http://www.w3.org/2000/svg">
<path d="M22.3546 5.64761L17.3547 0.647679C17.1751 0.437952 16.8595 0.413503 16.6497 0.593153C16.44 0.772759 16.4156 1.0884 16.5952 1.29813C16.612 1.31768 16.6302 1.33594 16.6497 1.35265L20.7946 5.50259H0.999976C0.723863 5.50259 0.5 5.72645 0.5 6.00261C0.5 6.27876 0.723863 6.50258 0.999976 6.50258H20.7946L16.6497 10.6475C16.44 10.8271 16.4156 11.1427 16.5952 11.3525C16.7749 11.5622 17.0905 11.5866 17.3002 11.407C17.3197 11.3902 17.338 11.372 17.3547 11.3525L22.3546 6.35254C22.5485 6.15759 22.5485 5.84264 22.3546 5.64761Z" fill="white"/>
</svg>
